<?xml version="1.0" encoding="utf-8" standalone="no"?>
<!DOCTYPE svg PUBLIC "-//W3C//DTD SVG 1.1//EN"
  "http://www.w3.org/Graphics/SVG/1.1/DTD/svg11.dtd">
<svg xmlns:xlink="http://www.w3.org/1999/xlink" width="1447.908pt" height="674.696pt" viewBox="0 0 1447.908 674.696" xmlns="http://www.w3.org/2000/svg" version="1.1">
 <metadata>
  <rdf:RDF xmlns:dc="http://purl.org/dc/elements/1.1/" xmlns:cc="http://creativecommons.org/ns#" xmlns:rdf="http://www.w3.org/1999/02/22-rdf-syntax-ns#">
   <cc:Work>
    <dc:type rdf:resource="http://purl.org/dc/dcmitype/StillImage"/>
    <dc:date>2026-07-20T19:34:19.925994</dc:date>
    <dc:format>image/svg+xml</dc:format>
    <dc:creator>
     <cc:Agent>
      <dc:title>Matplotlib v3.11.1, https://matplotlib.org/</dc:title>
     </cc:Agent>
    </dc:creator>
   </cc:Work>
  </rdf:RDF>
 </metadata>
 <defs>
  <style type="text/css">*{stroke-linejoin: round; stroke-linecap: butt}</style>
 </defs>
 <g id="figure_1">
  <g id="patch_1">
   <path d="M 0 674.696 
L 1447.908 674.696 
L 1447.908 0 
L 0 0 
z
" style="fill: #ffffff"/>
  </g>
  <g id="axes_1">
   <g id="patch_2">
    <path d="M 90.354 475.904 
C 92.87449 475.904 95.292087 474.902599 97.074343 473.120343 
C 98.856599 471.338087 99.858 468.92049 99.858 466.4 
C 99.858 463.87951 98.856599 461.461913 97.074343 459.679657 
C 95.292087 457.897401 92.87449 456.896 90.354 456.896 
C 87.83351 456.896 85.415913 457.897401 83.633657 459.679657 
C 81.851401 461.461913 80.85 463.87951 80.85 466.4 
C 80.85 468.92049 81.851401 471.338087 83.633657 473.120343 
C 85.415913 474.902599 87.83351 475.904 90.354 475.904 
L 90.354 475.904 
z
" clip-path="url(#p698ca333e0)" style="fill: none; stroke: #000000; stroke-width: 2; stroke-linejoin: miter"/>
   </g>
   <g id="patch_3">
    <path d="M 90.354 536.096 
C 92.87449 536.096 95.292087 535.094599 97.074343 533.312343 
C 98.856599 531.530087 99.858 529.11249 99.858 526.592 
C 99.858 524.07151 98.856599 521.653913 97.074343 519.871657 
C 95.292087 518.089401 92.87449 517.088 90.354 517.088 
C 87.83351 517.088 85.415913 518.089401 83.633657 519.871657 
C 81.851401 521.653913 80.85 524.07151 80.85 526.592 
C 80.85 529.11249 81.851401 531.530087 83.633657 533.312343 
C 85.415913 535.094599 87.83351 536.096 90.354 536.096 
L 90.354 536.096 
z
" clip-path="url(#p698ca333e0)" style="fill: none; stroke: #000000; stroke-width: 2; stroke-linejoin: miter"/>
   </g>
   <g id="patch_4">
    <path d="M 90.354 428.384 
C 92.87449 428.384 95.292087 427.382599 97.074343 425.600343 
C 98.856599 423.818087 99.858 421.40049 99.858 418.88 
C 99.858 416.35951 98.856599 413.941913 97.074343 412.159657 
C 95.292087 410.377401 92.87449 409.376 90.354 409.376 
C 87.83351 409.376 85.415913 410.377401 83.633657 412.159657 
C 81.851401 413.941913 80.85 416.35951 80.85 418.88 
C 80.85 421.40049 81.851401 423.818087 83.633657 425.600343 
C 85.415913 427.382599 87.83351 428.384 90.354 428.384 
L 90.354 428.384 
z
" clip-path="url(#p698ca333e0)" style="fill: none; stroke: #000000; stroke-width: 2; stroke-linejoin: miter"/>
   </g>
   <g id="patch_5">
    <path d="M 90.354 488.576 
C 92.87449 488.576 95.292087 487.574599 97.074343 485.792343 
C 98.856599 484.010087 99.858 481.59249 99.858 479.072 
C 99.858 476.55151 98.856599 474.133913 97.074343 472.351657 
C 95.292087 470.569401 92.87449 469.568 90.354 469.568 
C 87.83351 469.568 85.415913 470.569401 83.633657 472.351657 
C 81.851401 474.133913 80.85 476.55151 80.85 479.072 
C 80.85 481.59249 81.851401 484.010087 83.633657 485.792343 
C 85.415913 487.574599 87.83351 488.576 90.354 488.576 
L 90.354 488.576 
z
" clip-path="url(#p698ca333e0)" style="fill: none; stroke: #000000; stroke-width: 2; stroke-linejoin: miter"/>
   </g>
   <g id="patch_6">
    <path d="M 1054.812 296.516 
L 1074.216 282.656 
L 1054.812 268.796 
L 1054.812 296.516 
z
" clip-path="url(#p698ca333e0)" style="fill: none; stroke: #000000; stroke-width: 2; stroke-linecap: round"/>
   </g>
   <g id="line2d_1">
    <path d="M 351.714 417.296 
L 549.714 417.296 
L 549.714 100.496 
L 351.714 100.496 
L 351.714 417.296 
" clip-path="url(#p698ca333e0)" style="fill: none; stroke: #000000; stroke-width: 2; stroke-linecap: round"/>
   </g>
   <g id="line2d_2">
    <path d="M 351.714 377.696 
L 312.114 377.696 
" clip-path="url(#p698ca333e0)" style="fill: none; stroke: #000000; stroke-width: 2; stroke-linecap: round"/>
   </g>
   <g id="line2d_3">
    <path d="M 351.714 330.176 
L 312.114 330.176 
" clip-path="url(#p698ca333e0)" style="fill: none; stroke: #000000; stroke-width: 2; stroke-linecap: round"/>
   </g>
   <g id="line2d_4">
    <path d="M 549.714 377.696 
L 589.314 377.696 
" clip-path="url(#p698ca333e0)" style="fill: none; stroke: #000000; stroke-width: 2; stroke-linecap: round"/>
   </g>
   <g id="line2d_5">
    <path d="M 549.714 330.176 
L 589.314 330.176 
" clip-path="url(#p698ca333e0)" style="fill: none; stroke: #000000; stroke-width: 2; stroke-linecap: round"/>
   </g>
   <g id="line2d_6">
    <path d="M 549.714 282.656 
L 589.314 282.656 
" clip-path="url(#p698ca333e0)" style="fill: none; stroke: #000000; stroke-width: 2; stroke-linecap: round"/>
   </g>
   <g id="line2d_7">
    <path d="M 312.114 377.696 
L 232.914 377.696 
L 153.714 377.696 
" clip-path="url(#p698ca333e0)" style="fill: none; stroke: #000000; stroke-width: 2; stroke-linecap: round"/>
   </g>
   <g id="line2d_8">
    <path d="M 153.714 377.696 
L 153.714 361.856 
L 153.714 346.016 
" clip-path="url(#p698ca333e0)" style="fill: none; stroke: #000000; stroke-width: 2; stroke-linecap: round"/>
   </g>
   <g id="line2d_9">
    <path d="M 153.714 346.016 
L 153.714 247.016 
L 143.814 243.716 
L 163.614 237.116 
L 143.814 230.516 
L 163.614 223.916 
L 143.814 217.316 
L 163.614 210.716 
L 153.714 207.416 
L 153.714 108.416 
" clip-path="url(#p698ca333e0)" style="fill: none; stroke: #000000; stroke-width: 2; stroke-linecap: round"/>
   </g>
   <g id="line2d_10">
    <path d="M 153.714 108.416 
L 153.714 76.736 
" clip-path="url(#p698ca333e0)" style="fill: none; stroke: #000000; stroke-width: 2; stroke-linecap: round"/>
   </g>
   <g id="line2d_11">
    <path d="M 153.714 76.736 
L 138.864 76.736 
" clip-path="url(#p698ca333e0)" style="fill: none; stroke: #000000; stroke-width: 2; stroke-linecap: round"/>
   </g>
   <g id="line2d_12">
    <path d="M 153.714 76.736 
L 168.564 76.736 
" clip-path="url(#p698ca333e0)" style="fill: none; stroke: #000000; stroke-width: 2; stroke-linecap: round"/>
   </g>
   <g id="line2d_13">
    <path d="M 153.714 377.696 
L 122.034 377.696 
L 90.354 377.696 
" clip-path="url(#p698ca333e0)" style="fill: none; stroke: #000000; stroke-width: 2; stroke-linecap: round"/>
   </g>
   <g id="line2d_14">
    <path d="M 90.354 377.696 
L 90.354 456.896 
M 114.114 466.4 
L 114.114 526.592 
M 114.114 496.496 
L 129.954 496.496 
M 90.354 536.096 
L 90.354 615.296 
" clip-path="url(#p698ca333e0)" style="fill: none; stroke: #000000; stroke-width: 2; stroke-linecap: round"/>
   </g>
   <g id="line2d_15">
    <path d="M 90.354 615.296 
L 90.354 627.176 
L 90.354 639.056 
" clip-path="url(#p698ca333e0)" style="fill: none; stroke: #000000; stroke-width: 2; stroke-linecap: round"/>
   </g>
   <g id="line2d_16">
    <path d="M 90.354 639.056 
L 90.354 654.896 
L 80.454 654.896 
L 100.254 654.896 
M 83.424 659.648 
L 97.284 659.648 
M 88.374 664.4 
L 92.334 664.4 
" clip-path="url(#p698ca333e0)" style="fill: none; stroke: #000000; stroke-width: 2; stroke-linecap: round"/>
   </g>
   <g id="line2d_17">
    <path d="M 312.114 330.176 
L 232.914 330.176 
L 153.714 330.176 
" clip-path="url(#p698ca333e0)" style="fill: none; stroke: #000000; stroke-width: 2; stroke-linecap: round"/>
   </g>
   <g id="line2d_18">
    <path d="M 153.714 330.176 
L 153.714 314.336 
L 153.714 298.496 
" clip-path="url(#p698ca333e0)" style="fill: none; stroke: #000000; stroke-width: 2; stroke-linecap: round"/>
   </g>
   <g id="line2d_19">
    <path d="M 153.714 298.496 
L 153.714 199.496 
L 143.814 196.196 
L 163.614 189.596 
L 143.814 182.996 
L 163.614 176.396 
L 143.814 169.796 
L 163.614 163.196 
L 153.714 159.896 
L 153.714 60.896 
" clip-path="url(#p698ca333e0)" style="fill: none; stroke: #000000; stroke-width: 2; stroke-linecap: round"/>
   </g>
   <g id="line2d_20">
    <path d="M 153.714 60.896 
L 153.714 29.216 
" clip-path="url(#p698ca333e0)" style="fill: none; stroke: #000000; stroke-width: 2; stroke-linecap: round"/>
   </g>
   <g id="line2d_21">
    <path d="M 153.714 29.216 
L 138.864 29.216 
" clip-path="url(#p698ca333e0)" style="fill: none; stroke: #000000; stroke-width: 2; stroke-linecap: round"/>
   </g>
   <g id="line2d_22">
    <path d="M 153.714 29.216 
L 168.564 29.216 
" clip-path="url(#p698ca333e0)" style="fill: none; stroke: #000000; stroke-width: 2; stroke-linecap: round"/>
   </g>
   <g id="line2d_23">
    <path d="M 153.714 330.176 
L 122.034 330.176 
L 90.354 330.176 
" clip-path="url(#p698ca333e0)" style="fill: none; stroke: #000000; stroke-width: 2; stroke-linecap: round"/>
   </g>
   <g id="line2d_24">
    <path d="M 90.354 330.176 
L 90.354 409.376 
M 114.114 418.88 
L 114.114 479.072 
M 114.114 448.976 
L 129.954 448.976 
M 90.354 488.576 
L 90.354 567.776 
" clip-path="url(#p698ca333e0)" style="fill: none; stroke: #000000; stroke-width: 2; stroke-linecap: round"/>
   </g>
   <g id="line2d_25">
    <path d="M 90.354 567.776 
L 90.354 579.656 
L 90.354 591.536 
" clip-path="url(#p698ca333e0)" style="fill: none; stroke: #000000; stroke-width: 2; stroke-linecap: round"/>
   </g>
   <g id="line2d_26">
    <path d="M 90.354 591.536 
L 90.354 607.376 
L 80.454 607.376 
L 100.254 607.376 
M 83.424 612.128 
L 97.284 612.128 
M 88.374 616.88 
L 92.334 616.88 
" clip-path="url(#p698ca333e0)" style="fill: none; stroke: #000000; stroke-width: 2; stroke-linecap: round"/>
   </g>
   <g id="line2d_27">
    <path d="M 589.314 377.696 
L 708.114 377.696 
L 826.914 377.696 
" clip-path="url(#p698ca333e0)" style="fill: none; stroke: #000000; stroke-width: 2; stroke-linecap: round"/>
   </g>
   <g id="line2d_28">
    <path d="M 589.314 330.176 
L 708.114 330.176 
L 826.914 330.176 
" clip-path="url(#p698ca333e0)" style="fill: none; stroke: #000000; stroke-width: 2; stroke-linecap: round"/>
   </g>
   <g id="line2d_29">
    <path d="M 589.314 282.656 
L 648.714 282.656 
L 708.114 282.656 
" clip-path="url(#p698ca333e0)" style="fill: none; stroke: #000000; stroke-width: 2; stroke-linecap: round"/>
   </g>
   <g id="line2d_30">
    <path d="M 708.114 282.656 
L 805.134 282.656 
L 808.764 271.766 
L 816.024 293.546 
L 823.284 271.766 
L 830.544 293.546 
L 837.804 271.766 
L 845.064 293.546 
L 848.694 282.656 
L 945.714 282.656 
" clip-path="url(#p698ca333e0)" style="fill: none; stroke: #000000; stroke-width: 2; stroke-linecap: round"/>
   </g>
   <g id="line2d_31">
    <path d="M 945.714 282.656 
L 1054.812 282.656 
M 1074.216 296.516 
L 1074.216 268.796 
M 1074.216 282.656 
L 1183.314 282.656 
" clip-path="url(#p698ca333e0)" style="fill: none; stroke: #000000; stroke-width: 2; stroke-linecap: round"/>
   </g>
   <g id="line2d_32">
    <path d="M 1068.672 303.446 
L 1074.673159 313.948029 
" clip-path="url(#p698ca333e0)" style="fill: none; stroke: #000000; stroke-width: 2; stroke-linecap: round"/>
   </g>
   <g id="patch_7">
    <path d="M 1080.174348 310.804492 
L 1082.532 327.701 
L 1069.171971 317.091565 
z
" clip-path="url(#p698ca333e0)"/>
   </g>
   <g id="line2d_33">
    <path d="M 1056.198 303.446 
L 1062.199159 313.948029 
" clip-path="url(#p698ca333e0)" style="fill: none; stroke: #000000; stroke-width: 2; stroke-linecap: round"/>
   </g>
   <g id="patch_8">
    <path d="M 1067.700348 310.804492 
L 1070.058 327.701 
L 1056.697971 317.091565 
z
" clip-path="url(#p698ca333e0)"/>
   </g>
   <g id="line2d_34">
    <path d="M 1183.314 282.656 
L 1183.314 302.456 
L 1183.314 322.256 
" clip-path="url(#p698ca333e0)" style="fill: none; stroke: #000000; stroke-width: 2; stroke-linecap: round"/>
   </g>
   <g id="line2d_35">
    <path d="M 1183.314 322.256 
L 1183.314 338.096 
L 1173.414 338.096 
L 1193.214 338.096 
M 1176.384 342.848 
L 1190.244 342.848 
M 1181.334 347.6 
L 1185.294 347.6 
" clip-path="url(#p698ca333e0)" style="fill: none; stroke: #000000; stroke-width: 2; stroke-linecap: round"/>
   </g>
   <g id="line2d_36">
    <path d="M 1143.714 377.696 
L 1143.714 575.696 
L 1365.474 575.696 
L 1365.474 377.696 
L 1143.714 377.696 
" clip-path="url(#p698ca333e0)" style="fill: none; stroke: #000000; stroke-width: 2; stroke-linecap: round"/>
   </g>
   <g id="line2d_37">
    <path d="M 1183.314 377.696 
L 1183.314 338.096 
" clip-path="url(#p698ca333e0)" style="fill: none; stroke: #000000; stroke-width: 2; stroke-linecap: round"/>
   </g>
   <g id="line2d_38">
    <path d="M 1230.834 377.696 
L 1230.834 338.096 
" clip-path="url(#p698ca333e0)" style="fill: none; stroke: #000000; stroke-width: 2; stroke-linecap: round"/>
   </g>
   <g id="line2d_39">
    <path d="M 1278.354 377.696 
L 1278.354 338.096 
" clip-path="url(#p698ca333e0)" style="fill: none; stroke: #000000; stroke-width: 2; stroke-linecap: round"/>
   </g>
   <g id="line2d_40">
    <path d="M 1325.874 377.696 
L 1325.874 338.096 
" clip-path="url(#p698ca333e0)" style="fill: none; stroke: #000000; stroke-width: 2; stroke-linecap: round"/>
   </g>
   <g id="line2d_41">
    <path d="M 1183.314 338.096 
L 1143.714 338.096 
L 1104.114 338.096 
" clip-path="url(#p698ca333e0)" style="fill: none; stroke: #000000; stroke-width: 2; stroke-linecap: round"/>
   </g>
   <g id="line2d_42">
    <path d="M 1104.114 338.096 
L 1104.114 353.936 
L 1094.214 353.936 
L 1114.014 353.936 
M 1097.184 358.688 
L 1111.044 358.688 
M 1102.134 363.44 
L 1106.094 363.44 
" clip-path="url(#p698ca333e0)" style="fill: none; stroke: #000000; stroke-width: 2; stroke-linecap: round"/>
   </g>
   <g id="line2d_43">
    <path d="M 1230.834 338.096 
L 1191.234 338.096 
L 1151.634 338.096 
" clip-path="url(#p698ca333e0)" style="fill: none; stroke: #000000; stroke-width: 2; stroke-linecap: round"/>
   </g>
   <g id="line2d_44">
    <path d="M 1151.634 338.096 
L 1151.634 306.416 
" clip-path="url(#p698ca333e0)" style="fill: none; stroke: #000000; stroke-width: 2; stroke-linecap: round"/>
   </g>
   <g id="line2d_45">
    <path d="M 1151.634 306.416 
L 1136.784 306.416 
" clip-path="url(#p698ca333e0)" style="fill: none; stroke: #000000; stroke-width: 2; stroke-linecap: round"/>
   </g>
   <g id="line2d_46">
    <path d="M 1151.634 306.416 
L 1166.484 306.416 
" clip-path="url(#p698ca333e0)" style="fill: none; stroke: #000000; stroke-width: 2; stroke-linecap: round"/>
   </g>
   <g id="text_1">
    <!-- D5 -->
    <g transform="translate(332.28525 372.167641) scale(0.11 -0.11)">
     <defs>
      <path id="DejaVuSans-27" d="M 1259 4147 
L 1259 519 
L 2022 519 
Q 2988 519 3436 956 
Q 3884 1394 3884 2338 
Q 3884 3275 3436 3711 
Q 2988 4147 2022 4147 
L 1259 4147 
z
M 628 4666 
L 1925 4666 
Q 3281 4666 3915 4102 
Q 4550 3538 4550 2338 
Q 4550 1131 3912 565 
Q 3275 0 1925 0 
L 628 0 
L 628 4666 
z
" transform="scale(0.015625)"/>
      <path id="DejaVuSans-18" d="M 691 4666 
L 3169 4666 
L 3169 4134 
L 1269 4134 
L 1269 2991 
Q 1406 3038 1543 3061 
Q 1681 3084 1819 3084 
Q 2600 3084 3056 2656 
Q 3513 2228 3513 1497 
Q 3513 744 3044 326 
Q 2575 -91 1722 -91 
Q 1428 -91 1123 -41 
Q 819 9 494 109 
L 494 744 
Q 775 591 1075 516 
Q 1375 441 1709 441 
Q 2250 441 2565 725 
Q 2881 1009 2881 1497 
Q 2881 1984 2565 2268 
Q 2250 2553 1709 2553 
Q 1456 2553 1204 2497 
Q 953 2441 691 2322 
L 691 4666 
z
" transform="scale(0.015625)"/>
     </defs>
     <use xlink:href="#DejaVuSans-27"/>
     <use xlink:href="#DejaVuSans-18" transform="translate(77 0)"/>
    </g>
   </g>
   <g id="text_2">
    <!-- D5 -->
    <g transform="translate(363.594 382.699906) scale(0.14 -0.14)">
     <use xlink:href="#DejaVuSans-27"/>
     <use xlink:href="#DejaVuSans-18" transform="translate(77 0)"/>
    </g>
   </g>
   <g id="text_3">
    <!-- D6 -->
    <g transform="translate(332.28525 324.719828) scale(0.11 -0.11)">
     <defs>
      <path id="DejaVuSans-19" d="M 2113 2584 
Q 1688 2584 1439 2293 
Q 1191 2003 1191 1497 
Q 1191 994 1439 701 
Q 1688 409 2113 409 
Q 2538 409 2786 701 
Q 3034 994 3034 1497 
Q 3034 2003 2786 2293 
Q 2538 2584 2113 2584 
z
M 3366 4563 
L 3366 3988 
Q 3128 4100 2886 4159 
Q 2644 4219 2406 4219 
Q 1781 4219 1451 3797 
Q 1122 3375 1075 2522 
Q 1259 2794 1537 2939 
Q 1816 3084 2150 3084 
Q 2853 3084 3261 2657 
Q 3669 2231 3669 1497 
Q 3669 778 3244 343 
Q 2819 -91 2113 -91 
Q 1303 -91 875 529 
Q 447 1150 447 2328 
Q 447 3434 972 4092 
Q 1497 4750 2381 4750 
Q 2619 4750 2861 4703 
Q 3103 4656 3366 4563 
z
" transform="scale(0.015625)"/>
     </defs>
     <use xlink:href="#DejaVuSans-27"/>
     <use xlink:href="#DejaVuSans-19" transform="translate(77 0)"/>
    </g>
   </g>
   <g id="text_4">
    <!-- D6 -->
    <g transform="translate(363.594 335.271781) scale(0.14 -0.14)">
     <use xlink:href="#DejaVuSans-27"/>
     <use xlink:href="#DejaVuSans-19" transform="translate(77 0)"/>
    </g>
   </g>
   <g id="text_5">
    <!-- SDA -->
    <g transform="translate(553.674 372.239828) scale(0.11 -0.11)">
     <defs>
      <path id="DejaVuSans-36" d="M 3425 4513 
L 3425 3897 
Q 3066 4069 2747 4153 
Q 2428 4238 2131 4238 
Q 1616 4238 1336 4038 
Q 1056 3838 1056 3469 
Q 1056 3159 1242 3001 
Q 1428 2844 1947 2747 
L 2328 2669 
Q 3034 2534 3370 2195 
Q 3706 1856 3706 1288 
Q 3706 609 3251 259 
Q 2797 -91 1919 -91 
Q 1588 -91 1214 -16 
Q 841 59 441 206 
L 441 856 
Q 825 641 1194 531 
Q 1563 422 1919 422 
Q 2459 422 2753 634 
Q 3047 847 3047 1241 
Q 3047 1584 2836 1778 
Q 2625 1972 2144 2069 
L 1759 2144 
Q 1053 2284 737 2584 
Q 422 2884 422 3419 
Q 422 4038 858 4394 
Q 1294 4750 2059 4750 
Q 2388 4750 2728 4690 
Q 3069 4631 3425 4513 
z
" transform="scale(0.015625)"/>
      <path id="DejaVuSans-24" d="M 2188 4044 
L 1331 1722 
L 3047 1722 
L 2188 4044 
z
M 1831 4666 
L 2547 4666 
L 4325 0 
L 3669 0 
L 3244 1197 
L 1141 1197 
L 716 0 
L 50 0 
L 1831 4666 
z
" transform="scale(0.015625)"/>
     </defs>
     <use xlink:href="#DejaVuSans-36"/>
     <use xlink:href="#DejaVuSans-27" transform="translate(63.484375 0)"/>
     <use xlink:href="#DejaVuSans-24" transform="translate(138.734375 0)"/>
    </g>
   </g>
   <g id="text_6">
    <!-- SDA20 -->
    <g transform="translate(491.019313 382.791781) scale(0.14 -0.14)">
     <defs>
      <path id="DejaVuSans-15" d="M 1228 531 
L 3431 531 
L 3431 0 
L 469 0 
L 469 531 
Q 828 903 1448 1529 
Q 2069 2156 2228 2338 
Q 2531 2678 2651 2914 
Q 2772 3150 2772 3378 
Q 2772 3750 2511 3984 
Q 2250 4219 1831 4219 
Q 1534 4219 1204 4116 
Q 875 4013 500 3803 
L 500 4441 
Q 881 4594 1212 4672 
Q 1544 4750 1819 4750 
Q 2544 4750 2975 4387 
Q 3406 4025 3406 3419 
Q 3406 3131 3298 2873 
Q 3191 2616 2906 2266 
Q 2828 2175 2409 1742 
Q 1991 1309 1228 531 
z
" transform="scale(0.015625)"/>
      <path id="DejaVuSans-13" d="M 2034 4250 
Q 1547 4250 1301 3770 
Q 1056 3291 1056 2328 
Q 1056 1369 1301 889 
Q 1547 409 2034 409 
Q 2525 409 2770 889 
Q 3016 1369 3016 2328 
Q 3016 3291 2770 3770 
Q 2525 4250 2034 4250 
z
M 2034 4750 
Q 2819 4750 3233 4129 
Q 3647 3509 3647 2328 
Q 3647 1150 3233 529 
Q 2819 -91 2034 -91 
Q 1250 -91 836 529 
Q 422 1150 422 2328 
Q 422 3509 836 4129 
Q 1250 4750 2034 4750 
z
" transform="scale(0.015625)"/>
     </defs>
     <use xlink:href="#DejaVuSans-36"/>
     <use xlink:href="#DejaVuSans-27" transform="translate(63.484375 0)"/>
     <use xlink:href="#DejaVuSans-24" transform="translate(138.734375 0)"/>
     <use xlink:href="#DejaVuSans-15" transform="translate(207.140625 0)"/>
     <use xlink:href="#DejaVuSans-13" transform="translate(270.765625 0)"/>
    </g>
   </g>
   <g id="text_7">
    <!-- SCL -->
    <g transform="translate(553.674 324.719828) scale(0.11 -0.11)">
     <defs>
      <path id="DejaVuSans-26" d="M 4122 4306 
L 4122 3641 
Q 3803 3938 3442 4084 
Q 3081 4231 2675 4231 
Q 1875 4231 1450 3742 
Q 1025 3253 1025 2328 
Q 1025 1406 1450 917 
Q 1875 428 2675 428 
Q 3081 428 3442 575 
Q 3803 722 4122 1019 
L 4122 359 
Q 3791 134 3420 21 
Q 3050 -91 2638 -91 
Q 1578 -91 968 557 
Q 359 1206 359 2328 
Q 359 3453 968 4101 
Q 1578 4750 2638 4750 
Q 3056 4750 3426 4639 
Q 3797 4528 4122 4306 
z
" transform="scale(0.015625)"/>
      <path id="DejaVuSans-2f" d="M 628 4666 
L 1259 4666 
L 1259 531 
L 3531 531 
L 3531 0 
L 628 0 
L 628 4666 
z
" transform="scale(0.015625)"/>
     </defs>
     <use xlink:href="#DejaVuSans-36"/>
     <use xlink:href="#DejaVuSans-26" transform="translate(63.484375 0)"/>
     <use xlink:href="#DejaVuSans-2f" transform="translate(133.3125 0)"/>
    </g>
   </g>
   <g id="text_8">
    <!-- SCL21 -->
    <g transform="translate(493.554625 335.271781) scale(0.14 -0.14)">
     <defs>
      <path id="DejaVuSans-14" d="M 794 531 
L 1825 531 
L 1825 4091 
L 703 3866 
L 703 4441 
L 1819 4666 
L 2450 4666 
L 2450 531 
L 3481 531 
L 3481 0 
L 794 0 
L 794 531 
z
" transform="scale(0.015625)"/>
     </defs>
     <use xlink:href="#DejaVuSans-36"/>
     <use xlink:href="#DejaVuSans-26" transform="translate(63.484375 0)"/>
     <use xlink:href="#DejaVuSans-2f" transform="translate(133.3125 0)"/>
     <use xlink:href="#DejaVuSans-15" transform="translate(189.03125 0)"/>
     <use xlink:href="#DejaVuSans-14" transform="translate(252.65625 0)"/>
    </g>
   </g>
   <g id="text_9">
    <!-- D2 -->
    <g transform="translate(553.674 277.278031) scale(0.11 -0.11)">
     <use xlink:href="#DejaVuSans-27"/>
     <use xlink:href="#DejaVuSans-15" transform="translate(77 0)"/>
    </g>
   </g>
   <g id="text_10">
    <!-- D2 -->
    <g transform="translate(518.1465 287.851312) scale(0.14 -0.14)">
     <use xlink:href="#DejaVuSans-27"/>
     <use xlink:href="#DejaVuSans-15" transform="translate(77 0)"/>
    </g>
   </g>
   <g id="text_11">
    <!-- Arduino Mega -->
    <g transform="translate(433.430797 429.095687) scale(0.05 -0.05)">
     <defs>
      <path id="DejaVuSans-55" d="M 2631 2963 
Q 2534 3019 2420 3045 
Q 2306 3072 2169 3072 
Q 1681 3072 1420 2755 
Q 1159 2438 1159 1844 
L 1159 0 
L 581 0 
L 581 3500 
L 1159 3500 
L 1159 2956 
Q 1341 3275 1631 3429 
Q 1922 3584 2338 3584 
Q 2397 3584 2469 3576 
Q 2541 3569 2628 3553 
L 2631 2963 
z
" transform="scale(0.015625)"/>
      <path id="DejaVuSans-47" d="M 2906 2969 
L 2906 4863 
L 3481 4863 
L 3481 0 
L 2906 0 
L 2906 525 
Q 2725 213 2448 61 
Q 2172 -91 1784 -91 
Q 1150 -91 751 415 
Q 353 922 353 1747 
Q 353 2572 751 3078 
Q 1150 3584 1784 3584 
Q 2172 3584 2448 3432 
Q 2725 3281 2906 2969 
z
M 947 1747 
Q 947 1113 1208 752 
Q 1469 391 1925 391 
Q 2381 391 2643 752 
Q 2906 1113 2906 1747 
Q 2906 2381 2643 2742 
Q 2381 3103 1925 3103 
Q 1469 3103 1208 2742 
Q 947 2381 947 1747 
z
" transform="scale(0.015625)"/>
      <path id="DejaVuSans-58" d="M 544 1381 
L 544 3500 
L 1119 3500 
L 1119 1403 
Q 1119 906 1312 657 
Q 1506 409 1894 409 
Q 2359 409 2629 706 
Q 2900 1003 2900 1516 
L 2900 3500 
L 3475 3500 
L 3475 0 
L 2900 0 
L 2900 538 
Q 2691 219 2414 64 
Q 2138 -91 1772 -91 
Q 1169 -91 856 284 
Q 544 659 544 1381 
z
M 1991 3584 
L 1991 3584 
z
" transform="scale(0.015625)"/>
      <path id="DejaVuSans-4c" d="M 603 3500 
L 1178 3500 
L 1178 0 
L 603 0 
L 603 3500 
z
M 603 4863 
L 1178 4863 
L 1178 4134 
L 603 4134 
L 603 4863 
z
" transform="scale(0.015625)"/>
      <path id="DejaVuSans-51" d="M 3513 2113 
L 3513 0 
L 2938 0 
L 2938 2094 
Q 2938 2591 2744 2837 
Q 2550 3084 2163 3084 
Q 1697 3084 1428 2787 
Q 1159 2491 1159 1978 
L 1159 0 
L 581 0 
L 581 3500 
L 1159 3500 
L 1159 2956 
Q 1366 3272 1645 3428 
Q 1925 3584 2291 3584 
Q 2894 3584 3203 3211 
Q 3513 2838 3513 2113 
z
" transform="scale(0.015625)"/>
      <path id="DejaVuSans-52" d="M 1959 3097 
Q 1497 3097 1228 2736 
Q 959 2375 959 1747 
Q 959 1119 1226 758 
Q 1494 397 1959 397 
Q 2419 397 2687 759 
Q 2956 1122 2956 1747 
Q 2956 2369 2687 2733 
Q 2419 3097 1959 3097 
z
M 1959 3584 
Q 2709 3584 3137 3096 
Q 3566 2609 3566 1747 
Q 3566 888 3137 398 
Q 2709 -91 1959 -91 
Q 1206 -91 779 398 
Q 353 888 353 1747 
Q 353 2609 779 3096 
Q 1206 3584 1959 3584 
z
" transform="scale(0.015625)"/>
      <path id="DejaVuSans-3" transform="scale(0.015625)"/>
      <path id="DejaVuSans-30" d="M 628 4666 
L 1569 4666 
L 2759 1491 
L 3956 4666 
L 4897 4666 
L 4897 0 
L 4281 0 
L 4281 4097 
L 3078 897 
L 2444 897 
L 1241 4097 
L 1241 0 
L 628 0 
L 628 4666 
z
" transform="scale(0.015625)"/>
      <path id="DejaVuSans-48" d="M 3597 1894 
L 3597 1613 
L 953 1613 
Q 991 1019 1311 708 
Q 1631 397 2203 397 
Q 2534 397 2845 478 
Q 3156 559 3463 722 
L 3463 178 
Q 3153 47 2828 -22 
Q 2503 -91 2169 -91 
Q 1331 -91 842 396 
Q 353 884 353 1716 
Q 353 2575 817 3079 
Q 1281 3584 2069 3584 
Q 2775 3584 3186 3129 
Q 3597 2675 3597 1894 
z
M 3022 2063 
Q 3016 2534 2758 2815 
Q 2500 3097 2075 3097 
Q 1594 3097 1305 2825 
Q 1016 2553 972 2059 
L 3022 2063 
z
" transform="scale(0.015625)"/>
      <path id="DejaVuSans-4a" d="M 2906 1791 
Q 2906 2416 2648 2759 
Q 2391 3103 1925 3103 
Q 1463 3103 1205 2759 
Q 947 2416 947 1791 
Q 947 1169 1205 825 
Q 1463 481 1925 481 
Q 2391 481 2648 825 
Q 2906 1169 2906 1791 
z
M 3481 434 
Q 3481 -459 3084 -895 
Q 2688 -1331 1869 -1331 
Q 1566 -1331 1297 -1286 
Q 1028 -1241 775 -1147 
L 775 -588 
Q 1028 -725 1275 -790 
Q 1522 -856 1778 -856 
Q 2344 -856 2625 -561 
Q 2906 -266 2906 331 
L 2906 616 
Q 2728 306 2450 153 
Q 2172 0 1784 0 
Q 1141 0 747 490 
Q 353 981 353 1791 
Q 353 2603 747 3093 
Q 1141 3584 1784 3584 
Q 2172 3584 2450 3431 
Q 2728 3278 2906 2969 
L 2906 3500 
L 3481 3500 
L 3481 434 
z
" transform="scale(0.015625)"/>
      <path id="DejaVuSans-44" d="M 2194 1759 
Q 1497 1759 1228 1600 
Q 959 1441 959 1056 
Q 959 750 1161 570 
Q 1363 391 1709 391 
Q 2188 391 2477 730 
Q 2766 1069 2766 1631 
L 2766 1759 
L 2194 1759 
z
M 3341 1997 
L 3341 0 
L 2766 0 
L 2766 531 
Q 2569 213 2275 61 
Q 1981 -91 1556 -91 
Q 1019 -91 701 211 
Q 384 513 384 1019 
Q 384 1609 779 1909 
Q 1175 2209 1959 2209 
L 2766 2209 
L 2766 2266 
Q 2766 2663 2505 2880 
Q 2244 3097 1772 3097 
Q 1472 3097 1187 3025 
Q 903 2953 641 2809 
L 641 3341 
Q 956 3463 1253 3523 
Q 1550 3584 1831 3584 
Q 2591 3584 2966 3190 
Q 3341 2797 3341 1997 
z
" transform="scale(0.015625)"/>
     </defs>
     <use xlink:href="#DejaVuSans-24"/>
     <use xlink:href="#DejaVuSans-55" transform="translate(68.40625 0)"/>
     <use xlink:href="#DejaVuSans-47" transform="translate(107.765625 0)"/>
     <use xlink:href="#DejaVuSans-58" transform="translate(171.25 0)"/>
     <use xlink:href="#DejaVuSans-4c" transform="translate(234.625 0)"/>
     <use xlink:href="#DejaVuSans-51" transform="translate(262.40625 0)"/>
     <use xlink:href="#DejaVuSans-52" transform="translate(325.78125 0)"/>
     <use xlink:href="#DejaVuSans-3" transform="translate(386.96875 0)"/>
     <use xlink:href="#DejaVuSans-30" transform="translate(418.75 0)"/>
     <use xlink:href="#DejaVuSans-48" transform="translate(505.03125 0)"/>
     <use xlink:href="#DejaVuSans-4a" transform="translate(566.5625 0)"/>
     <use xlink:href="#DejaVuSans-44" transform="translate(630.046875 0)"/>
    </g>
   </g>
   <g id="text_12">
    <!-- Pull-up -->
    <g transform="translate(119.428687 228.871625) scale(0.06 -0.06)">
     <defs>
      <path id="DejaVuSans-33" d="M 1259 4147 
L 1259 2394 
L 2053 2394 
Q 2494 2394 2734 2622 
Q 2975 2850 2975 3272 
Q 2975 3691 2734 3919 
Q 2494 4147 2053 4147 
L 1259 4147 
z
M 628 4666 
L 2053 4666 
Q 2838 4666 3239 4311 
Q 3641 3956 3641 3272 
Q 3641 2581 3239 2228 
Q 2838 1875 2053 1875 
L 1259 1875 
L 1259 0 
L 628 0 
L 628 4666 
z
" transform="scale(0.015625)"/>
      <path id="DejaVuSans-4f" d="M 603 4863 
L 1178 4863 
L 1178 0 
L 603 0 
L 603 4863 
z
" transform="scale(0.015625)"/>
      <path id="DejaVuSans-10" d="M 313 2009 
L 1997 2009 
L 1997 1497 
L 313 1497 
L 313 2009 
z
" transform="scale(0.015625)"/>
      <path id="DejaVuSans-53" d="M 1159 525 
L 1159 -1331 
L 581 -1331 
L 581 3500 
L 1159 3500 
L 1159 2969 
Q 1341 3281 1617 3432 
Q 1894 3584 2278 3584 
Q 2916 3584 3314 3078 
Q 3713 2572 3713 1747 
Q 3713 922 3314 415 
Q 2916 -91 2278 -91 
Q 1894 -91 1617 61 
Q 1341 213 1159 525 
z
M 3116 1747 
Q 3116 2381 2855 2742 
Q 2594 3103 2138 3103 
Q 1681 3103 1420 2742 
Q 1159 2381 1159 1747 
Q 1159 1113 1420 752 
Q 1681 391 2138 391 
Q 2594 391 2855 752 
Q 3116 1113 3116 1747 
z
" transform="scale(0.015625)"/>
     </defs>
     <use xlink:href="#DejaVuSans-33"/>
     <use xlink:href="#DejaVuSans-58" transform="translate(58.546875 0)"/>
     <use xlink:href="#DejaVuSans-4f" transform="translate(121.921875 0)"/>
     <use xlink:href="#DejaVuSans-4f" transform="translate(149.703125 0)"/>
     <use xlink:href="#DejaVuSans-10" transform="translate(177.484375 0)"/>
     <use xlink:href="#DejaVuSans-58" transform="translate(213.5625 0)"/>
     <use xlink:href="#DejaVuSans-53" transform="translate(276.9375 0)"/>
    </g>
   </g>
   <g id="text_13">
    <!-- +5V -->
    <g transform="translate(148.318297 68.103109) scale(0.05 -0.05)">
     <defs>
      <path id="DejaVuSans-e" d="M 2944 4013 
L 2944 2272 
L 4684 2272 
L 4684 1741 
L 2944 1741 
L 2944 0 
L 2419 0 
L 2419 1741 
L 678 1741 
L 678 2272 
L 2419 2272 
L 2419 4013 
L 2944 4013 
z
" transform="scale(0.015625)"/>
      <path id="DejaVuSans-39" d="M 1831 0 
L 50 4666 
L 709 4666 
L 2188 738 
L 3669 4666 
L 4325 4666 
L 2547 0 
L 1831 0 
z
" transform="scale(0.015625)"/>
     </defs>
     <use xlink:href="#DejaVuSans-e"/>
     <use xlink:href="#DejaVuSans-18" transform="translate(83.796875 0)"/>
     <use xlink:href="#DejaVuSans-39" transform="translate(147.421875 0)"/>
    </g>
   </g>
   <g id="text_14">
    <!-- BTN1 -->
    <g transform="translate(59.52375 495.818656) scale(0.05 -0.05)">
     <defs>
      <path id="DejaVuSans-25" d="M 1259 2228 
L 1259 519 
L 2272 519 
Q 2781 519 3026 730 
Q 3272 941 3272 1375 
Q 3272 1813 3026 2020 
Q 2781 2228 2272 2228 
L 1259 2228 
z
M 1259 4147 
L 1259 2741 
L 2194 2741 
Q 2656 2741 2882 2914 
Q 3109 3088 3109 3444 
Q 3109 3797 2882 3972 
Q 2656 4147 2194 4147 
L 1259 4147 
z
M 628 4666 
L 2241 4666 
Q 2963 4666 3353 4366 
Q 3744 4066 3744 3513 
Q 3744 3084 3544 2831 
Q 3344 2578 2956 2516 
Q 3422 2416 3680 2098 
Q 3938 1781 3938 1306 
Q 3938 681 3513 340 
Q 3088 0 2303 0 
L 628 0 
L 628 4666 
z
" transform="scale(0.015625)"/>
      <path id="DejaVuSans-37" d="M -19 4666 
L 3928 4666 
L 3928 4134 
L 2272 4134 
L 2272 0 
L 1638 0 
L 1638 4134 
L -19 4134 
L -19 4666 
z
" transform="scale(0.015625)"/>
      <path id="DejaVuSans-31" d="M 628 4666 
L 1478 4666 
L 3547 763 
L 3547 4666 
L 4159 4666 
L 4159 0 
L 3309 0 
L 1241 3903 
L 1241 0 
L 628 0 
L 628 4666 
z
" transform="scale(0.015625)"/>
     </defs>
     <use xlink:href="#DejaVuSans-25"/>
     <use xlink:href="#DejaVuSans-37" transform="translate(68.609375 0)"/>
     <use xlink:href="#DejaVuSans-31" transform="translate(129.6875 0)"/>
     <use xlink:href="#DejaVuSans-14" transform="translate(204.5 0)"/>
    </g>
    <!-- CLK STEP -->
    <g transform="translate(49.382344 500.815922) scale(0.05 -0.05)">
     <defs>
      <path id="DejaVuSans-2e" d="M 628 4666 
L 1259 4666 
L 1259 2694 
L 3353 4666 
L 4166 4666 
L 1850 2491 
L 4331 0 
L 3500 0 
L 1259 2247 
L 1259 0 
L 628 0 
L 628 4666 
z
" transform="scale(0.015625)"/>
      <path id="DejaVuSans-28" d="M 628 4666 
L 3578 4666 
L 3578 4134 
L 1259 4134 
L 1259 2753 
L 3481 2753 
L 3481 2222 
L 1259 2222 
L 1259 531 
L 3634 531 
L 3634 0 
L 628 0 
L 628 4666 
z
" transform="scale(0.015625)"/>
     </defs>
     <use xlink:href="#DejaVuSans-26"/>
     <use xlink:href="#DejaVuSans-2f" transform="translate(69.828125 0)"/>
     <use xlink:href="#DejaVuSans-2e" transform="translate(125.546875 0)"/>
     <use xlink:href="#DejaVuSans-3" transform="translate(191.125 0)"/>
     <use xlink:href="#DejaVuSans-36" transform="translate(222.90625 0)"/>
     <use xlink:href="#DejaVuSans-37" transform="translate(286.390625 0)"/>
     <use xlink:href="#DejaVuSans-28" transform="translate(347.46875 0)"/>
     <use xlink:href="#DejaVuSans-33" transform="translate(410.65625 0)"/>
    </g>
   </g>
   <g id="text_15">
    <!-- Pull-up -->
    <g transform="translate(119.428687 181.351625) scale(0.06 -0.06)">
     <use xlink:href="#DejaVuSans-33"/>
     <use xlink:href="#DejaVuSans-58" transform="translate(58.546875 0)"/>
     <use xlink:href="#DejaVuSans-4f" transform="translate(121.921875 0)"/>
     <use xlink:href="#DejaVuSans-4f" transform="translate(149.703125 0)"/>
     <use xlink:href="#DejaVuSans-10" transform="translate(177.484375 0)"/>
     <use xlink:href="#DejaVuSans-58" transform="translate(213.5625 0)"/>
     <use xlink:href="#DejaVuSans-53" transform="translate(276.9375 0)"/>
    </g>
   </g>
   <g id="text_16">
    <!-- +5V -->
    <g transform="translate(148.318297 20.583109) scale(0.05 -0.05)">
     <use xlink:href="#DejaVuSans-e"/>
     <use xlink:href="#DejaVuSans-18" transform="translate(83.796875 0)"/>
     <use xlink:href="#DejaVuSans-39" transform="translate(147.421875 0)"/>
    </g>
   </g>
   <g id="text_17">
    <!-- BTN2 -->
    <g transform="translate(59.52375 448.331469) scale(0.05 -0.05)">
     <use xlink:href="#DejaVuSans-25"/>
     <use xlink:href="#DejaVuSans-37" transform="translate(68.609375 0)"/>
     <use xlink:href="#DejaVuSans-31" transform="translate(129.6875 0)"/>
     <use xlink:href="#DejaVuSans-15" transform="translate(204.5 0)"/>
    </g>
    <!-- INSTR STEP -->
    <g transform="translate(44.020625 453.295922) scale(0.05 -0.05)">
     <defs>
      <path id="DejaVuSans-2c" d="M 628 4666 
L 1259 4666 
L 1259 0 
L 628 0 
L 628 4666 
z
" transform="scale(0.015625)"/>
      <path id="DejaVuSans-35" d="M 2841 2188 
Q 3044 2119 3236 1894 
Q 3428 1669 3622 1275 
L 4263 0 
L 3584 0 
L 2988 1197 
Q 2756 1666 2539 1819 
Q 2322 1972 1947 1972 
L 1259 1972 
L 1259 0 
L 628 0 
L 628 4666 
L 2053 4666 
Q 2853 4666 3247 4331 
Q 3641 3997 3641 3322 
Q 3641 2881 3436 2590 
Q 3231 2300 2841 2188 
z
M 1259 4147 
L 1259 2491 
L 2053 2491 
Q 2509 2491 2742 2702 
Q 2975 2913 2975 3322 
Q 2975 3731 2742 3939 
Q 2509 4147 2053 4147 
L 1259 4147 
z
" transform="scale(0.015625)"/>
     </defs>
     <use xlink:href="#DejaVuSans-2c"/>
     <use xlink:href="#DejaVuSans-31" transform="translate(29.5 0)"/>
     <use xlink:href="#DejaVuSans-36" transform="translate(104.3125 0)"/>
     <use xlink:href="#DejaVuSans-37" transform="translate(167.796875 0)"/>
     <use xlink:href="#DejaVuSans-35" transform="translate(228.875 0)"/>
     <use xlink:href="#DejaVuSans-3" transform="translate(298.359375 0)"/>
     <use xlink:href="#DejaVuSans-36" transform="translate(330.140625 0)"/>
     <use xlink:href="#DejaVuSans-37" transform="translate(393.625 0)"/>
     <use xlink:href="#DejaVuSans-28" transform="translate(454.703125 0)"/>
     <use xlink:href="#DejaVuSans-33" transform="translate(517.890625 0)"/>
    </g>
   </g>
   <g id="text_18">
    <!-- SDA → LCD -->
    <g transform="translate(834.834 379.515922) scale(0.05 -0.05)">
     <defs>
      <path id="DejaVuSans-c1c" d="M 5050 2147 
L 5050 1866 
L 3822 638 
L 3447 1013 
L 4175 1741 
L 366 1741 
L 366 2272 
L 4175 2272 
L 3447 3000 
L 3822 3375 
L 5050 2147 
z
" transform="scale(0.015625)"/>
     </defs>
     <use xlink:href="#DejaVuSans-36"/>
     <use xlink:href="#DejaVuSans-27" transform="translate(63.484375 0)"/>
     <use xlink:href="#DejaVuSans-24" transform="translate(138.734375 0)"/>
     <use xlink:href="#DejaVuSans-3" transform="translate(207.140625 0)"/>
     <use xlink:href="#DejaVuSans-c1c" transform="translate(238.921875 0)"/>
     <use xlink:href="#DejaVuSans-3" transform="translate(322.71875 0)"/>
     <use xlink:href="#DejaVuSans-2f" transform="translate(354.5 0)"/>
     <use xlink:href="#DejaVuSans-26" transform="translate(410.21875 0)"/>
     <use xlink:href="#DejaVuSans-27" transform="translate(480.046875 0)"/>
    </g>
   </g>
   <g id="text_19">
    <!-- SCL → LCD -->
    <g transform="translate(834.834 331.995922) scale(0.05 -0.05)">
     <use xlink:href="#DejaVuSans-36"/>
     <use xlink:href="#DejaVuSans-26" transform="translate(63.484375 0)"/>
     <use xlink:href="#DejaVuSans-2f" transform="translate(133.3125 0)"/>
     <use xlink:href="#DejaVuSans-3" transform="translate(189.03125 0)"/>
     <use xlink:href="#DejaVuSans-c1c" transform="translate(220.8125 0)"/>
     <use xlink:href="#DejaVuSans-3" transform="translate(304.609375 0)"/>
     <use xlink:href="#DejaVuSans-2f" transform="translate(336.390625 0)"/>
     <use xlink:href="#DejaVuSans-26" transform="translate(392.109375 0)"/>
     <use xlink:href="#DejaVuSans-27" transform="translate(461.9375 0)"/>
    </g>
   </g>
   <g id="text_20">
    <!-- 220R -->
    <g transform="translate(819.103219 266.593906) scale(0.06 -0.06)">
     <use xlink:href="#DejaVuSans-15"/>
     <use xlink:href="#DejaVuSans-15" transform="translate(63.625 0)"/>
     <use xlink:href="#DejaVuSans-13" transform="translate(127.25 0)"/>
     <use xlink:href="#DejaVuSans-35" transform="translate(190.875 0)"/>
    </g>
   </g>
   <g id="text_21">
    <!-- GND -->
    <g transform="translate(1183.314 394.671781) scale(0.14 -0.14)">
     <defs>
      <path id="DejaVuSans-2a" d="M 3809 666 
L 3809 1919 
L 2778 1919 
L 2778 2438 
L 4434 2438 
L 4434 434 
Q 4069 175 3628 42 
Q 3188 -91 2688 -91 
Q 1594 -91 976 548 
Q 359 1188 359 2328 
Q 359 3472 976 4111 
Q 1594 4750 2688 4750 
Q 3144 4750 3555 4637 
Q 3966 4525 4313 4306 
L 4313 3634 
Q 3963 3931 3569 4081 
Q 3175 4231 2741 4231 
Q 1884 4231 1454 3753 
Q 1025 3275 1025 2328 
Q 1025 1384 1454 906 
Q 1884 428 2741 428 
Q 3075 428 3337 486 
Q 3600 544 3809 666 
z
" transform="scale(0.015625)"/>
     </defs>
     <use xlink:href="#DejaVuSans-2a"/>
     <use xlink:href="#DejaVuSans-31" transform="translate(77.484375 0)"/>
     <use xlink:href="#DejaVuSans-27" transform="translate(152.296875 0)"/>
    </g>
   </g>
   <g id="text_22">
    <!-- VCC -->
    <g transform="translate(1230.834 394.671781) scale(0.14 -0.14)">
     <use xlink:href="#DejaVuSans-39"/>
     <use xlink:href="#DejaVuSans-26" transform="translate(68.40625 0)"/>
     <use xlink:href="#DejaVuSans-26" transform="translate(138.234375 0)"/>
    </g>
   </g>
   <g id="text_23">
    <!-- SDA -->
    <g transform="translate(1278.354 394.671781) scale(0.14 -0.14)">
     <use xlink:href="#DejaVuSans-36"/>
     <use xlink:href="#DejaVuSans-27" transform="translate(63.484375 0)"/>
     <use xlink:href="#DejaVuSans-24" transform="translate(138.734375 0)"/>
    </g>
   </g>
   <g id="text_24">
    <!-- SCL -->
    <g transform="translate(1325.874 394.671781) scale(0.14 -0.14)">
     <use xlink:href="#DejaVuSans-36"/>
     <use xlink:href="#DejaVuSans-26" transform="translate(63.484375 0)"/>
     <use xlink:href="#DejaVuSans-2f" transform="translate(133.3125 0)"/>
    </g>
   </g>
   <g id="text_25">
    <!-- LCD1602 I²C -->
    <g transform="translate(1373.394 458.715922) scale(0.05 -0.05)">
     <defs>
      <path id="DejaVuSans-74" d="M 838 2444 
L 2163 2444 
L 2163 2088 
L 294 2088 
L 294 2431 
Q 400 2528 597 2703 
Q 1672 3656 1672 3950 
Q 1672 4156 1509 4282 
Q 1347 4409 1081 4409 
Q 919 4409 728 4354 
Q 538 4300 313 4191 
L 313 4575 
Q 553 4663 761 4706 
Q 969 4750 1147 4750 
Q 1600 4750 1872 4544 
Q 2144 4338 2144 4000 
Q 2144 3566 1109 2678 
Q 934 2528 838 2444 
z
" transform="scale(0.015625)"/>
     </defs>
     <use xlink:href="#DejaVuSans-2f"/>
     <use xlink:href="#DejaVuSans-26" transform="translate(55.71875 0)"/>
     <use xlink:href="#DejaVuSans-27" transform="translate(125.546875 0)"/>
     <use xlink:href="#DejaVuSans-14" transform="translate(202.546875 0)"/>
     <use xlink:href="#DejaVuSans-19" transform="translate(266.171875 0)"/>
     <use xlink:href="#DejaVuSans-13" transform="translate(329.796875 0)"/>
     <use xlink:href="#DejaVuSans-15" transform="translate(393.421875 0)"/>
     <use xlink:href="#DejaVuSans-3" transform="translate(457.046875 0)"/>
     <use xlink:href="#DejaVuSans-2c" transform="translate(488.828125 0)"/>
     <use xlink:href="#DejaVuSans-74" transform="translate(518.328125 0)"/>
     <use xlink:href="#DejaVuSans-26" transform="translate(558.421875 0)"/>
    </g>
   </g>
   <g id="text_26">
    <!-- +5V -->
    <g transform="translate(1146.238297 297.783109) scale(0.05 -0.05)">
     <use xlink:href="#DejaVuSans-e"/>
     <use xlink:href="#DejaVuSans-18" transform="translate(83.796875 0)"/>
     <use xlink:href="#DejaVuSans-39" transform="translate(147.421875 0)"/>
    </g>
   </g>
   <g id="patch_9">
    <path d="M 153.714 383.636 
C 155.289306 383.636 156.800304 383.010124 157.914214 381.896214 
C 159.028124 380.782304 159.654 379.271306 159.654 377.696 
C 159.654 376.120694 159.028124 374.609696 157.914214 373.495786 
C 156.800304 372.381876 155.289306 371.756 153.714 371.756 
C 152.138694 371.756 150.627696 372.381876 149.513786 373.495786 
C 148.399876 374.609696 147.774 376.120694 147.774 377.696 
C 147.774 379.271306 148.399876 380.782304 149.513786 381.896214 
C 150.627696 383.010124 152.138694 383.636 153.714 383.636 
z
" clip-path="url(#p698ca333e0)" style="stroke: #000000; stroke-width: 2; stroke-linejoin: miter"/>
   </g>
   <g id="patch_10">
    <path d="M 153.714 336.116 
C 155.289306 336.116 156.800304 335.490124 157.914214 334.376214 
C 159.028124 333.262304 159.654 331.751306 159.654 330.176 
C 159.654 328.600694 159.028124 327.089696 157.914214 325.975786 
C 156.800304 324.861876 155.289306 324.236 153.714 324.236 
C 152.138694 324.236 150.627696 324.861876 149.513786 325.975786 
C 148.399876 327.089696 147.774 328.600694 147.774 330.176 
C 147.774 331.751306 148.399876 333.262304 149.513786 334.376214 
C 150.627696 335.490124 152.138694 336.116 153.714 336.116 
z
" clip-path="url(#p698ca333e0)" style="stroke: #000000; stroke-width: 2; stroke-linejoin: miter"/>
   </g>
  </g>
 </g>
 <defs>
  <clipPath id="p698ca333e0">
   <rect x="0" y="-0" width="1447.908" height="674.696"/>
  </clipPath>
 </defs>
</svg>
