<?xml version="1.0" encoding="utf-8" standalone="no"?>
<!DOCTYPE svg PUBLIC "-//W3C//DTD SVG 1.1//EN"
  "http://www.w3.org/Graphics/SVG/1.1/DTD/svg11.dtd">
<svg xmlns:xlink="http://www.w3.org/1999/xlink" width="953.1984pt" height="1021.592pt" viewBox="0 0 953.1984 1021.592" xmlns="http://www.w3.org/2000/svg" version="1.1">
 <metadata>
  <rdf:RDF xmlns:dc="http://purl.org/dc/elements/1.1/" xmlns:cc="http://creativecommons.org/ns#" xmlns:rdf="http://www.w3.org/1999/02/22-rdf-syntax-ns#">
   <cc:Work>
    <dc:type rdf:resource="http://purl.org/dc/dcmitype/StillImage"/>
    <dc:date>2026-07-20T19:34:18.531075</dc:date>
    <dc:format>image/svg+xml</dc:format>
    <dc:creator>
     <cc:Agent>
      <dc:title>Matplotlib v3.11.1, https://matplotlib.org/</dc:title>
     </cc:Agent>
    </dc:creator>
   </cc:Work>
  </rdf:RDF>
 </metadata>
 <defs>
  <style type="text/css">*{stroke-linejoin: round; stroke-linecap: butt}</style>
 </defs>
 <g id="figure_1">
  <g id="patch_1">
   <path d="M 0 1021.592 
L 953.1984 1021.592 
L 953.1984 0 
L 0 0 
z
" style="fill: #ffffff"/>
  </g>
  <g id="axes_1">
   <g id="patch_2">
    <path d="M 796.3824 61.776 
C 799.533013 61.776 802.555009 60.524248 804.782829 58.296429 
C 807.010648 56.068609 808.2624 53.046613 808.2624 49.896 
C 808.2624 46.745387 807.010648 43.723391 804.782829 41.495571 
C 802.555009 39.267752 799.533013 38.016 796.3824 38.016 
C 793.231787 38.016 790.209791 39.267752 787.981971 41.495571 
C 785.754152 43.723391 784.5024 46.745387 784.5024 49.896 
C 784.5024 53.046613 785.754152 56.068609 787.981971 58.296429 
C 790.209791 60.524248 793.231787 61.776 796.3824 61.776 
L 796.3824 61.776 
z
" clip-path="url(#p4cd4cc0dca)" style="fill: none; stroke: #000000; stroke-width: 2; stroke-linejoin: miter"/>
   </g>
   <g id="patch_3">
    <path d="M 89.496 216.216 
L 89.496 596.376 
L 137.016 596.376 
L 137.016 216.216 
L 89.496 216.216 
z
" clip-path="url(#p4cd4cc0dca)" style="fill: none; stroke: #000000; stroke-width: 2; stroke-linecap: round"/>
   </g>
   <g id="patch_4">
    <path d="M 10.296 437.976 
L 10.296 818.136 
L 57.816 818.136 
L 57.816 437.976 
L 10.296 437.976 
z
" clip-path="url(#p4cd4cc0dca)" style="fill: none; stroke: #000000; stroke-width: 2; stroke-linecap: round"/>
   </g>
   <g id="line2d_1">
    <path d="M 548.856 992.376 
L 784.5024 992.376 
L 784.5024 10.296 
L 548.856 10.296 
L 548.856 992.376 
" clip-path="url(#p4cd4cc0dca)" style="fill: none; stroke: #000000; stroke-width: 2; stroke-linecap: round"/>
   </g>
   <g id="line2d_2">
    <path d="M 548.856 952.776 
L 509.256 952.776 
" clip-path="url(#p4cd4cc0dca)" style="fill: none; stroke: #000000; stroke-width: 2; stroke-linecap: round"/>
   </g>
   <g id="line2d_3">
    <path d="M 548.856 905.256 
L 509.256 905.256 
" clip-path="url(#p4cd4cc0dca)" style="fill: none; stroke: #000000; stroke-width: 2; stroke-linecap: round"/>
   </g>
   <g id="line2d_4">
    <path d="M 548.856 857.736 
L 509.256 857.736 
" clip-path="url(#p4cd4cc0dca)" style="fill: none; stroke: #000000; stroke-width: 2; stroke-linecap: round"/>
   </g>
   <g id="line2d_5">
    <path d="M 548.856 810.216 
L 509.256 810.216 
" clip-path="url(#p4cd4cc0dca)" style="fill: none; stroke: #000000; stroke-width: 2; stroke-linecap: round"/>
   </g>
   <g id="line2d_6">
    <path d="M 548.856 762.696 
L 509.256 762.696 
" clip-path="url(#p4cd4cc0dca)" style="fill: none; stroke: #000000; stroke-width: 2; stroke-linecap: round"/>
   </g>
   <g id="line2d_7">
    <path d="M 548.856 715.176 
L 509.256 715.176 
" clip-path="url(#p4cd4cc0dca)" style="fill: none; stroke: #000000; stroke-width: 2; stroke-linecap: round"/>
   </g>
   <g id="line2d_8">
    <path d="M 548.856 667.656 
L 509.256 667.656 
" clip-path="url(#p4cd4cc0dca)" style="fill: none; stroke: #000000; stroke-width: 2; stroke-linecap: round"/>
   </g>
   <g id="line2d_9">
    <path d="M 548.856 620.136 
L 509.256 620.136 
" clip-path="url(#p4cd4cc0dca)" style="fill: none; stroke: #000000; stroke-width: 2; stroke-linecap: round"/>
   </g>
   <g id="line2d_10">
    <path d="M 548.856 572.616 
L 509.256 572.616 
" clip-path="url(#p4cd4cc0dca)" style="fill: none; stroke: #000000; stroke-width: 2; stroke-linecap: round"/>
   </g>
   <g id="line2d_11">
    <path d="M 548.856 525.096 
L 509.256 525.096 
" clip-path="url(#p4cd4cc0dca)" style="fill: none; stroke: #000000; stroke-width: 2; stroke-linecap: round"/>
   </g>
   <g id="line2d_12">
    <path d="M 548.856 477.576 
L 509.256 477.576 
" clip-path="url(#p4cd4cc0dca)" style="fill: none; stroke: #000000; stroke-width: 2; stroke-linecap: round"/>
   </g>
   <g id="line2d_13">
    <path d="M 548.856 430.056 
L 509.256 430.056 
" clip-path="url(#p4cd4cc0dca)" style="fill: none; stroke: #000000; stroke-width: 2; stroke-linecap: round"/>
   </g>
   <g id="line2d_14">
    <path d="M 548.856 382.536 
L 509.256 382.536 
" clip-path="url(#p4cd4cc0dca)" style="fill: none; stroke: #000000; stroke-width: 2; stroke-linecap: round"/>
   </g>
   <g id="line2d_15">
    <path d="M 548.856 335.016 
L 509.256 335.016 
" clip-path="url(#p4cd4cc0dca)" style="fill: none; stroke: #000000; stroke-width: 2; stroke-linecap: round"/>
   </g>
   <g id="line2d_16">
    <path d="M 548.856 287.496 
L 509.256 287.496 
" clip-path="url(#p4cd4cc0dca)" style="fill: none; stroke: #000000; stroke-width: 2; stroke-linecap: round"/>
   </g>
   <g id="line2d_17">
    <path d="M 548.856 239.976 
L 509.256 239.976 
" clip-path="url(#p4cd4cc0dca)" style="fill: none; stroke: #000000; stroke-width: 2; stroke-linecap: round"/>
   </g>
   <g id="line2d_18">
    <path d="M 548.856 192.456 
L 509.256 192.456 
" clip-path="url(#p4cd4cc0dca)" style="fill: none; stroke: #000000; stroke-width: 2; stroke-linecap: round"/>
   </g>
   <g id="line2d_19">
    <path d="M 548.856 144.936 
L 509.256 144.936 
" clip-path="url(#p4cd4cc0dca)" style="fill: none; stroke: #000000; stroke-width: 2; stroke-linecap: round"/>
   </g>
   <g id="line2d_20">
    <path d="M 548.856 97.416 
L 509.256 97.416 
" clip-path="url(#p4cd4cc0dca)" style="fill: none; stroke: #000000; stroke-width: 2; stroke-linecap: round"/>
   </g>
   <g id="line2d_21">
    <path d="M 548.856 49.896 
L 509.256 49.896 
" clip-path="url(#p4cd4cc0dca)" style="fill: none; stroke: #000000; stroke-width: 2; stroke-linecap: round"/>
   </g>
   <g id="line2d_22">
    <path d="M 784.5024 952.776 
L 824.1024 952.776 
" clip-path="url(#p4cd4cc0dca)" style="fill: none; stroke: #000000; stroke-width: 2; stroke-linecap: round"/>
   </g>
   <g id="line2d_23">
    <path d="M 784.5024 905.256 
L 824.1024 905.256 
" clip-path="url(#p4cd4cc0dca)" style="fill: none; stroke: #000000; stroke-width: 2; stroke-linecap: round"/>
   </g>
   <g id="line2d_24">
    <path d="M 784.5024 857.736 
L 824.1024 857.736 
" clip-path="url(#p4cd4cc0dca)" style="fill: none; stroke: #000000; stroke-width: 2; stroke-linecap: round"/>
   </g>
   <g id="line2d_25">
    <path d="M 784.5024 810.216 
L 824.1024 810.216 
" clip-path="url(#p4cd4cc0dca)" style="fill: none; stroke: #000000; stroke-width: 2; stroke-linecap: round"/>
   </g>
   <g id="line2d_26">
    <path d="M 784.5024 762.696 
L 824.1024 762.696 
" clip-path="url(#p4cd4cc0dca)" style="fill: none; stroke: #000000; stroke-width: 2; stroke-linecap: round"/>
   </g>
   <g id="line2d_27">
    <path d="M 784.5024 715.176 
L 824.1024 715.176 
" clip-path="url(#p4cd4cc0dca)" style="fill: none; stroke: #000000; stroke-width: 2; stroke-linecap: round"/>
   </g>
   <g id="line2d_28">
    <path d="M 784.5024 667.656 
L 824.1024 667.656 
" clip-path="url(#p4cd4cc0dca)" style="fill: none; stroke: #000000; stroke-width: 2; stroke-linecap: round"/>
   </g>
   <g id="line2d_29">
    <path d="M 784.5024 620.136 
L 824.1024 620.136 
" clip-path="url(#p4cd4cc0dca)" style="fill: none; stroke: #000000; stroke-width: 2; stroke-linecap: round"/>
   </g>
   <g id="line2d_30">
    <path d="M 784.5024 572.616 
L 824.1024 572.616 
" clip-path="url(#p4cd4cc0dca)" style="fill: none; stroke: #000000; stroke-width: 2; stroke-linecap: round"/>
   </g>
   <g id="line2d_31">
    <path d="M 784.5024 525.096 
L 824.1024 525.096 
" clip-path="url(#p4cd4cc0dca)" style="fill: none; stroke: #000000; stroke-width: 2; stroke-linecap: round"/>
   </g>
   <g id="line2d_32">
    <path d="M 784.5024 477.576 
L 824.1024 477.576 
" clip-path="url(#p4cd4cc0dca)" style="fill: none; stroke: #000000; stroke-width: 2; stroke-linecap: round"/>
   </g>
   <g id="line2d_33">
    <path d="M 784.5024 430.056 
L 824.1024 430.056 
" clip-path="url(#p4cd4cc0dca)" style="fill: none; stroke: #000000; stroke-width: 2; stroke-linecap: round"/>
   </g>
   <g id="line2d_34">
    <path d="M 784.5024 382.536 
L 824.1024 382.536 
" clip-path="url(#p4cd4cc0dca)" style="fill: none; stroke: #000000; stroke-width: 2; stroke-linecap: round"/>
   </g>
   <g id="line2d_35">
    <path d="M 784.5024 335.016 
L 824.1024 335.016 
" clip-path="url(#p4cd4cc0dca)" style="fill: none; stroke: #000000; stroke-width: 2; stroke-linecap: round"/>
   </g>
   <g id="line2d_36">
    <path d="M 784.5024 287.496 
L 824.1024 287.496 
" clip-path="url(#p4cd4cc0dca)" style="fill: none; stroke: #000000; stroke-width: 2; stroke-linecap: round"/>
   </g>
   <g id="line2d_37">
    <path d="M 784.5024 239.976 
L 824.1024 239.976 
" clip-path="url(#p4cd4cc0dca)" style="fill: none; stroke: #000000; stroke-width: 2; stroke-linecap: round"/>
   </g>
   <g id="line2d_38">
    <path d="M 784.5024 192.456 
L 824.1024 192.456 
" clip-path="url(#p4cd4cc0dca)" style="fill: none; stroke: #000000; stroke-width: 2; stroke-linecap: round"/>
   </g>
   <g id="line2d_39">
    <path d="M 784.5024 144.936 
L 824.1024 144.936 
" clip-path="url(#p4cd4cc0dca)" style="fill: none; stroke: #000000; stroke-width: 2; stroke-linecap: round"/>
   </g>
   <g id="line2d_40">
    <path d="M 784.5024 97.416 
L 824.1024 97.416 
" clip-path="url(#p4cd4cc0dca)" style="fill: none; stroke: #000000; stroke-width: 2; stroke-linecap: round"/>
   </g>
   <g id="line2d_41">
    <path d="M 808.2624 49.896 
L 824.1024 49.896 
" clip-path="url(#p4cd4cc0dca)" style="fill: none; stroke: #000000; stroke-width: 2; stroke-linecap: round"/>
   </g>
   <g id="line2d_42">
    <path d="M 509.256 572.616 
L 113.256 572.616 
" clip-path="url(#p4cd4cc0dca)" style="fill: none; stroke: #000000; stroke-width: 2; stroke-linecap: round"/>
   </g>
   <g id="line2d_43">
    <path d="M 509.256 525.096 
L 113.256 525.096 
" clip-path="url(#p4cd4cc0dca)" style="fill: none; stroke: #000000; stroke-width: 2; stroke-linecap: round"/>
   </g>
   <g id="line2d_44">
    <path d="M 509.256 477.576 
L 113.256 477.576 
" clip-path="url(#p4cd4cc0dca)" style="fill: none; stroke: #000000; stroke-width: 2; stroke-linecap: round"/>
   </g>
   <g id="line2d_45">
    <path d="M 509.256 430.056 
L 113.256 430.056 
" clip-path="url(#p4cd4cc0dca)" style="fill: none; stroke: #000000; stroke-width: 2; stroke-linecap: round"/>
   </g>
   <g id="line2d_46">
    <path d="M 509.256 382.536 
L 113.256 382.536 
" clip-path="url(#p4cd4cc0dca)" style="fill: none; stroke: #000000; stroke-width: 2; stroke-linecap: round"/>
   </g>
   <g id="line2d_47">
    <path d="M 509.256 335.016 
L 113.256 335.016 
" clip-path="url(#p4cd4cc0dca)" style="fill: none; stroke: #000000; stroke-width: 2; stroke-linecap: round"/>
   </g>
   <g id="line2d_48">
    <path d="M 509.256 287.496 
L 113.256 287.496 
" clip-path="url(#p4cd4cc0dca)" style="fill: none; stroke: #000000; stroke-width: 2; stroke-linecap: round"/>
   </g>
   <g id="line2d_49">
    <path d="M 509.256 239.976 
L 113.256 239.976 
" clip-path="url(#p4cd4cc0dca)" style="fill: none; stroke: #000000; stroke-width: 2; stroke-linecap: round"/>
   </g>
   <g id="line2d_50">
    <path d="M 509.256 192.456 
L 224.136 192.456 
L 224.136 794.376 
L 34.056 794.376 
" clip-path="url(#p4cd4cc0dca)" style="fill: none; stroke: #000000; stroke-width: 2; stroke-linecap: round"/>
   </g>
   <g id="line2d_51">
    <path d="M 509.256 144.936 
L 224.136 144.936 
L 224.136 746.856 
L 34.056 746.856 
" clip-path="url(#p4cd4cc0dca)" style="fill: none; stroke: #000000; stroke-width: 2; stroke-linecap: round"/>
   </g>
   <g id="line2d_52">
    <path d="M 509.256 97.416 
L 224.136 97.416 
L 224.136 699.336 
L 34.056 699.336 
" clip-path="url(#p4cd4cc0dca)" style="fill: none; stroke: #000000; stroke-width: 2; stroke-linecap: round"/>
   </g>
   <g id="line2d_53">
    <path d="M 509.256 49.896 
L 224.136 49.896 
L 224.136 651.816 
L 34.056 651.816 
" clip-path="url(#p4cd4cc0dca)" style="fill: none; stroke: #000000; stroke-width: 2; stroke-linecap: round"/>
   </g>
   <g id="line2d_54">
    <path d="M 824.1024 905.256 
L 883.5024 905.256 
L 942.9024 905.256 
" clip-path="url(#p4cd4cc0dca)" style="fill: none; stroke: #000000; stroke-width: 2; stroke-linecap: round"/>
   </g>
   <g id="line2d_55">
    <path d="M 942.9024 905.256 
L 942.9024 869.616 
L 942.9024 833.976 
" clip-path="url(#p4cd4cc0dca)" style="fill: none; stroke: #000000; stroke-width: 2; stroke-linecap: round"/>
   </g>
   <g id="line2d_56">
    <path d="M 942.9024 833.976 
L 488.4792 833.976 
L 34.056 833.976 
" clip-path="url(#p4cd4cc0dca)" style="fill: none; stroke: #000000; stroke-width: 2; stroke-linecap: round"/>
   </g>
   <g id="line2d_57">
    <path d="M 824.1024 857.736 
L 883.5024 857.736 
L 942.9024 857.736 
" clip-path="url(#p4cd4cc0dca)" style="fill: none; stroke: #000000; stroke-width: 2; stroke-linecap: round"/>
   </g>
   <g id="line2d_58">
    <path d="M 942.9024 857.736 
L 942.9024 845.856 
L 942.9024 833.976 
" clip-path="url(#p4cd4cc0dca)" style="fill: none; stroke: #000000; stroke-width: 2; stroke-linecap: round"/>
   </g>
   <g id="line2d_59">
    <path d="M 942.9024 833.976 
L 488.4792 833.976 
L 34.056 833.976 
" clip-path="url(#p4cd4cc0dca)" style="fill: none; stroke: #000000; stroke-width: 2; stroke-linecap: round"/>
   </g>
   <g id="line2d_60">
    <path d="M 824.1024 810.216 
L 883.5024 810.216 
L 942.9024 810.216 
" clip-path="url(#p4cd4cc0dca)" style="fill: none; stroke: #000000; stroke-width: 2; stroke-linecap: round"/>
   </g>
   <g id="line2d_61">
    <path d="M 942.9024 810.216 
" clip-path="url(#p4cd4cc0dca)" style="fill: none; stroke: #000000; stroke-width: 2; stroke-linecap: round"/>
   </g>
   <g id="line2d_62">
    <path d="M 942.9024 810.216 
L 488.4792 810.216 
L 34.056 810.216 
" clip-path="url(#p4cd4cc0dca)" style="fill: none; stroke: #000000; stroke-width: 2; stroke-linecap: round"/>
   </g>
   <g id="line2d_63">
    <path d="M 824.1024 762.696 
L 883.5024 762.696 
L 942.9024 762.696 
" clip-path="url(#p4cd4cc0dca)" style="fill: none; stroke: #000000; stroke-width: 2; stroke-linecap: round"/>
   </g>
   <g id="line2d_64">
    <path d="M 942.9024 762.696 
" clip-path="url(#p4cd4cc0dca)" style="fill: none; stroke: #000000; stroke-width: 2; stroke-linecap: round"/>
   </g>
   <g id="line2d_65">
    <path d="M 942.9024 762.696 
L 488.4792 762.696 
L 34.056 762.696 
" clip-path="url(#p4cd4cc0dca)" style="fill: none; stroke: #000000; stroke-width: 2; stroke-linecap: round"/>
   </g>
   <g id="text_1">
    <!-- 1 -->
    <g transform="translate(537.89725 947.325844) scale(0.11 -0.11)">
     <defs>
      <path id="DejaVuSans-14" d="M 794 531 
L 1825 531 
L 1825 4091 
L 703 3866 
L 703 4441 
L 1819 4666 
L 2450 4666 
L 2450 531 
L 3481 531 
L 3481 0 
L 794 0 
L 794 531 
z
" transform="scale(0.015625)"/>
     </defs>
     <use xlink:href="#DejaVuSans-14"/>
    </g>
   </g>
   <g id="text_2">
    <!-- VPB -->
    <g transform="translate(560.736 957.879437) scale(0.14 -0.14)">
     <defs>
      <path id="DejaVuSans-39" d="M 1831 0 
L 50 4666 
L 709 4666 
L 2188 738 
L 3669 4666 
L 4325 4666 
L 2547 0 
L 1831 0 
z
" transform="scale(0.015625)"/>
      <path id="DejaVuSans-33" d="M 1259 4147 
L 1259 2394 
L 2053 2394 
Q 2494 2394 2734 2622 
Q 2975 2850 2975 3272 
Q 2975 3691 2734 3919 
Q 2494 4147 2053 4147 
L 1259 4147 
z
M 628 4666 
L 2053 4666 
Q 2838 4666 3239 4311 
Q 3641 3956 3641 3272 
Q 3641 2581 3239 2228 
Q 2838 1875 2053 1875 
L 1259 1875 
L 1259 0 
L 628 0 
L 628 4666 
z
" transform="scale(0.015625)"/>
      <path id="DejaVuSans-25" d="M 1259 2228 
L 1259 519 
L 2272 519 
Q 2781 519 3026 730 
Q 3272 941 3272 1375 
Q 3272 1813 3026 2020 
Q 2781 2228 2272 2228 
L 1259 2228 
z
M 1259 4147 
L 1259 2741 
L 2194 2741 
Q 2656 2741 2882 2914 
Q 3109 3088 3109 3444 
Q 3109 3797 2882 3972 
Q 2656 4147 2194 4147 
L 1259 4147 
z
M 628 4666 
L 2241 4666 
Q 2963 4666 3353 4366 
Q 3744 4066 3744 3513 
Q 3744 3084 3544 2831 
Q 3344 2578 2956 2516 
Q 3422 2416 3680 2098 
Q 3938 1781 3938 1306 
Q 3938 681 3513 340 
Q 3088 0 2303 0 
L 628 0 
L 628 4666 
z
" transform="scale(0.015625)"/>
     </defs>
     <use xlink:href="#DejaVuSans-39"/>
     <use xlink:href="#DejaVuSans-33" transform="translate(68.40625 0)"/>
     <use xlink:href="#DejaVuSans-25" transform="translate(128.703125 0)"/>
    </g>
   </g>
   <g id="text_3">
    <!-- 2 -->
    <g transform="translate(537.89725 899.878031) scale(0.11 -0.11)">
     <defs>
      <path id="DejaVuSans-15" d="M 1228 531 
L 3431 531 
L 3431 0 
L 469 0 
L 469 531 
Q 828 903 1448 1529 
Q 2069 2156 2228 2338 
Q 2531 2678 2651 2914 
Q 2772 3150 2772 3378 
Q 2772 3750 2511 3984 
Q 2250 4219 1831 4219 
Q 1534 4219 1204 4116 
Q 875 4013 500 3803 
L 500 4441 
Q 881 4594 1212 4672 
Q 1544 4750 1819 4750 
Q 2544 4750 2975 4387 
Q 3406 4025 3406 3419 
Q 3406 3131 3298 2873 
Q 3191 2616 2906 2266 
Q 2828 2175 2409 1742 
Q 1991 1309 1228 531 
z
" transform="scale(0.015625)"/>
     </defs>
     <use xlink:href="#DejaVuSans-15"/>
    </g>
   </g>
   <g id="text_4">
    <!-- RDY -->
    <g transform="translate(560.736 910.359438) scale(0.14 -0.14)">
     <defs>
      <path id="DejaVuSans-35" d="M 2841 2188 
Q 3044 2119 3236 1894 
Q 3428 1669 3622 1275 
L 4263 0 
L 3584 0 
L 2988 1197 
Q 2756 1666 2539 1819 
Q 2322 1972 1947 1972 
L 1259 1972 
L 1259 0 
L 628 0 
L 628 4666 
L 2053 4666 
Q 2853 4666 3247 4331 
Q 3641 3997 3641 3322 
Q 3641 2881 3436 2590 
Q 3231 2300 2841 2188 
z
M 1259 4147 
L 1259 2491 
L 2053 2491 
Q 2509 2491 2742 2702 
Q 2975 2913 2975 3322 
Q 2975 3731 2742 3939 
Q 2509 4147 2053 4147 
L 1259 4147 
z
" transform="scale(0.015625)"/>
      <path id="DejaVuSans-27" d="M 1259 4147 
L 1259 519 
L 2022 519 
Q 2988 519 3436 956 
Q 3884 1394 3884 2338 
Q 3884 3275 3436 3711 
Q 2988 4147 2022 4147 
L 1259 4147 
z
M 628 4666 
L 1925 4666 
Q 3281 4666 3915 4102 
Q 4550 3538 4550 2338 
Q 4550 1131 3912 565 
Q 3275 0 1925 0 
L 628 0 
L 628 4666 
z
" transform="scale(0.015625)"/>
      <path id="DejaVuSans-3c" d="M -13 4666 
L 666 4666 
L 1959 2747 
L 3244 4666 
L 3922 4666 
L 2272 2222 
L 2272 0 
L 1638 0 
L 1638 2222 
L -13 4666 
z
" transform="scale(0.015625)"/>
     </defs>
     <use xlink:href="#DejaVuSans-35"/>
     <use xlink:href="#DejaVuSans-27" transform="translate(69.484375 0)"/>
     <use xlink:href="#DejaVuSans-3c" transform="translate(141.015625 0)"/>
    </g>
   </g>
   <g id="text_5">
    <!-- 3 -->
    <g transform="translate(537.89725 852.279828) scale(0.11 -0.11)">
     <defs>
      <path id="DejaVuSans-16" d="M 2597 2516 
Q 3050 2419 3304 2112 
Q 3559 1806 3559 1356 
Q 3559 666 3084 287 
Q 2609 -91 1734 -91 
Q 1441 -91 1130 -33 
Q 819 25 488 141 
L 488 750 
Q 750 597 1062 519 
Q 1375 441 1716 441 
Q 2309 441 2620 675 
Q 2931 909 2931 1356 
Q 2931 1769 2642 2001 
Q 2353 2234 1838 2234 
L 1294 2234 
L 1294 2753 
L 1863 2753 
Q 2328 2753 2575 2939 
Q 2822 3125 2822 3475 
Q 2822 3834 2567 4026 
Q 2313 4219 1838 4219 
Q 1578 4219 1281 4162 
Q 984 4106 628 3988 
L 628 4550 
Q 988 4650 1302 4700 
Q 1616 4750 1894 4750 
Q 2613 4750 3031 4423 
Q 3450 4097 3450 3541 
Q 3450 3153 3228 2886 
Q 3006 2619 2597 2516 
z
" transform="scale(0.015625)"/>
     </defs>
     <use xlink:href="#DejaVuSans-16"/>
    </g>
   </g>
   <g id="text_6">
    <!-- PHI1O -->
    <g transform="translate(560.736 862.831781) scale(0.14 -0.14)">
     <defs>
      <path id="DejaVuSans-2b" d="M 628 4666 
L 1259 4666 
L 1259 2753 
L 3553 2753 
L 3553 4666 
L 4184 4666 
L 4184 0 
L 3553 0 
L 3553 2222 
L 1259 2222 
L 1259 0 
L 628 0 
L 628 4666 
z
" transform="scale(0.015625)"/>
      <path id="DejaVuSans-2c" d="M 628 4666 
L 1259 4666 
L 1259 0 
L 628 0 
L 628 4666 
z
" transform="scale(0.015625)"/>
      <path id="DejaVuSans-32" d="M 2522 4238 
Q 1834 4238 1429 3725 
Q 1025 3213 1025 2328 
Q 1025 1447 1429 934 
Q 1834 422 2522 422 
Q 3209 422 3611 934 
Q 4013 1447 4013 2328 
Q 4013 3213 3611 3725 
Q 3209 4238 2522 4238 
z
M 2522 4750 
Q 3503 4750 4090 4092 
Q 4678 3434 4678 2328 
Q 4678 1225 4090 567 
Q 3503 -91 2522 -91 
Q 1538 -91 948 565 
Q 359 1222 359 2328 
Q 359 3434 948 4092 
Q 1538 4750 2522 4750 
z
" transform="scale(0.015625)"/>
     </defs>
     <use xlink:href="#DejaVuSans-33"/>
     <use xlink:href="#DejaVuSans-2b" transform="translate(60.296875 0)"/>
     <use xlink:href="#DejaVuSans-2c" transform="translate(135.5 0)"/>
     <use xlink:href="#DejaVuSans-14" transform="translate(165 0)"/>
     <use xlink:href="#DejaVuSans-32" transform="translate(228.625 0)"/>
    </g>
   </g>
   <g id="text_7">
    <!-- 4 -->
    <g transform="translate(537.89725 804.765844) scale(0.11 -0.11)">
     <defs>
      <path id="DejaVuSans-17" d="M 2419 4116 
L 825 1625 
L 2419 1625 
L 2419 4116 
z
M 2253 4666 
L 3047 4666 
L 3047 1625 
L 3713 1625 
L 3713 1100 
L 3047 1100 
L 3047 0 
L 2419 0 
L 2419 1100 
L 313 1100 
L 313 1709 
L 2253 4666 
z
" transform="scale(0.015625)"/>
     </defs>
     <use xlink:href="#DejaVuSans-17"/>
    </g>
   </g>
   <g id="text_8">
    <!-- IRQB -->
    <g transform="translate(560.736 814.508969) scale(0.14 -0.14)">
     <defs>
      <path id="DejaVuSans-34" d="M 2522 4238 
Q 1834 4238 1429 3725 
Q 1025 3213 1025 2328 
Q 1025 1447 1429 934 
Q 1834 422 2522 422 
Q 3209 422 3611 934 
Q 4013 1447 4013 2328 
Q 4013 3213 3611 3725 
Q 3209 4238 2522 4238 
z
M 3406 84 
L 4238 -825 
L 3475 -825 
L 2784 -78 
Q 2681 -84 2626 -87 
Q 2572 -91 2522 -91 
Q 1538 -91 948 567 
Q 359 1225 359 2328 
Q 359 3434 948 4092 
Q 1538 4750 2522 4750 
Q 3503 4750 4090 4092 
Q 4678 3434 4678 2328 
Q 4678 1516 4351 937 
Q 4025 359 3406 84 
z
" transform="scale(0.015625)"/>
     </defs>
     <use xlink:href="#DejaVuSans-2c"/>
     <use xlink:href="#DejaVuSans-35" transform="translate(29.5 0)"/>
     <use xlink:href="#DejaVuSans-34" transform="translate(98.984375 0)"/>
     <use xlink:href="#DejaVuSans-25" transform="translate(177.703125 0)"/>
    </g>
   </g>
   <g id="text_9">
    <!-- 5 -->
    <g transform="translate(537.89725 757.167641) scale(0.11 -0.11)">
     <defs>
      <path id="DejaVuSans-18" d="M 691 4666 
L 3169 4666 
L 3169 4134 
L 1269 4134 
L 1269 2991 
Q 1406 3038 1543 3061 
Q 1681 3084 1819 3084 
Q 2600 3084 3056 2656 
Q 3513 2228 3513 1497 
Q 3513 744 3044 326 
Q 2575 -91 1722 -91 
Q 1428 -91 1123 -41 
Q 819 9 494 109 
L 494 744 
Q 775 591 1075 516 
Q 1375 441 1709 441 
Q 2250 441 2565 725 
Q 2881 1009 2881 1497 
Q 2881 1984 2565 2268 
Q 2250 2553 1709 2553 
Q 1456 2553 1204 2497 
Q 953 2441 691 2322 
L 691 4666 
z
" transform="scale(0.015625)"/>
     </defs>
     <use xlink:href="#DejaVuSans-18"/>
    </g>
   </g>
   <g id="text_10">
    <!-- MLB -->
    <g transform="translate(560.736 767.799437) scale(0.14 -0.14)">
     <defs>
      <path id="DejaVuSans-30" d="M 628 4666 
L 1569 4666 
L 2759 1491 
L 3956 4666 
L 4897 4666 
L 4897 0 
L 4281 0 
L 4281 4097 
L 3078 897 
L 2444 897 
L 1241 4097 
L 1241 0 
L 628 0 
L 628 4666 
z
" transform="scale(0.015625)"/>
      <path id="DejaVuSans-2f" d="M 628 4666 
L 1259 4666 
L 1259 531 
L 3531 531 
L 3531 0 
L 628 0 
L 628 4666 
z
" transform="scale(0.015625)"/>
     </defs>
     <use xlink:href="#DejaVuSans-30"/>
     <use xlink:href="#DejaVuSans-2f" transform="translate(86.28125 0)"/>
     <use xlink:href="#DejaVuSans-25" transform="translate(142 0)"/>
    </g>
   </g>
   <g id="text_11">
    <!-- 6 -->
    <g transform="translate(537.89725 709.719828) scale(0.11 -0.11)">
     <defs>
      <path id="DejaVuSans-19" d="M 2113 2584 
Q 1688 2584 1439 2293 
Q 1191 2003 1191 1497 
Q 1191 994 1439 701 
Q 1688 409 2113 409 
Q 2538 409 2786 701 
Q 3034 994 3034 1497 
Q 3034 2003 2786 2293 
Q 2538 2584 2113 2584 
z
M 3366 4563 
L 3366 3988 
Q 3128 4100 2886 4159 
Q 2644 4219 2406 4219 
Q 1781 4219 1451 3797 
Q 1122 3375 1075 2522 
Q 1259 2794 1537 2939 
Q 1816 3084 2150 3084 
Q 2853 3084 3261 2657 
Q 3669 2231 3669 1497 
Q 3669 778 3244 343 
Q 2819 -91 2113 -91 
Q 1303 -91 875 529 
Q 447 1150 447 2328 
Q 447 3434 972 4092 
Q 1497 4750 2381 4750 
Q 2619 4750 2861 4703 
Q 3103 4656 3366 4563 
z
" transform="scale(0.015625)"/>
     </defs>
     <use xlink:href="#DejaVuSans-19"/>
    </g>
   </g>
   <g id="text_12">
    <!-- NMIB -->
    <g transform="translate(560.736 720.279437) scale(0.14 -0.14)">
     <defs>
      <path id="DejaVuSans-31" d="M 628 4666 
L 1478 4666 
L 3547 763 
L 3547 4666 
L 4159 4666 
L 4159 0 
L 3309 0 
L 1241 3903 
L 1241 0 
L 628 0 
L 628 4666 
z
" transform="scale(0.015625)"/>
     </defs>
     <use xlink:href="#DejaVuSans-31"/>
     <use xlink:href="#DejaVuSans-30" transform="translate(74.8125 0)"/>
     <use xlink:href="#DejaVuSans-2c" transform="translate(161.09375 0)"/>
     <use xlink:href="#DejaVuSans-25" transform="translate(190.59375 0)"/>
    </g>
   </g>
   <g id="text_13">
    <!-- 7 -->
    <g transform="translate(537.89725 662.205844) scale(0.11 -0.11)">
     <defs>
      <path id="DejaVuSans-1a" d="M 525 4666 
L 3525 4666 
L 3525 4397 
L 1831 0 
L 1172 0 
L 2766 4134 
L 525 4134 
L 525 4666 
z
" transform="scale(0.015625)"/>
     </defs>
     <use xlink:href="#DejaVuSans-1a"/>
    </g>
   </g>
   <g id="text_14">
    <!-- SYNC -->
    <g transform="translate(560.736 672.751781) scale(0.14 -0.14)">
     <defs>
      <path id="DejaVuSans-36" d="M 3425 4513 
L 3425 3897 
Q 3066 4069 2747 4153 
Q 2428 4238 2131 4238 
Q 1616 4238 1336 4038 
Q 1056 3838 1056 3469 
Q 1056 3159 1242 3001 
Q 1428 2844 1947 2747 
L 2328 2669 
Q 3034 2534 3370 2195 
Q 3706 1856 3706 1288 
Q 3706 609 3251 259 
Q 2797 -91 1919 -91 
Q 1588 -91 1214 -16 
Q 841 59 441 206 
L 441 856 
Q 825 641 1194 531 
Q 1563 422 1919 422 
Q 2459 422 2753 634 
Q 3047 847 3047 1241 
Q 3047 1584 2836 1778 
Q 2625 1972 2144 2069 
L 1759 2144 
Q 1053 2284 737 2584 
Q 422 2884 422 3419 
Q 422 4038 858 4394 
Q 1294 4750 2059 4750 
Q 2388 4750 2728 4690 
Q 3069 4631 3425 4513 
z
" transform="scale(0.015625)"/>
      <path id="DejaVuSans-26" d="M 4122 4306 
L 4122 3641 
Q 3803 3938 3442 4084 
Q 3081 4231 2675 4231 
Q 1875 4231 1450 3742 
Q 1025 3253 1025 2328 
Q 1025 1406 1450 917 
Q 1875 428 2675 428 
Q 3081 428 3442 575 
Q 3803 722 4122 1019 
L 4122 359 
Q 3791 134 3420 21 
Q 3050 -91 2638 -91 
Q 1578 -91 968 557 
Q 359 1206 359 2328 
Q 359 3453 968 4101 
Q 1578 4750 2638 4750 
Q 3056 4750 3426 4639 
Q 3797 4528 4122 4306 
z
" transform="scale(0.015625)"/>
     </defs>
     <use xlink:href="#DejaVuSans-36"/>
     <use xlink:href="#DejaVuSans-3c" transform="translate(63.484375 0)"/>
     <use xlink:href="#DejaVuSans-31" transform="translate(124.5625 0)"/>
     <use xlink:href="#DejaVuSans-26" transform="translate(199.375 0)"/>
    </g>
   </g>
   <g id="text_15">
    <!-- 8 -->
    <g transform="translate(537.89725 614.679828) scale(0.11 -0.11)">
     <defs>
      <path id="DejaVuSans-1b" d="M 2034 2216 
Q 1584 2216 1326 1975 
Q 1069 1734 1069 1313 
Q 1069 891 1326 650 
Q 1584 409 2034 409 
Q 2484 409 2743 651 
Q 3003 894 3003 1313 
Q 3003 1734 2745 1975 
Q 2488 2216 2034 2216 
z
M 1403 2484 
Q 997 2584 770 2862 
Q 544 3141 544 3541 
Q 544 4100 942 4425 
Q 1341 4750 2034 4750 
Q 2731 4750 3128 4425 
Q 3525 4100 3525 3541 
Q 3525 3141 3298 2862 
Q 3072 2584 2669 2484 
Q 3125 2378 3379 2068 
Q 3634 1759 3634 1313 
Q 3634 634 3220 271 
Q 2806 -91 2034 -91 
Q 1263 -91 848 271 
Q 434 634 434 1313 
Q 434 1759 690 2068 
Q 947 2378 1403 2484 
z
M 1172 3481 
Q 1172 3119 1398 2916 
Q 1625 2713 2034 2713 
Q 2441 2713 2670 2916 
Q 2900 3119 2900 3481 
Q 2900 3844 2670 4047 
Q 2441 4250 2034 4250 
Q 1625 4250 1398 4047 
Q 1172 3844 1172 3481 
z
" transform="scale(0.015625)"/>
     </defs>
     <use xlink:href="#DejaVuSans-1b"/>
    </g>
   </g>
   <g id="text_16">
    <!-- VDD -->
    <g transform="translate(560.736 625.239437) scale(0.14 -0.14)">
     <use xlink:href="#DejaVuSans-39"/>
     <use xlink:href="#DejaVuSans-27" transform="translate(68.40625 0)"/>
     <use xlink:href="#DejaVuSans-27" transform="translate(145.40625 0)"/>
    </g>
   </g>
   <g id="text_17">
    <!-- 9 -->
    <g transform="translate(537.89725 567.159828) scale(0.11 -0.11)">
     <defs>
      <path id="DejaVuSans-1c" d="M 703 97 
L 703 672 
Q 941 559 1184 500 
Q 1428 441 1663 441 
Q 2288 441 2617 861 
Q 2947 1281 2994 2138 
Q 2813 1869 2534 1725 
Q 2256 1581 1919 1581 
Q 1219 1581 811 2004 
Q 403 2428 403 3163 
Q 403 3881 828 4315 
Q 1253 4750 1959 4750 
Q 2769 4750 3195 4129 
Q 3622 3509 3622 2328 
Q 3622 1225 3098 567 
Q 2575 -91 1691 -91 
Q 1453 -91 1209 -44 
Q 966 3 703 97 
z
M 1959 2075 
Q 2384 2075 2632 2365 
Q 2881 2656 2881 3163 
Q 2881 3666 2632 3958 
Q 2384 4250 1959 4250 
Q 1534 4250 1286 3958 
Q 1038 3666 1038 3163 
Q 1038 2656 1286 2365 
Q 1534 2075 1959 2075 
z
" transform="scale(0.015625)"/>
     </defs>
     <use xlink:href="#DejaVuSans-1c"/>
    </g>
   </g>
   <g id="text_18">
    <!-- A0 -->
    <g transform="translate(560.736 577.711781) scale(0.14 -0.14)">
     <defs>
      <path id="DejaVuSans-24" d="M 2188 4044 
L 1331 1722 
L 3047 1722 
L 2188 4044 
z
M 1831 4666 
L 2547 4666 
L 4325 0 
L 3669 0 
L 3244 1197 
L 1141 1197 
L 716 0 
L 50 0 
L 1831 4666 
z
" transform="scale(0.015625)"/>
      <path id="DejaVuSans-13" d="M 2034 4250 
Q 1547 4250 1301 3770 
Q 1056 3291 1056 2328 
Q 1056 1369 1301 889 
Q 1547 409 2034 409 
Q 2525 409 2770 889 
Q 3016 1369 3016 2328 
Q 3016 3291 2770 3770 
Q 2525 4250 2034 4250 
z
M 2034 4750 
Q 2819 4750 3233 4129 
Q 3647 3509 3647 2328 
Q 3647 1150 3233 529 
Q 2819 -91 2034 -91 
Q 1250 -91 836 529 
Q 422 1150 422 2328 
Q 422 3509 836 4129 
Q 1250 4750 2034 4750 
z
" transform="scale(0.015625)"/>
     </defs>
     <use xlink:href="#DejaVuSans-24"/>
     <use xlink:href="#DejaVuSans-13" transform="translate(68.40625 0)"/>
    </g>
   </g>
   <g id="text_19">
    <!-- 10 -->
    <g transform="translate(530.8985 519.639828) scale(0.11 -0.11)">
     <use xlink:href="#DejaVuSans-14"/>
     <use xlink:href="#DejaVuSans-13" transform="translate(63.625 0)"/>
    </g>
   </g>
   <g id="text_20">
    <!-- A1 -->
    <g transform="translate(560.736 530.199437) scale(0.14 -0.14)">
     <use xlink:href="#DejaVuSans-24"/>
     <use xlink:href="#DejaVuSans-14" transform="translate(68.40625 0)"/>
    </g>
   </g>
   <g id="text_21">
    <!-- 11 -->
    <g transform="translate(530.8985 472.125844) scale(0.11 -0.11)">
     <use xlink:href="#DejaVuSans-14"/>
     <use xlink:href="#DejaVuSans-14" transform="translate(63.625 0)"/>
    </g>
   </g>
   <g id="text_22">
    <!-- A2 -->
    <g transform="translate(560.736 482.771312) scale(0.14 -0.14)">
     <use xlink:href="#DejaVuSans-24"/>
     <use xlink:href="#DejaVuSans-15" transform="translate(68.40625 0)"/>
    </g>
   </g>
   <g id="text_23">
    <!-- 12 -->
    <g transform="translate(530.8985 424.678031) scale(0.11 -0.11)">
     <use xlink:href="#DejaVuSans-14"/>
     <use xlink:href="#DejaVuSans-15" transform="translate(63.625 0)"/>
    </g>
   </g>
   <g id="text_24">
    <!-- A3 -->
    <g transform="translate(560.736 435.151781) scale(0.14 -0.14)">
     <use xlink:href="#DejaVuSans-24"/>
     <use xlink:href="#DejaVuSans-16" transform="translate(68.40625 0)"/>
    </g>
   </g>
   <g id="text_25">
    <!-- 13 -->
    <g transform="translate(530.8985 377.079828) scale(0.11 -0.11)">
     <use xlink:href="#DejaVuSans-14"/>
     <use xlink:href="#DejaVuSans-16" transform="translate(63.625 0)"/>
    </g>
   </g>
   <g id="text_26">
    <!-- A4 -->
    <g transform="translate(560.736 387.639438) scale(0.14 -0.14)">
     <use xlink:href="#DejaVuSans-24"/>
     <use xlink:href="#DejaVuSans-17" transform="translate(68.40625 0)"/>
    </g>
   </g>
   <g id="text_27">
    <!-- 14 -->
    <g transform="translate(530.8985 329.565844) scale(0.11 -0.11)">
     <use xlink:href="#DejaVuSans-14"/>
     <use xlink:href="#DejaVuSans-17" transform="translate(63.625 0)"/>
    </g>
   </g>
   <g id="text_28">
    <!-- A5 -->
    <g transform="translate(560.736 340.019906) scale(0.14 -0.14)">
     <use xlink:href="#DejaVuSans-24"/>
     <use xlink:href="#DejaVuSans-18" transform="translate(68.40625 0)"/>
    </g>
   </g>
   <g id="text_29">
    <!-- 15 -->
    <g transform="translate(530.8985 281.967641) scale(0.11 -0.11)">
     <use xlink:href="#DejaVuSans-14"/>
     <use xlink:href="#DejaVuSans-18" transform="translate(63.625 0)"/>
    </g>
   </g>
   <g id="text_30">
    <!-- A6 -->
    <g transform="translate(560.736 292.591781) scale(0.14 -0.14)">
     <use xlink:href="#DejaVuSans-24"/>
     <use xlink:href="#DejaVuSans-19" transform="translate(68.40625 0)"/>
    </g>
   </g>
   <g id="text_31">
    <!-- 16 -->
    <g transform="translate(530.8985 234.519828) scale(0.11 -0.11)">
     <use xlink:href="#DejaVuSans-14"/>
     <use xlink:href="#DejaVuSans-19" transform="translate(63.625 0)"/>
    </g>
   </g>
   <g id="text_32">
    <!-- A7 -->
    <g transform="translate(560.736 245.079438) scale(0.14 -0.14)">
     <use xlink:href="#DejaVuSans-24"/>
     <use xlink:href="#DejaVuSans-1a" transform="translate(68.40625 0)"/>
    </g>
   </g>
   <g id="text_33">
    <!-- 17 -->
    <g transform="translate(530.8985 187.005844) scale(0.11 -0.11)">
     <use xlink:href="#DejaVuSans-14"/>
     <use xlink:href="#DejaVuSans-1a" transform="translate(63.625 0)"/>
    </g>
   </g>
   <g id="text_34">
    <!-- A8 -->
    <g transform="translate(560.736 197.551781) scale(0.14 -0.14)">
     <use xlink:href="#DejaVuSans-24"/>
     <use xlink:href="#DejaVuSans-1b" transform="translate(68.40625 0)"/>
    </g>
   </g>
   <g id="text_35">
    <!-- 18 -->
    <g transform="translate(530.8985 139.479828) scale(0.11 -0.11)">
     <use xlink:href="#DejaVuSans-14"/>
     <use xlink:href="#DejaVuSans-1b" transform="translate(63.625 0)"/>
    </g>
   </g>
   <g id="text_36">
    <!-- A9 -->
    <g transform="translate(560.736 150.031781) scale(0.14 -0.14)">
     <use xlink:href="#DejaVuSans-24"/>
     <use xlink:href="#DejaVuSans-1c" transform="translate(68.40625 0)"/>
    </g>
   </g>
   <g id="text_37">
    <!-- 19 -->
    <g transform="translate(530.8985 91.959828) scale(0.11 -0.11)">
     <use xlink:href="#DejaVuSans-14"/>
     <use xlink:href="#DejaVuSans-1c" transform="translate(63.625 0)"/>
    </g>
   </g>
   <g id="text_38">
    <!-- A10 -->
    <g transform="translate(560.736 102.511781) scale(0.14 -0.14)">
     <use xlink:href="#DejaVuSans-24"/>
     <use xlink:href="#DejaVuSans-14" transform="translate(68.40625 0)"/>
     <use xlink:href="#DejaVuSans-13" transform="translate(132.03125 0)"/>
    </g>
   </g>
   <g id="text_39">
    <!-- 20 -->
    <g transform="translate(530.8985 44.439828) scale(0.11 -0.11)">
     <use xlink:href="#DejaVuSans-15"/>
     <use xlink:href="#DejaVuSans-13" transform="translate(63.625 0)"/>
    </g>
   </g>
   <g id="text_40">
    <!-- A11 -->
    <g transform="translate(560.736 54.999437) scale(0.14 -0.14)">
     <use xlink:href="#DejaVuSans-24"/>
     <use xlink:href="#DejaVuSans-14" transform="translate(68.40625 0)"/>
     <use xlink:href="#DejaVuSans-14" transform="translate(132.03125 0)"/>
    </g>
   </g>
   <g id="text_41">
    <!-- 21 -->
    <g transform="translate(788.4624 947.398031) scale(0.11 -0.11)">
     <use xlink:href="#DejaVuSans-15"/>
     <use xlink:href="#DejaVuSans-14" transform="translate(63.625 0)"/>
    </g>
   </g>
   <g id="text_42">
    <!-- VSS -->
    <g transform="translate(745.2699 957.871781) scale(0.14 -0.14)">
     <use xlink:href="#DejaVuSans-39"/>
     <use xlink:href="#DejaVuSans-36" transform="translate(68.40625 0)"/>
     <use xlink:href="#DejaVuSans-36" transform="translate(131.890625 0)"/>
    </g>
   </g>
   <g id="text_43">
    <!-- 22 -->
    <g transform="translate(788.4624 899.878031) scale(0.11 -0.11)">
     <use xlink:href="#DejaVuSans-15"/>
     <use xlink:href="#DejaVuSans-15" transform="translate(63.625 0)"/>
    </g>
   </g>
   <g id="text_44">
    <!-- A12 -->
    <g transform="translate(745.230525 910.451312) scale(0.14 -0.14)">
     <use xlink:href="#DejaVuSans-24"/>
     <use xlink:href="#DejaVuSans-14" transform="translate(68.40625 0)"/>
     <use xlink:href="#DejaVuSans-15" transform="translate(132.03125 0)"/>
    </g>
   </g>
   <g id="text_45">
    <!-- 23 -->
    <g transform="translate(788.4624 852.279828) scale(0.11 -0.11)">
     <use xlink:href="#DejaVuSans-15"/>
     <use xlink:href="#DejaVuSans-16" transform="translate(63.625 0)"/>
    </g>
   </g>
   <g id="text_46">
    <!-- A13 -->
    <g transform="translate(745.230525 862.831781) scale(0.14 -0.14)">
     <use xlink:href="#DejaVuSans-24"/>
     <use xlink:href="#DejaVuSans-14" transform="translate(68.40625 0)"/>
     <use xlink:href="#DejaVuSans-16" transform="translate(132.03125 0)"/>
    </g>
   </g>
   <g id="text_47">
    <!-- 24 -->
    <g transform="translate(788.4624 804.838031) scale(0.11 -0.11)">
     <use xlink:href="#DejaVuSans-15"/>
     <use xlink:href="#DejaVuSans-17" transform="translate(63.625 0)"/>
    </g>
   </g>
   <g id="text_48">
    <!-- A14 -->
    <g transform="translate(745.230525 815.319438) scale(0.14 -0.14)">
     <use xlink:href="#DejaVuSans-24"/>
     <use xlink:href="#DejaVuSans-14" transform="translate(68.40625 0)"/>
     <use xlink:href="#DejaVuSans-17" transform="translate(132.03125 0)"/>
    </g>
   </g>
   <g id="text_49">
    <!-- 25 -->
    <g transform="translate(788.4624 757.239828) scale(0.11 -0.11)">
     <use xlink:href="#DejaVuSans-15"/>
     <use xlink:href="#DejaVuSans-18" transform="translate(63.625 0)"/>
    </g>
   </g>
   <g id="text_50">
    <!-- A15 -->
    <g transform="translate(745.230525 767.699906) scale(0.14 -0.14)">
     <use xlink:href="#DejaVuSans-24"/>
     <use xlink:href="#DejaVuSans-14" transform="translate(68.40625 0)"/>
     <use xlink:href="#DejaVuSans-18" transform="translate(132.03125 0)"/>
    </g>
   </g>
   <g id="text_51">
    <!-- 26 -->
    <g transform="translate(788.4624 709.719828) scale(0.11 -0.11)">
     <use xlink:href="#DejaVuSans-15"/>
     <use xlink:href="#DejaVuSans-19" transform="translate(63.625 0)"/>
    </g>
   </g>
   <g id="text_52">
    <!-- D7 -->
    <g transform="translate(752.9349 720.279437) scale(0.14 -0.14)">
     <use xlink:href="#DejaVuSans-27"/>
     <use xlink:href="#DejaVuSans-1a" transform="translate(77 0)"/>
    </g>
   </g>
   <g id="text_53">
    <!-- 27 -->
    <g transform="translate(788.4624 662.278031) scale(0.11 -0.11)">
     <use xlink:href="#DejaVuSans-15"/>
     <use xlink:href="#DejaVuSans-1a" transform="translate(63.625 0)"/>
    </g>
   </g>
   <g id="text_54">
    <!-- D6 -->
    <g transform="translate(752.9349 672.751781) scale(0.14 -0.14)">
     <use xlink:href="#DejaVuSans-27"/>
     <use xlink:href="#DejaVuSans-19" transform="translate(77 0)"/>
    </g>
   </g>
   <g id="text_55">
    <!-- 28 -->
    <g transform="translate(788.4624 614.679828) scale(0.11 -0.11)">
     <use xlink:href="#DejaVuSans-15"/>
     <use xlink:href="#DejaVuSans-1b" transform="translate(63.625 0)"/>
    </g>
   </g>
   <g id="text_56">
    <!-- D5 -->
    <g transform="translate(752.9349 625.139906) scale(0.14 -0.14)">
     <use xlink:href="#DejaVuSans-27"/>
     <use xlink:href="#DejaVuSans-18" transform="translate(77 0)"/>
    </g>
   </g>
   <g id="text_57">
    <!-- 29 -->
    <g transform="translate(788.4624 567.159828) scale(0.11 -0.11)">
     <use xlink:href="#DejaVuSans-15"/>
     <use xlink:href="#DejaVuSans-1c" transform="translate(63.625 0)"/>
    </g>
   </g>
   <g id="text_58">
    <!-- D4 -->
    <g transform="translate(752.9349 577.719437) scale(0.14 -0.14)">
     <use xlink:href="#DejaVuSans-27"/>
     <use xlink:href="#DejaVuSans-17" transform="translate(77 0)"/>
    </g>
   </g>
   <g id="text_59">
    <!-- 30 -->
    <g transform="translate(788.4624 519.639828) scale(0.11 -0.11)">
     <use xlink:href="#DejaVuSans-16"/>
     <use xlink:href="#DejaVuSans-13" transform="translate(63.625 0)"/>
    </g>
   </g>
   <g id="text_60">
    <!-- D3 -->
    <g transform="translate(752.9349 530.191781) scale(0.14 -0.14)">
     <use xlink:href="#DejaVuSans-27"/>
     <use xlink:href="#DejaVuSans-16" transform="translate(77 0)"/>
    </g>
   </g>
   <g id="text_61">
    <!-- 31 -->
    <g transform="translate(788.4624 472.119828) scale(0.11 -0.11)">
     <use xlink:href="#DejaVuSans-16"/>
     <use xlink:href="#DejaVuSans-14" transform="translate(63.625 0)"/>
    </g>
   </g>
   <g id="text_62">
    <!-- D2 -->
    <g transform="translate(752.9349 482.771312) scale(0.14 -0.14)">
     <use xlink:href="#DejaVuSans-27"/>
     <use xlink:href="#DejaVuSans-15" transform="translate(77 0)"/>
    </g>
   </g>
   <g id="text_63">
    <!-- 32 -->
    <g transform="translate(788.4624 424.599828) scale(0.11 -0.11)">
     <use xlink:href="#DejaVuSans-16"/>
     <use xlink:href="#DejaVuSans-15" transform="translate(63.625 0)"/>
    </g>
   </g>
   <g id="text_64">
    <!-- D1 -->
    <g transform="translate(752.9349 435.159438) scale(0.14 -0.14)">
     <use xlink:href="#DejaVuSans-27"/>
     <use xlink:href="#DejaVuSans-14" transform="translate(77 0)"/>
    </g>
   </g>
   <g id="text_65">
    <!-- 33 -->
    <g transform="translate(788.4624 377.079828) scale(0.11 -0.11)">
     <use xlink:href="#DejaVuSans-16"/>
     <use xlink:href="#DejaVuSans-16" transform="translate(63.625 0)"/>
    </g>
   </g>
   <g id="text_66">
    <!-- D0 -->
    <g transform="translate(752.9349 387.631781) scale(0.14 -0.14)">
     <use xlink:href="#DejaVuSans-27"/>
     <use xlink:href="#DejaVuSans-13" transform="translate(77 0)"/>
    </g>
   </g>
   <g id="text_67">
    <!-- 34 -->
    <g transform="translate(788.4624 329.559828) scale(0.11 -0.11)">
     <use xlink:href="#DejaVuSans-16"/>
     <use xlink:href="#DejaVuSans-17" transform="translate(63.625 0)"/>
    </g>
   </g>
   <g id="text_68">
    <!-- RWB -->
    <g transform="translate(740.013338 340.119437) scale(0.14 -0.14)">
     <defs>
      <path id="DejaVuSans-3a" d="M 213 4666 
L 850 4666 
L 1831 722 
L 2809 4666 
L 3519 4666 
L 4500 722 
L 5478 4666 
L 6119 4666 
L 4947 0 
L 4153 0 
L 3169 4050 
L 2175 0 
L 1381 0 
L 213 4666 
z
" transform="scale(0.015625)"/>
     </defs>
     <use xlink:href="#DejaVuSans-35"/>
     <use xlink:href="#DejaVuSans-3a" transform="translate(65.4375 0)"/>
     <use xlink:href="#DejaVuSans-25" transform="translate(164.3125 0)"/>
    </g>
   </g>
   <g id="text_69">
    <!-- 35 -->
    <g transform="translate(788.4624 282.039828) scale(0.11 -0.11)">
     <use xlink:href="#DejaVuSans-16"/>
     <use xlink:href="#DejaVuSans-18" transform="translate(63.625 0)"/>
    </g>
   </g>
   <g id="text_70">
    <!-- BE -->
    <g transform="translate(754.170838 292.599437) scale(0.14 -0.14)">
     <defs>
      <path id="DejaVuSans-28" d="M 628 4666 
L 3578 4666 
L 3578 4134 
L 1259 4134 
L 1259 2753 
L 3481 2753 
L 3481 2222 
L 1259 2222 
L 1259 531 
L 3634 531 
L 3634 0 
L 628 0 
L 628 4666 
z
" transform="scale(0.015625)"/>
     </defs>
     <use xlink:href="#DejaVuSans-25"/>
     <use xlink:href="#DejaVuSans-28" transform="translate(68.609375 0)"/>
    </g>
   </g>
   <g id="text_71">
    <!-- 36 -->
    <g transform="translate(788.4624 234.519828) scale(0.11 -0.11)">
     <use xlink:href="#DejaVuSans-16"/>
     <use xlink:href="#DejaVuSans-19" transform="translate(63.625 0)"/>
    </g>
   </g>
   <g id="text_72">
    <!-- PHI2 -->
    <g transform="translate(740.6149 245.171312) scale(0.14 -0.14)">
     <use xlink:href="#DejaVuSans-33"/>
     <use xlink:href="#DejaVuSans-2b" transform="translate(60.296875 0)"/>
     <use xlink:href="#DejaVuSans-2c" transform="translate(135.5 0)"/>
     <use xlink:href="#DejaVuSans-15" transform="translate(165 0)"/>
    </g>
   </g>
   <g id="text_73">
    <!-- 37 -->
    <g transform="translate(788.4624 186.999828) scale(0.11 -0.11)">
     <use xlink:href="#DejaVuSans-16"/>
     <use xlink:href="#DejaVuSans-1a" transform="translate(63.625 0)"/>
    </g>
   </g>
   <g id="text_74">
    <!-- PHI2O -->
    <g transform="translate(729.594275 197.551781) scale(0.14 -0.14)">
     <use xlink:href="#DejaVuSans-33"/>
     <use xlink:href="#DejaVuSans-2b" transform="translate(60.296875 0)"/>
     <use xlink:href="#DejaVuSans-2c" transform="translate(135.5 0)"/>
     <use xlink:href="#DejaVuSans-15" transform="translate(165 0)"/>
     <use xlink:href="#DejaVuSans-32" transform="translate(228.625 0)"/>
    </g>
   </g>
   <g id="text_75">
    <!-- 38 -->
    <g transform="translate(788.4624 139.479828) scale(0.11 -0.11)">
     <use xlink:href="#DejaVuSans-16"/>
     <use xlink:href="#DejaVuSans-1b" transform="translate(63.625 0)"/>
    </g>
   </g>
   <g id="text_76">
    <!-- SOB -->
    <g transform="translate(743.10865 150.031781) scale(0.14 -0.14)">
     <use xlink:href="#DejaVuSans-36"/>
     <use xlink:href="#DejaVuSans-32" transform="translate(63.484375 0)"/>
     <use xlink:href="#DejaVuSans-25" transform="translate(142.203125 0)"/>
    </g>
   </g>
   <g id="text_77">
    <!-- 39 -->
    <g transform="translate(788.4624 91.959828) scale(0.11 -0.11)">
     <use xlink:href="#DejaVuSans-16"/>
     <use xlink:href="#DejaVuSans-1c" transform="translate(63.625 0)"/>
    </g>
   </g>
   <g id="text_78">
    <!-- NC -->
    <g transform="translate(752.372713 102.511781) scale(0.14 -0.14)">
     <use xlink:href="#DejaVuSans-31"/>
     <use xlink:href="#DejaVuSans-26" transform="translate(74.8125 0)"/>
    </g>
   </g>
   <g id="text_79">
    <!-- 40 -->
    <g transform="translate(812.2224 44.439828) scale(0.11 -0.11)">
     <use xlink:href="#DejaVuSans-17"/>
     <use xlink:href="#DejaVuSans-13" transform="translate(63.625 0)"/>
    </g>
   </g>
   <g id="text_80">
    <!-- RESB -->
    <g transform="translate(735.555213 54.991781) scale(0.14 -0.14)">
     <use xlink:href="#DejaVuSans-35"/>
     <use xlink:href="#DejaVuSans-28" transform="translate(69.484375 0)"/>
     <use xlink:href="#DejaVuSans-36" transform="translate(132.671875 0)"/>
     <use xlink:href="#DejaVuSans-25" transform="translate(196.15625 0)"/>
    </g>
   </g>
   <g id="text_81">
    <!-- W65C02S -->
    <g transform="translate(654.512013 1004.615922) scale(0.05 -0.05)">
     <use xlink:href="#DejaVuSans-3a"/>
     <use xlink:href="#DejaVuSans-19" transform="translate(98.875 0)"/>
     <use xlink:href="#DejaVuSans-18" transform="translate(162.5 0)"/>
     <use xlink:href="#DejaVuSans-26" transform="translate(226.125 0)"/>
     <use xlink:href="#DejaVuSans-13" transform="translate(295.953125 0)"/>
     <use xlink:href="#DejaVuSans-15" transform="translate(359.578125 0)"/>
     <use xlink:href="#DejaVuSans-36" transform="translate(423.203125 0)"/>
    </g>
   </g>
   <g id="text_82">
    <!-- A0 -->
    <g transform="translate(140.976 571.391859) scale(0.09 -0.09)">
     <use xlink:href="#DejaVuSans-24"/>
     <use xlink:href="#DejaVuSans-13" transform="translate(68.40625 0)"/>
    </g>
   </g>
   <g id="text_83">
    <!-- A1 -->
    <g transform="translate(140.976 523.876781) scale(0.09 -0.09)">
     <use xlink:href="#DejaVuSans-24"/>
     <use xlink:href="#DejaVuSans-14" transform="translate(68.40625 0)"/>
    </g>
   </g>
   <g id="text_84">
    <!-- A2 -->
    <g transform="translate(140.976 476.415844) scale(0.09 -0.09)">
     <use xlink:href="#DejaVuSans-24"/>
     <use xlink:href="#DejaVuSans-15" transform="translate(68.40625 0)"/>
    </g>
   </g>
   <g id="text_85">
    <!-- A3 -->
    <g transform="translate(140.976 428.831859) scale(0.09 -0.09)">
     <use xlink:href="#DejaVuSans-24"/>
     <use xlink:href="#DejaVuSans-16" transform="translate(68.40625 0)"/>
    </g>
   </g>
   <g id="text_86">
    <!-- A4 -->
    <g transform="translate(140.976 381.316781) scale(0.09 -0.09)">
     <use xlink:href="#DejaVuSans-24"/>
     <use xlink:href="#DejaVuSans-17" transform="translate(68.40625 0)"/>
    </g>
   </g>
   <g id="text_87">
    <!-- A5 -->
    <g transform="translate(140.976 333.732797) scale(0.09 -0.09)">
     <use xlink:href="#DejaVuSans-24"/>
     <use xlink:href="#DejaVuSans-18" transform="translate(68.40625 0)"/>
    </g>
   </g>
   <g id="text_88">
    <!-- A6 -->
    <g transform="translate(140.976 286.271859) scale(0.09 -0.09)">
     <use xlink:href="#DejaVuSans-24"/>
     <use xlink:href="#DejaVuSans-19" transform="translate(68.40625 0)"/>
    </g>
   </g>
   <g id="text_89">
    <!-- A7 -->
    <g transform="translate(140.976 238.756781) scale(0.09 -0.09)">
     <use xlink:href="#DejaVuSans-24"/>
     <use xlink:href="#DejaVuSans-1a" transform="translate(68.40625 0)"/>
    </g>
   </g>
   <g id="text_90">
    <!-- Arduino -->
    <g transform="translate(103.581781 197.660062) scale(0.05 -0.05)">
     <defs>
      <path id="DejaVuSans-55" d="M 2631 2963 
Q 2534 3019 2420 3045 
Q 2306 3072 2169 3072 
Q 1681 3072 1420 2755 
Q 1159 2438 1159 1844 
L 1159 0 
L 581 0 
L 581 3500 
L 1159 3500 
L 1159 2956 
Q 1341 3275 1631 3429 
Q 1922 3584 2338 3584 
Q 2397 3584 2469 3576 
Q 2541 3569 2628 3553 
L 2631 2963 
z
" transform="scale(0.015625)"/>
      <path id="DejaVuSans-47" d="M 2906 2969 
L 2906 4863 
L 3481 4863 
L 3481 0 
L 2906 0 
L 2906 525 
Q 2725 213 2448 61 
Q 2172 -91 1784 -91 
Q 1150 -91 751 415 
Q 353 922 353 1747 
Q 353 2572 751 3078 
Q 1150 3584 1784 3584 
Q 2172 3584 2448 3432 
Q 2725 3281 2906 2969 
z
M 947 1747 
Q 947 1113 1208 752 
Q 1469 391 1925 391 
Q 2381 391 2643 752 
Q 2906 1113 2906 1747 
Q 2906 2381 2643 2742 
Q 2381 3103 1925 3103 
Q 1469 3103 1208 2742 
Q 947 2381 947 1747 
z
" transform="scale(0.015625)"/>
      <path id="DejaVuSans-58" d="M 544 1381 
L 544 3500 
L 1119 3500 
L 1119 1403 
Q 1119 906 1312 657 
Q 1506 409 1894 409 
Q 2359 409 2629 706 
Q 2900 1003 2900 1516 
L 2900 3500 
L 3475 3500 
L 3475 0 
L 2900 0 
L 2900 538 
Q 2691 219 2414 64 
Q 2138 -91 1772 -91 
Q 1169 -91 856 284 
Q 544 659 544 1381 
z
M 1991 3584 
L 1991 3584 
z
" transform="scale(0.015625)"/>
      <path id="DejaVuSans-4c" d="M 603 3500 
L 1178 3500 
L 1178 0 
L 603 0 
L 603 3500 
z
M 603 4863 
L 1178 4863 
L 1178 4134 
L 603 4134 
L 603 4863 
z
" transform="scale(0.015625)"/>
      <path id="DejaVuSans-51" d="M 3513 2113 
L 3513 0 
L 2938 0 
L 2938 2094 
Q 2938 2591 2744 2837 
Q 2550 3084 2163 3084 
Q 1697 3084 1428 2787 
Q 1159 2491 1159 1978 
L 1159 0 
L 581 0 
L 581 3500 
L 1159 3500 
L 1159 2956 
Q 1366 3272 1645 3428 
Q 1925 3584 2291 3584 
Q 2894 3584 3203 3211 
Q 3513 2838 3513 2113 
z
" transform="scale(0.015625)"/>
      <path id="DejaVuSans-52" d="M 1959 3097 
Q 1497 3097 1228 2736 
Q 959 2375 959 1747 
Q 959 1119 1226 758 
Q 1494 397 1959 397 
Q 2419 397 2687 759 
Q 2956 1122 2956 1747 
Q 2956 2369 2687 2733 
Q 2419 3097 1959 3097 
z
M 1959 3584 
Q 2709 3584 3137 3096 
Q 3566 2609 3566 1747 
Q 3566 888 3137 398 
Q 2709 -91 1959 -91 
Q 1206 -91 779 398 
Q 353 888 353 1747 
Q 353 2609 779 3096 
Q 1206 3584 1959 3584 
z
" transform="scale(0.015625)"/>
     </defs>
     <use xlink:href="#DejaVuSans-24"/>
     <use xlink:href="#DejaVuSans-55" transform="translate(68.40625 0)"/>
     <use xlink:href="#DejaVuSans-47" transform="translate(107.765625 0)"/>
     <use xlink:href="#DejaVuSans-58" transform="translate(171.25 0)"/>
     <use xlink:href="#DejaVuSans-4c" transform="translate(234.625 0)"/>
     <use xlink:href="#DejaVuSans-51" transform="translate(262.40625 0)"/>
     <use xlink:href="#DejaVuSans-52" transform="translate(325.78125 0)"/>
    </g>
    <!-- PORTK -->
    <g transform="translate(105.059125 202.615922) scale(0.05 -0.05)">
     <defs>
      <path id="DejaVuSans-37" d="M -19 4666 
L 3928 4666 
L 3928 4134 
L 2272 4134 
L 2272 0 
L 1638 0 
L 1638 4134 
L -19 4134 
L -19 4666 
z
" transform="scale(0.015625)"/>
      <path id="DejaVuSans-2e" d="M 628 4666 
L 1259 4666 
L 1259 2694 
L 3353 4666 
L 4166 4666 
L 1850 2491 
L 4331 0 
L 3500 0 
L 1259 2247 
L 1259 0 
L 628 0 
L 628 4666 
z
" transform="scale(0.015625)"/>
     </defs>
     <use xlink:href="#DejaVuSans-33"/>
     <use xlink:href="#DejaVuSans-32" transform="translate(60.296875 0)"/>
     <use xlink:href="#DejaVuSans-35" transform="translate(139.015625 0)"/>
     <use xlink:href="#DejaVuSans-37" transform="translate(201.21875 0)"/>
     <use xlink:href="#DejaVuSans-2e" transform="translate(262.296875 0)"/>
    </g>
    <!-- (A8-A15) -->
    <g transform="translate(102.266156 207.363187) scale(0.05 -0.05)">
     <defs>
      <path id="DejaVuSans-b" d="M 1984 4856 
Q 1566 4138 1362 3434 
Q 1159 2731 1159 2009 
Q 1159 1288 1364 580 
Q 1569 -128 1984 -844 
L 1484 -844 
Q 1016 -109 783 600 
Q 550 1309 550 2009 
Q 550 2706 781 3412 
Q 1013 4119 1484 4856 
L 1984 4856 
z
" transform="scale(0.015625)"/>
      <path id="DejaVuSans-10" d="M 313 2009 
L 1997 2009 
L 1997 1497 
L 313 1497 
L 313 2009 
z
" transform="scale(0.015625)"/>
      <path id="DejaVuSans-c" d="M 513 4856 
L 1013 4856 
Q 1481 4119 1714 3412 
Q 1947 2706 1947 2009 
Q 1947 1309 1714 600 
Q 1481 -109 1013 -844 
L 513 -844 
Q 928 -128 1133 580 
Q 1338 1288 1338 2009 
Q 1338 2731 1133 3434 
Q 928 4138 513 4856 
z
" transform="scale(0.015625)"/>
     </defs>
     <use xlink:href="#DejaVuSans-b"/>
     <use xlink:href="#DejaVuSans-24" transform="translate(39.015625 0)"/>
     <use xlink:href="#DejaVuSans-1b" transform="translate(107.421875 0)"/>
     <use xlink:href="#DejaVuSans-10" transform="translate(171.046875 0)"/>
     <use xlink:href="#DejaVuSans-24" transform="translate(204.921875 0)"/>
     <use xlink:href="#DejaVuSans-14" transform="translate(273.328125 0)"/>
     <use xlink:href="#DejaVuSans-18" transform="translate(336.953125 0)"/>
     <use xlink:href="#DejaVuSans-c" transform="translate(400.578125 0)"/>
    </g>
   </g>
   <g id="text_91">
    <!-- A15 -->
    <g transform="translate(61.776 793.092797) scale(0.09 -0.09)">
     <use xlink:href="#DejaVuSans-24"/>
     <use xlink:href="#DejaVuSans-14" transform="translate(68.40625 0)"/>
     <use xlink:href="#DejaVuSans-18" transform="translate(132.03125 0)"/>
    </g>
   </g>
   <g id="text_92">
    <!-- A14 -->
    <g transform="translate(61.776 745.636781) scale(0.09 -0.09)">
     <use xlink:href="#DejaVuSans-24"/>
     <use xlink:href="#DejaVuSans-14" transform="translate(68.40625 0)"/>
     <use xlink:href="#DejaVuSans-17" transform="translate(132.03125 0)"/>
    </g>
   </g>
   <g id="text_93">
    <!-- A13 -->
    <g transform="translate(61.776 698.111859) scale(0.09 -0.09)">
     <use xlink:href="#DejaVuSans-24"/>
     <use xlink:href="#DejaVuSans-14" transform="translate(68.40625 0)"/>
     <use xlink:href="#DejaVuSans-16" transform="translate(132.03125 0)"/>
    </g>
   </g>
   <g id="text_94">
    <!-- A12 -->
    <g transform="translate(61.776 650.655844) scale(0.09 -0.09)">
     <use xlink:href="#DejaVuSans-24"/>
     <use xlink:href="#DejaVuSans-14" transform="translate(68.40625 0)"/>
     <use xlink:href="#DejaVuSans-15" transform="translate(132.03125 0)"/>
    </g>
   </g>
   <g id="text_95">
    <!-- A11 -->
    <g transform="translate(61.776 603.076781) scale(0.09 -0.09)">
     <use xlink:href="#DejaVuSans-24"/>
     <use xlink:href="#DejaVuSans-14" transform="translate(68.40625 0)"/>
     <use xlink:href="#DejaVuSans-14" transform="translate(132.03125 0)"/>
    </g>
   </g>
   <g id="text_96">
    <!-- A10 -->
    <g transform="translate(61.776 555.551859) scale(0.09 -0.09)">
     <use xlink:href="#DejaVuSans-24"/>
     <use xlink:href="#DejaVuSans-14" transform="translate(68.40625 0)"/>
     <use xlink:href="#DejaVuSans-13" transform="translate(132.03125 0)"/>
    </g>
   </g>
   <g id="text_97">
    <!-- A9 -->
    <g transform="translate(61.776 508.031859) scale(0.09 -0.09)">
     <use xlink:href="#DejaVuSans-24"/>
     <use xlink:href="#DejaVuSans-1c" transform="translate(68.40625 0)"/>
    </g>
   </g>
   <g id="text_98">
    <!-- A8 -->
    <g transform="translate(61.776 460.511859) scale(0.09 -0.09)">
     <use xlink:href="#DejaVuSans-24"/>
     <use xlink:href="#DejaVuSans-1b" transform="translate(68.40625 0)"/>
    </g>
   </g>
   <g id="text_99">
    <!-- Arduino -->
    <g transform="translate(24.381781 419.420063) scale(0.05 -0.05)">
     <use xlink:href="#DejaVuSans-24"/>
     <use xlink:href="#DejaVuSans-55" transform="translate(68.40625 0)"/>
     <use xlink:href="#DejaVuSans-47" transform="translate(107.765625 0)"/>
     <use xlink:href="#DejaVuSans-58" transform="translate(171.25 0)"/>
     <use xlink:href="#DejaVuSans-4c" transform="translate(234.625 0)"/>
     <use xlink:href="#DejaVuSans-51" transform="translate(262.40625 0)"/>
     <use xlink:href="#DejaVuSans-52" transform="translate(325.78125 0)"/>
    </g>
    <!-- PORTF -->
    <g transform="translate(26.060687 424.375922) scale(0.05 -0.05)">
     <defs>
      <path id="DejaVuSans-29" d="M 628 4666 
L 3309 4666 
L 3309 4134 
L 1259 4134 
L 1259 2759 
L 3109 2759 
L 3109 2228 
L 1259 2228 
L 1259 0 
L 628 0 
L 628 4666 
z
" transform="scale(0.015625)"/>
     </defs>
     <use xlink:href="#DejaVuSans-33"/>
     <use xlink:href="#DejaVuSans-32" transform="translate(60.296875 0)"/>
     <use xlink:href="#DejaVuSans-35" transform="translate(139.015625 0)"/>
     <use xlink:href="#DejaVuSans-37" transform="translate(201.21875 0)"/>
     <use xlink:href="#DejaVuSans-29" transform="translate(262.296875 0)"/>
    </g>
    <!-- (A0-A7) -->
    <g transform="translate(24.656781 429.123188) scale(0.05 -0.05)">
     <use xlink:href="#DejaVuSans-b"/>
     <use xlink:href="#DejaVuSans-24" transform="translate(39.015625 0)"/>
     <use xlink:href="#DejaVuSans-13" transform="translate(107.421875 0)"/>
     <use xlink:href="#DejaVuSans-10" transform="translate(171.046875 0)"/>
     <use xlink:href="#DejaVuSans-24" transform="translate(204.921875 0)"/>
     <use xlink:href="#DejaVuSans-1a" transform="translate(273.328125 0)"/>
     <use xlink:href="#DejaVuSans-c" transform="translate(336.953125 0)"/>
    </g>
   </g>
   <g id="patch_5">
    <path d="M 113.256 580.536 
C 115.356409 580.536 117.371073 579.701499 118.856286 578.216286 
C 120.341499 576.731073 121.176 574.716409 121.176 572.616 
C 121.176 570.515591 120.341499 568.500927 118.856286 567.015714 
C 117.371073 565.530501 115.356409 564.696 113.256 564.696 
C 111.155591 564.696 109.140927 565.530501 107.655714 567.015714 
C 106.170501 568.500927 105.336 570.515591 105.336 572.616 
C 105.336 574.716409 106.170501 576.731073 107.655714 578.216286 
C 109.140927 579.701499 111.155591 580.536 113.256 580.536 
z
" clip-path="url(#p4cd4cc0dca)" style="fill: #ffffff; stroke: #000000; stroke-width: 2; stroke-linejoin: miter"/>
   </g>
   <g id="patch_6">
    <path d="M 113.256 533.016 
C 115.356409 533.016 117.371073 532.181499 118.856286 530.696286 
C 120.341499 529.211073 121.176 527.196409 121.176 525.096 
C 121.176 522.995591 120.341499 520.980927 118.856286 519.495714 
C 117.371073 518.010501 115.356409 517.176 113.256 517.176 
C 111.155591 517.176 109.140927 518.010501 107.655714 519.495714 
C 106.170501 520.980927 105.336 522.995591 105.336 525.096 
C 105.336 527.196409 106.170501 529.211073 107.655714 530.696286 
C 109.140927 532.181499 111.155591 533.016 113.256 533.016 
z
" clip-path="url(#p4cd4cc0dca)" style="fill: #ffffff; stroke: #000000; stroke-width: 2; stroke-linejoin: miter"/>
   </g>
   <g id="patch_7">
    <path d="M 113.256 485.496 
C 115.356409 485.496 117.371073 484.661499 118.856286 483.176286 
C 120.341499 481.691073 121.176 479.676409 121.176 477.576 
C 121.176 475.475591 120.341499 473.460927 118.856286 471.975714 
C 117.371073 470.490501 115.356409 469.656 113.256 469.656 
C 111.155591 469.656 109.140927 470.490501 107.655714 471.975714 
C 106.170501 473.460927 105.336 475.475591 105.336 477.576 
C 105.336 479.676409 106.170501 481.691073 107.655714 483.176286 
C 109.140927 484.661499 111.155591 485.496 113.256 485.496 
z
" clip-path="url(#p4cd4cc0dca)" style="fill: #ffffff; stroke: #000000; stroke-width: 2; stroke-linejoin: miter"/>
   </g>
   <g id="patch_8">
    <path d="M 113.256 437.976 
C 115.356409 437.976 117.371073 437.141499 118.856286 435.656286 
C 120.341499 434.171073 121.176 432.156409 121.176 430.056 
C 121.176 427.955591 120.341499 425.940927 118.856286 424.455714 
C 117.371073 422.970501 115.356409 422.136 113.256 422.136 
C 111.155591 422.136 109.140927 422.970501 107.655714 424.455714 
C 106.170501 425.940927 105.336 427.955591 105.336 430.056 
C 105.336 432.156409 106.170501 434.171073 107.655714 435.656286 
C 109.140927 437.141499 111.155591 437.976 113.256 437.976 
z
" clip-path="url(#p4cd4cc0dca)" style="fill: #ffffff; stroke: #000000; stroke-width: 2; stroke-linejoin: miter"/>
   </g>
   <g id="patch_9">
    <path d="M 113.256 390.456 
C 115.356409 390.456 117.371073 389.621499 118.856286 388.136286 
C 120.341499 386.651073 121.176 384.636409 121.176 382.536 
C 121.176 380.435591 120.341499 378.420927 118.856286 376.935714 
C 117.371073 375.450501 115.356409 374.616 113.256 374.616 
C 111.155591 374.616 109.140927 375.450501 107.655714 376.935714 
C 106.170501 378.420927 105.336 380.435591 105.336 382.536 
C 105.336 384.636409 106.170501 386.651073 107.655714 388.136286 
C 109.140927 389.621499 111.155591 390.456 113.256 390.456 
z
" clip-path="url(#p4cd4cc0dca)" style="fill: #ffffff; stroke: #000000; stroke-width: 2; stroke-linejoin: miter"/>
   </g>
   <g id="patch_10">
    <path d="M 113.256 342.936 
C 115.356409 342.936 117.371073 342.101499 118.856286 340.616286 
C 120.341499 339.131073 121.176 337.116409 121.176 335.016 
C 121.176 332.915591 120.341499 330.900927 118.856286 329.415714 
C 117.371073 327.930501 115.356409 327.096 113.256 327.096 
C 111.155591 327.096 109.140927 327.930501 107.655714 329.415714 
C 106.170501 330.900927 105.336 332.915591 105.336 335.016 
C 105.336 337.116409 106.170501 339.131073 107.655714 340.616286 
C 109.140927 342.101499 111.155591 342.936 113.256 342.936 
z
" clip-path="url(#p4cd4cc0dca)" style="fill: #ffffff; stroke: #000000; stroke-width: 2; stroke-linejoin: miter"/>
   </g>
   <g id="patch_11">
    <path d="M 113.256 295.416 
C 115.356409 295.416 117.371073 294.581499 118.856286 293.096286 
C 120.341499 291.611073 121.176 289.596409 121.176 287.496 
C 121.176 285.395591 120.341499 283.380927 118.856286 281.895714 
C 117.371073 280.410501 115.356409 279.576 113.256 279.576 
C 111.155591 279.576 109.140927 280.410501 107.655714 281.895714 
C 106.170501 283.380927 105.336 285.395591 105.336 287.496 
C 105.336 289.596409 106.170501 291.611073 107.655714 293.096286 
C 109.140927 294.581499 111.155591 295.416 113.256 295.416 
z
" clip-path="url(#p4cd4cc0dca)" style="fill: #ffffff; stroke: #000000; stroke-width: 2; stroke-linejoin: miter"/>
   </g>
   <g id="patch_12">
    <path d="M 113.256 247.896 
C 115.356409 247.896 117.371073 247.061499 118.856286 245.576286 
C 120.341499 244.091073 121.176 242.076409 121.176 239.976 
C 121.176 237.875591 120.341499 235.860927 118.856286 234.375714 
C 117.371073 232.890501 115.356409 232.056 113.256 232.056 
C 111.155591 232.056 109.140927 232.890501 107.655714 234.375714 
C 106.170501 235.860927 105.336 237.875591 105.336 239.976 
C 105.336 242.076409 106.170501 244.091073 107.655714 245.576286 
C 109.140927 247.061499 111.155591 247.896 113.256 247.896 
z
" clip-path="url(#p4cd4cc0dca)" style="fill: #ffffff; stroke: #000000; stroke-width: 2; stroke-linejoin: miter"/>
   </g>
   <g id="patch_13">
    <path d="M 34.056 802.296 
C 36.156409 802.296 38.171073 801.461499 39.656286 799.976286 
C 41.141499 798.491073 41.976 796.476409 41.976 794.376 
C 41.976 792.275591 41.141499 790.260927 39.656286 788.775714 
C 38.171073 787.290501 36.156409 786.456 34.056 786.456 
C 31.955591 786.456 29.940927 787.290501 28.455714 788.775714 
C 26.970501 790.260927 26.136 792.275591 26.136 794.376 
C 26.136 796.476409 26.970501 798.491073 28.455714 799.976286 
C 29.940927 801.461499 31.955591 802.296 34.056 802.296 
z
" clip-path="url(#p4cd4cc0dca)" style="fill: #ffffff; stroke: #000000; stroke-width: 2; stroke-linejoin: miter"/>
   </g>
   <g id="patch_14">
    <path d="M 34.056 754.776 
C 36.156409 754.776 38.171073 753.941499 39.656286 752.456286 
C 41.141499 750.971073 41.976 748.956409 41.976 746.856 
C 41.976 744.755591 41.141499 742.740927 39.656286 741.255714 
C 38.171073 739.770501 36.156409 738.936 34.056 738.936 
C 31.955591 738.936 29.940927 739.770501 28.455714 741.255714 
C 26.970501 742.740927 26.136 744.755591 26.136 746.856 
C 26.136 748.956409 26.970501 750.971073 28.455714 752.456286 
C 29.940927 753.941499 31.955591 754.776 34.056 754.776 
z
" clip-path="url(#p4cd4cc0dca)" style="fill: #ffffff; stroke: #000000; stroke-width: 2; stroke-linejoin: miter"/>
   </g>
   <g id="patch_15">
    <path d="M 34.056 707.256 
C 36.156409 707.256 38.171073 706.421499 39.656286 704.936286 
C 41.141499 703.451073 41.976 701.436409 41.976 699.336 
C 41.976 697.235591 41.141499 695.220927 39.656286 693.735714 
C 38.171073 692.250501 36.156409 691.416 34.056 691.416 
C 31.955591 691.416 29.940927 692.250501 28.455714 693.735714 
C 26.970501 695.220927 26.136 697.235591 26.136 699.336 
C 26.136 701.436409 26.970501 703.451073 28.455714 704.936286 
C 29.940927 706.421499 31.955591 707.256 34.056 707.256 
z
" clip-path="url(#p4cd4cc0dca)" style="fill: #ffffff; stroke: #000000; stroke-width: 2; stroke-linejoin: miter"/>
   </g>
   <g id="patch_16">
    <path d="M 34.056 659.736 
C 36.156409 659.736 38.171073 658.901499 39.656286 657.416286 
C 41.141499 655.931073 41.976 653.916409 41.976 651.816 
C 41.976 649.715591 41.141499 647.700927 39.656286 646.215714 
C 38.171073 644.730501 36.156409 643.896 34.056 643.896 
C 31.955591 643.896 29.940927 644.730501 28.455714 646.215714 
C 26.970501 647.700927 26.136 649.715591 26.136 651.816 
C 26.136 653.916409 26.970501 655.931073 28.455714 657.416286 
C 29.940927 658.901499 31.955591 659.736 34.056 659.736 
z
" clip-path="url(#p4cd4cc0dca)" style="fill: #ffffff; stroke: #000000; stroke-width: 2; stroke-linejoin: miter"/>
   </g>
   <g id="patch_17">
    <path d="M 34.056 612.216 
C 36.156409 612.216 38.171073 611.381499 39.656286 609.896286 
C 41.141499 608.411073 41.976 606.396409 41.976 604.296 
C 41.976 602.195591 41.141499 600.180927 39.656286 598.695714 
C 38.171073 597.210501 36.156409 596.376 34.056 596.376 
C 31.955591 596.376 29.940927 597.210501 28.455714 598.695714 
C 26.970501 600.180927 26.136 602.195591 26.136 604.296 
C 26.136 606.396409 26.970501 608.411073 28.455714 609.896286 
C 29.940927 611.381499 31.955591 612.216 34.056 612.216 
z
" clip-path="url(#p4cd4cc0dca)" style="fill: #ffffff; stroke: #000000; stroke-width: 2; stroke-linejoin: miter"/>
   </g>
   <g id="patch_18">
    <path d="M 34.056 564.696 
C 36.156409 564.696 38.171073 563.861499 39.656286 562.376286 
C 41.141499 560.891073 41.976 558.876409 41.976 556.776 
C 41.976 554.675591 41.141499 552.660927 39.656286 551.175714 
C 38.171073 549.690501 36.156409 548.856 34.056 548.856 
C 31.955591 548.856 29.940927 549.690501 28.455714 551.175714 
C 26.970501 552.660927 26.136 554.675591 26.136 556.776 
C 26.136 558.876409 26.970501 560.891073 28.455714 562.376286 
C 29.940927 563.861499 31.955591 564.696 34.056 564.696 
z
" clip-path="url(#p4cd4cc0dca)" style="fill: #ffffff; stroke: #000000; stroke-width: 2; stroke-linejoin: miter"/>
   </g>
   <g id="patch_19">
    <path d="M 34.056 517.176 
C 36.156409 517.176 38.171073 516.341499 39.656286 514.856286 
C 41.141499 513.371073 41.976 511.356409 41.976 509.256 
C 41.976 507.155591 41.141499 505.140927 39.656286 503.655714 
C 38.171073 502.170501 36.156409 501.336 34.056 501.336 
C 31.955591 501.336 29.940927 502.170501 28.455714 503.655714 
C 26.970501 505.140927 26.136 507.155591 26.136 509.256 
C 26.136 511.356409 26.970501 513.371073 28.455714 514.856286 
C 29.940927 516.341499 31.955591 517.176 34.056 517.176 
z
" clip-path="url(#p4cd4cc0dca)" style="fill: #ffffff; stroke: #000000; stroke-width: 2; stroke-linejoin: miter"/>
   </g>
   <g id="patch_20">
    <path d="M 34.056 469.656 
C 36.156409 469.656 38.171073 468.821499 39.656286 467.336286 
C 41.141499 465.851073 41.976 463.836409 41.976 461.736 
C 41.976 459.635591 41.141499 457.620927 39.656286 456.135714 
C 38.171073 454.650501 36.156409 453.816 34.056 453.816 
C 31.955591 453.816 29.940927 454.650501 28.455714 456.135714 
C 26.970501 457.620927 26.136 459.635591 26.136 461.736 
C 26.136 463.836409 26.970501 465.851073 28.455714 467.336286 
C 29.940927 468.821499 31.955591 469.656 34.056 469.656 
z
" clip-path="url(#p4cd4cc0dca)" style="fill: #ffffff; stroke: #000000; stroke-width: 2; stroke-linejoin: miter"/>
   </g>
  </g>
 </g>
 <defs>
  <clipPath id="p4cd4cc0dca">
   <rect x="0" y="-0" width="953.1984" height="1021.592"/>
  </clipPath>
 </defs>
</svg>
