<?xml version="1.0" encoding="utf-8" standalone="no"?>
<!DOCTYPE svg PUBLIC "-//W3C//DTD SVG 1.1//EN"
  "http://www.w3.org/Graphics/SVG/1.1/DTD/svg11.dtd">
<svg xmlns:xlink="http://www.w3.org/1999/xlink" width="562.902719pt" height="650.3584pt" viewBox="0 0 562.902719 650.3584" xmlns="http://www.w3.org/2000/svg" version="1.1">
 <metadata>
  <rdf:RDF xmlns:dc="http://purl.org/dc/elements/1.1/" xmlns:cc="http://creativecommons.org/ns#" xmlns:rdf="http://www.w3.org/1999/02/22-rdf-syntax-ns#">
   <cc:Work>
    <dc:type rdf:resource="http://purl.org/dc/dcmitype/StillImage"/>
    <dc:date>2026-07-20T21:44:32.169779</dc:date>
    <dc:format>image/svg+xml</dc:format>
    <dc:creator>
     <cc:Agent>
      <dc:title>Matplotlib v3.11.1, https://matplotlib.org/</dc:title>
     </cc:Agent>
    </dc:creator>
   </cc:Work>
  </rdf:RDF>
 </metadata>
 <defs>
  <style type="text/css">*{stroke-linejoin: round; stroke-linecap: butt}</style>
 </defs>
 <g id="figure_1">
  <g id="patch_1">
   <path d="M 0 650.3584 
L 562.902719 650.3584 
L 562.902719 0 
L 0 0 
L 0 650.3584 
z
" style="fill: none"/>
  </g>
  <g id="axes_1">
   <g id="line2d_1">
    <path d="M 211.614719 628.4864 
L 406.014719 628.4864 
L 406.014719 149.6576 
L 211.614719 149.6576 
L 211.614719 628.4864 
" clip-path="url(#pa74774bdde)" style="fill: none; stroke: #000000; stroke-width: 2; stroke-linecap: round"/>
   </g>
   <g id="line2d_2">
    <path d="M 211.614719 179.768 
L 192.174719 179.768 
" clip-path="url(#pa74774bdde)" style="fill: none; stroke: #000000; stroke-width: 2; stroke-linecap: round"/>
   </g>
   <g id="line2d_3">
    <path d="M 211.614719 201.8 
L 192.174719 201.8 
" clip-path="url(#pa74774bdde)" style="fill: none; stroke: #000000; stroke-width: 2; stroke-linecap: round"/>
   </g>
   <g id="line2d_4">
    <path d="M 211.614719 223.832 
L 192.174719 223.832 
" clip-path="url(#pa74774bdde)" style="fill: none; stroke: #000000; stroke-width: 2; stroke-linecap: round"/>
   </g>
   <g id="line2d_5">
    <path d="M 211.614719 245.864 
L 192.174719 245.864 
" clip-path="url(#pa74774bdde)" style="fill: none; stroke: #000000; stroke-width: 2; stroke-linecap: round"/>
   </g>
   <g id="line2d_6">
    <path d="M 211.614719 267.896 
L 192.174719 267.896 
" clip-path="url(#pa74774bdde)" style="fill: none; stroke: #000000; stroke-width: 2; stroke-linecap: round"/>
   </g>
   <g id="line2d_7">
    <path d="M 211.614719 289.928 
L 192.174719 289.928 
" clip-path="url(#pa74774bdde)" style="fill: none; stroke: #000000; stroke-width: 2; stroke-linecap: round"/>
   </g>
   <g id="line2d_8">
    <path d="M 211.614719 311.96 
L 192.174719 311.96 
" clip-path="url(#pa74774bdde)" style="fill: none; stroke: #000000; stroke-width: 2; stroke-linecap: round"/>
   </g>
   <g id="line2d_9">
    <path d="M 211.614719 333.992 
L 192.174719 333.992 
" clip-path="url(#pa74774bdde)" style="fill: none; stroke: #000000; stroke-width: 2; stroke-linecap: round"/>
   </g>
   <g id="line2d_10">
    <path d="M 211.614719 356.024 
L 192.174719 356.024 
" clip-path="url(#pa74774bdde)" style="fill: none; stroke: #000000; stroke-width: 2; stroke-linecap: round"/>
   </g>
   <g id="line2d_11">
    <path d="M 211.614719 378.056 
L 192.174719 378.056 
" clip-path="url(#pa74774bdde)" style="fill: none; stroke: #000000; stroke-width: 2; stroke-linecap: round"/>
   </g>
   <g id="line2d_12">
    <path d="M 211.614719 400.088 
L 192.174719 400.088 
" clip-path="url(#pa74774bdde)" style="fill: none; stroke: #000000; stroke-width: 2; stroke-linecap: round"/>
   </g>
   <g id="line2d_13">
    <path d="M 211.614719 422.12 
L 192.174719 422.12 
" clip-path="url(#pa74774bdde)" style="fill: none; stroke: #000000; stroke-width: 2; stroke-linecap: round"/>
   </g>
   <g id="line2d_14">
    <path d="M 211.614719 444.152 
L 192.174719 444.152 
" clip-path="url(#pa74774bdde)" style="fill: none; stroke: #000000; stroke-width: 2; stroke-linecap: round"/>
   </g>
   <g id="line2d_15">
    <path d="M 211.614719 466.184 
L 192.174719 466.184 
" clip-path="url(#pa74774bdde)" style="fill: none; stroke: #000000; stroke-width: 2; stroke-linecap: round"/>
   </g>
   <g id="line2d_16">
    <path d="M 211.614719 488.216 
L 192.174719 488.216 
" clip-path="url(#pa74774bdde)" style="fill: none; stroke: #000000; stroke-width: 2; stroke-linecap: round"/>
   </g>
   <g id="line2d_17">
    <path d="M 211.614719 510.248 
L 192.174719 510.248 
" clip-path="url(#pa74774bdde)" style="fill: none; stroke: #000000; stroke-width: 2; stroke-linecap: round"/>
   </g>
   <g id="line2d_18">
    <path d="M 211.614719 532.28 
L 192.174719 532.28 
" clip-path="url(#pa74774bdde)" style="fill: none; stroke: #000000; stroke-width: 2; stroke-linecap: round"/>
   </g>
   <g id="line2d_19">
    <path d="M 211.614719 554.312 
L 192.174719 554.312 
" clip-path="url(#pa74774bdde)" style="fill: none; stroke: #000000; stroke-width: 2; stroke-linecap: round"/>
   </g>
   <g id="line2d_20">
    <path d="M 211.614719 576.344 
L 192.174719 576.344 
" clip-path="url(#pa74774bdde)" style="fill: none; stroke: #000000; stroke-width: 2; stroke-linecap: round"/>
   </g>
   <g id="line2d_21">
    <path d="M 211.614719 598.376 
L 192.174719 598.376 
" clip-path="url(#pa74774bdde)" style="fill: none; stroke: #000000; stroke-width: 2; stroke-linecap: round"/>
   </g>
   <g id="line2d_22">
    <path d="M 406.014719 598.376 
L 425.454719 598.376 
" clip-path="url(#pa74774bdde)" style="fill: none; stroke: #000000; stroke-width: 2; stroke-linecap: round"/>
   </g>
   <g id="line2d_23">
    <path d="M 406.014719 576.344 
L 425.454719 576.344 
" clip-path="url(#pa74774bdde)" style="fill: none; stroke: #000000; stroke-width: 2; stroke-linecap: round"/>
   </g>
   <g id="line2d_24">
    <path d="M 406.014719 554.312 
L 425.454719 554.312 
" clip-path="url(#pa74774bdde)" style="fill: none; stroke: #000000; stroke-width: 2; stroke-linecap: round"/>
   </g>
   <g id="line2d_25">
    <path d="M 406.014719 532.28 
L 425.454719 532.28 
" clip-path="url(#pa74774bdde)" style="fill: none; stroke: #000000; stroke-width: 2; stroke-linecap: round"/>
   </g>
   <g id="line2d_26">
    <path d="M 406.014719 510.248 
L 425.454719 510.248 
" clip-path="url(#pa74774bdde)" style="fill: none; stroke: #000000; stroke-width: 2; stroke-linecap: round"/>
   </g>
   <g id="line2d_27">
    <path d="M 406.014719 311.96 
L 425.454719 311.96 
" clip-path="url(#pa74774bdde)" style="fill: none; stroke: #000000; stroke-width: 2; stroke-linecap: round"/>
   </g>
   <g id="line2d_28">
    <path d="M 406.014719 289.928 
L 425.454719 289.928 
" clip-path="url(#pa74774bdde)" style="fill: none; stroke: #000000; stroke-width: 2; stroke-linecap: round"/>
   </g>
   <g id="line2d_29">
    <path d="M 406.014719 267.896 
L 425.454719 267.896 
" clip-path="url(#pa74774bdde)" style="fill: none; stroke: #000000; stroke-width: 2; stroke-linecap: round"/>
   </g>
   <g id="line2d_30">
    <path d="M 406.014719 245.864 
L 425.454719 245.864 
" clip-path="url(#pa74774bdde)" style="fill: none; stroke: #000000; stroke-width: 2; stroke-linecap: round"/>
   </g>
   <g id="line2d_31">
    <path d="M 406.014719 223.832 
L 425.454719 223.832 
" clip-path="url(#pa74774bdde)" style="fill: none; stroke: #000000; stroke-width: 2; stroke-linecap: round"/>
   </g>
   <g id="line2d_32">
    <path d="M 406.014719 201.8 
L 425.454719 201.8 
" clip-path="url(#pa74774bdde)" style="fill: none; stroke: #000000; stroke-width: 2; stroke-linecap: round"/>
   </g>
   <g id="line2d_33">
    <path d="M 406.014719 179.768 
L 425.454719 179.768 
" clip-path="url(#pa74774bdde)" style="fill: none; stroke: #000000; stroke-width: 2; stroke-linecap: round"/>
   </g>
   <g id="line2d_34">
    <path d="M 192.174719 333.992 
L 133.854719 333.992 
L 75.534719 333.992 
" clip-path="url(#pa74774bdde)" style="fill: none; stroke: #000000; stroke-width: 2; stroke-linecap: round"/>
   </g>
   <g id="line2d_35">
    <path d="M 75.534719 333.992 
L 75.534719 319.304 
" clip-path="url(#pa74774bdde)" style="fill: none; stroke: #000000; stroke-width: 2; stroke-linecap: round"/>
   </g>
   <g id="line2d_36">
    <path d="M 75.534719 319.304 
L 68.244719 319.304 
" clip-path="url(#pa74774bdde)" style="fill: none; stroke: #000000; stroke-width: 2; stroke-linecap: round"/>
   </g>
   <g id="line2d_37">
    <path d="M 75.534719 319.304 
L 82.824719 319.304 
" clip-path="url(#pa74774bdde)" style="fill: none; stroke: #000000; stroke-width: 2; stroke-linecap: round"/>
   </g>
   <g id="line2d_38">
    <path d="M 75.534719 333.992 
L 75.534719 358.2272 
M 85.254719 358.2272 
L 65.814719 358.2272 
M 85.254719 364.8368 
L 65.814719 364.8368 
M 75.534719 364.8368 
L 75.534719 389.072 
" clip-path="url(#pa74774bdde)" style="fill: none; stroke: #000000; stroke-width: 2; stroke-linecap: round"/>
   </g>
   <g id="line2d_39">
    <path d="M 75.534719 389.072 
L 75.534719 403.76 
L 65.814719 403.76 
L 85.254719 403.76 
M 68.730719 408.1664 
L 82.338719 408.1664 
M 73.590719 412.5728 
L 77.478719 412.5728 
" clip-path="url(#pa74774bdde)" style="fill: none; stroke: #000000; stroke-width: 2; stroke-linecap: round"/>
   </g>
   <g id="line2d_40">
    <path d="M 425.454719 598.376 
L 483.774719 598.376 
L 542.094719 598.376 
" clip-path="url(#pa74774bdde)" style="fill: none; stroke: #000000; stroke-width: 2; stroke-linecap: round"/>
   </g>
   <g id="line2d_41">
    <path d="M 542.094719 598.376 
L 542.094719 613.064 
L 532.374719 613.064 
L 551.814719 613.064 
M 535.290719 617.4704 
L 548.898719 617.4704 
M 540.150719 621.8768 
L 544.038719 621.8768 
" clip-path="url(#pa74774bdde)" style="fill: none; stroke: #000000; stroke-width: 2; stroke-linecap: round"/>
   </g>
   <g id="line2d_42">
    <path d="M 192.174719 201.8 
L 182.454719 201.8 
L 172.734719 201.8 
" clip-path="url(#pa74774bdde)" style="fill: none; stroke: #000000; stroke-width: 2; stroke-linecap: round"/>
   </g>
   <g id="line2d_43">
    <path d="M 172.734719 201.8 
L 172.734719 174.26 
L 172.734719 146.72 
" clip-path="url(#pa74774bdde)" style="fill: none; stroke: #000000; stroke-width: 2; stroke-linecap: round"/>
   </g>
   <g id="line2d_44">
    <path d="M 172.734719 146.72 
L 172.734719 110 
L 163.014719 106.94 
L 182.454719 100.82 
L 163.014719 94.7 
L 182.454719 88.58 
L 163.014719 82.46 
L 182.454719 76.34 
L 172.734719 73.28 
L 172.734719 36.56 
" clip-path="url(#pa74774bdde)" style="fill: none; stroke: #000000; stroke-width: 2; stroke-linecap: round"/>
   </g>
   <g id="line2d_45">
    <path d="M 172.734719 36.56 
L 172.734719 21.872 
" clip-path="url(#pa74774bdde)" style="fill: none; stroke: #000000; stroke-width: 2; stroke-linecap: round"/>
   </g>
   <g id="line2d_46">
    <path d="M 172.734719 21.872 
L 165.444719 21.872 
" clip-path="url(#pa74774bdde)" style="fill: none; stroke: #000000; stroke-width: 2; stroke-linecap: round"/>
   </g>
   <g id="line2d_47">
    <path d="M 172.734719 21.872 
L 180.024719 21.872 
" clip-path="url(#pa74774bdde)" style="fill: none; stroke: #000000; stroke-width: 2; stroke-linecap: round"/>
   </g>
   <g id="line2d_48">
    <path d="M 192.174719 245.864 
L 172.734719 245.864 
L 153.294719 245.864 
" clip-path="url(#pa74774bdde)" style="fill: none; stroke: #000000; stroke-width: 2; stroke-linecap: round"/>
   </g>
   <g id="line2d_49">
    <path d="M 153.294719 245.864 
L 153.294719 218.324 
L 153.294719 190.784 
" clip-path="url(#pa74774bdde)" style="fill: none; stroke: #000000; stroke-width: 2; stroke-linecap: round"/>
   </g>
   <g id="line2d_50">
    <path d="M 153.294719 190.784 
L 153.294719 154.064 
L 143.574719 151.004 
L 163.014719 144.884 
L 143.574719 138.764 
L 163.014719 132.644 
L 143.574719 126.524 
L 163.014719 120.404 
L 153.294719 117.344 
L 153.294719 80.624 
" clip-path="url(#pa74774bdde)" style="fill: none; stroke: #000000; stroke-width: 2; stroke-linecap: round"/>
   </g>
   <g id="line2d_51">
    <path d="M 153.294719 80.624 
L 153.294719 65.936 
" clip-path="url(#pa74774bdde)" style="fill: none; stroke: #000000; stroke-width: 2; stroke-linecap: round"/>
   </g>
   <g id="line2d_52">
    <path d="M 153.294719 65.936 
L 146.004719 65.936 
" clip-path="url(#pa74774bdde)" style="fill: none; stroke: #000000; stroke-width: 2; stroke-linecap: round"/>
   </g>
   <g id="line2d_53">
    <path d="M 153.294719 65.936 
L 160.584719 65.936 
" clip-path="url(#pa74774bdde)" style="fill: none; stroke: #000000; stroke-width: 2; stroke-linecap: round"/>
   </g>
   <g id="line2d_54">
    <path d="M 192.174719 289.928 
L 163.014719 289.928 
L 133.854719 289.928 
" clip-path="url(#pa74774bdde)" style="fill: none; stroke: #000000; stroke-width: 2; stroke-linecap: round"/>
   </g>
   <g id="line2d_55">
    <path d="M 133.854719 289.928 
L 133.854719 262.388 
L 133.854719 234.848 
" clip-path="url(#pa74774bdde)" style="fill: none; stroke: #000000; stroke-width: 2; stroke-linecap: round"/>
   </g>
   <g id="line2d_56">
    <path d="M 133.854719 234.848 
L 133.854719 198.128 
L 124.134719 195.068 
L 143.574719 188.948 
L 124.134719 182.828 
L 143.574719 176.708 
L 124.134719 170.588 
L 143.574719 164.468 
L 133.854719 161.408 
L 133.854719 124.688 
" clip-path="url(#pa74774bdde)" style="fill: none; stroke: #000000; stroke-width: 2; stroke-linecap: round"/>
   </g>
   <g id="line2d_57">
    <path d="M 133.854719 124.688 
L 133.854719 110 
" clip-path="url(#pa74774bdde)" style="fill: none; stroke: #000000; stroke-width: 2; stroke-linecap: round"/>
   </g>
   <g id="line2d_58">
    <path d="M 133.854719 110 
L 126.564719 110 
" clip-path="url(#pa74774bdde)" style="fill: none; stroke: #000000; stroke-width: 2; stroke-linecap: round"/>
   </g>
   <g id="line2d_59">
    <path d="M 133.854719 110 
L 141.144719 110 
" clip-path="url(#pa74774bdde)" style="fill: none; stroke: #000000; stroke-width: 2; stroke-linecap: round"/>
   </g>
   <g id="line2d_60">
    <path d="M 425.454719 267.896 
L 441.006719 267.896 
L 456.558719 267.896 
" clip-path="url(#pa74774bdde)" style="fill: none; stroke: #000000; stroke-width: 2; stroke-linecap: round"/>
   </g>
   <g id="line2d_61">
    <path d="M 456.558719 267.896 
L 456.558719 240.356 
L 456.558719 212.816 
" clip-path="url(#pa74774bdde)" style="fill: none; stroke: #000000; stroke-width: 2; stroke-linecap: round"/>
   </g>
   <g id="line2d_62">
    <path d="M 456.558719 212.816 
L 456.558719 176.096 
L 446.838719 173.036 
L 466.278719 166.916 
L 446.838719 160.796 
L 466.278719 154.676 
L 446.838719 148.556 
L 466.278719 142.436 
L 456.558719 139.376 
L 456.558719 102.656 
" clip-path="url(#pa74774bdde)" style="fill: none; stroke: #000000; stroke-width: 2; stroke-linecap: round"/>
   </g>
   <g id="line2d_63">
    <path d="M 456.558719 102.656 
L 456.558719 87.968 
" clip-path="url(#pa74774bdde)" style="fill: none; stroke: #000000; stroke-width: 2; stroke-linecap: round"/>
   </g>
   <g id="line2d_64">
    <path d="M 456.558719 87.968 
L 449.268719 87.968 
" clip-path="url(#pa74774bdde)" style="fill: none; stroke: #000000; stroke-width: 2; stroke-linecap: round"/>
   </g>
   <g id="line2d_65">
    <path d="M 456.558719 87.968 
L 463.848719 87.968 
" clip-path="url(#pa74774bdde)" style="fill: none; stroke: #000000; stroke-width: 2; stroke-linecap: round"/>
   </g>
   <g id="line2d_66">
    <path d="M 425.454719 223.832 
L 460.446719 223.832 
L 495.438719 223.832 
" clip-path="url(#pa74774bdde)" style="fill: none; stroke: #000000; stroke-width: 2; stroke-linecap: round"/>
   </g>
   <g id="line2d_67">
    <path d="M 495.438719 223.832 
L 495.438719 196.292 
L 495.438719 168.752 
" clip-path="url(#pa74774bdde)" style="fill: none; stroke: #000000; stroke-width: 2; stroke-linecap: round"/>
   </g>
   <g id="line2d_68">
    <path d="M 495.438719 168.752 
L 495.438719 132.032 
L 485.718719 128.972 
L 505.158719 122.852 
L 485.718719 116.732 
L 505.158719 110.612 
L 485.718719 104.492 
L 505.158719 98.372 
L 495.438719 95.312 
L 495.438719 58.592 
" clip-path="url(#pa74774bdde)" style="fill: none; stroke: #000000; stroke-width: 2; stroke-linecap: round"/>
   </g>
   <g id="line2d_69">
    <path d="M 495.438719 58.592 
L 495.438719 43.904 
" clip-path="url(#pa74774bdde)" style="fill: none; stroke: #000000; stroke-width: 2; stroke-linecap: round"/>
   </g>
   <g id="line2d_70">
    <path d="M 495.438719 43.904 
L 488.148719 43.904 
" clip-path="url(#pa74774bdde)" style="fill: none; stroke: #000000; stroke-width: 2; stroke-linecap: round"/>
   </g>
   <g id="line2d_71">
    <path d="M 495.438719 43.904 
L 502.728719 43.904 
" clip-path="url(#pa74774bdde)" style="fill: none; stroke: #000000; stroke-width: 2; stroke-linecap: round"/>
   </g>
   <g id="line2d_72">
    <path d="M 192.174719 179.768 
L 184.398719 179.768 
L 176.622719 179.768 
" clip-path="url(#pa74774bdde)" style="fill: none; stroke: #000000; stroke-width: 2; stroke-linecap: round"/>
   </g>
   <g id="line2d_73">
    <path d="M 192.174719 267.896 
L 184.398719 267.896 
L 176.622719 267.896 
" clip-path="url(#pa74774bdde)" style="fill: none; stroke: #000000; stroke-width: 2; stroke-linecap: round"/>
   </g>
   <g id="line2d_74">
    <path d="M 192.174719 223.832 
L 184.398719 223.832 
L 176.622719 223.832 
" clip-path="url(#pa74774bdde)" style="fill: none; stroke: #000000; stroke-width: 2; stroke-linecap: round"/>
   </g>
   <g id="line2d_75">
    <path d="M 425.454719 289.928 
L 433.230719 289.928 
L 441.006719 289.928 
" clip-path="url(#pa74774bdde)" style="fill: none; stroke: #000000; stroke-width: 2; stroke-linecap: round"/>
   </g>
   <g id="line2d_76">
    <path d="M 425.454719 201.8 
L 433.230719 201.8 
L 441.006719 201.8 
" clip-path="url(#pa74774bdde)" style="fill: none; stroke: #000000; stroke-width: 2; stroke-linecap: round"/>
   </g>
   <g id="text_1">
    <!-- VPB -->
    <g transform="translate(217.446719 182.625422) scale(0.11 -0.11)">
     <defs>
      <path id="DejaVuSans-39" d="M 1831 0 
L 50 4666 
L 709 4666 
L 2188 738 
L 3669 4666 
L 4325 4666 
L 2547 0 
L 1831 0 
z
" transform="scale(0.015625)"/>
      <path id="DejaVuSans-33" d="M 1259 4147 
L 1259 2394 
L 2053 2394 
Q 2494 2394 2734 2622 
Q 2975 2850 2975 3272 
Q 2975 3691 2734 3919 
Q 2494 4147 2053 4147 
L 1259 4147 
z
M 628 4666 
L 2053 4666 
Q 2838 4666 3239 4311 
Q 3641 3956 3641 3272 
Q 3641 2581 3239 2228 
Q 2838 1875 2053 1875 
L 1259 1875 
L 1259 0 
L 628 0 
L 628 4666 
z
" transform="scale(0.015625)"/>
      <path id="DejaVuSans-25" d="M 1259 2228 
L 1259 519 
L 2272 519 
Q 2781 519 3026 730 
Q 3272 941 3272 1375 
Q 3272 1813 3026 2020 
Q 2781 2228 2272 2228 
L 1259 2228 
z
M 1259 4147 
L 1259 2741 
L 2194 2741 
Q 2656 2741 2882 2914 
Q 3109 3088 3109 3444 
Q 3109 3797 2882 3972 
Q 2656 4147 2194 4147 
L 1259 4147 
z
M 628 4666 
L 2241 4666 
Q 2963 4666 3353 4366 
Q 3744 4066 3744 3513 
Q 3744 3084 3544 2831 
Q 3344 2578 2956 2516 
Q 3422 2416 3680 2098 
Q 3938 1781 3938 1306 
Q 3938 681 3513 340 
Q 3088 0 2303 0 
L 628 0 
L 628 4666 
z
" transform="scale(0.015625)"/>
     </defs>
     <use xlink:href="#DejaVuSans-39"/>
     <use xlink:href="#DejaVuSans-33" transform="translate(68.40625 0)"/>
     <use xlink:href="#DejaVuSans-25" transform="translate(128.703125 0)"/>
    </g>
   </g>
   <g id="text_2">
    <!-- 1 -->
    <g transform="translate(202.671969 175.289422) scale(0.11 -0.11)">
     <defs>
      <path id="DejaVuSans-14" d="M 794 531 
L 1825 531 
L 1825 4091 
L 703 3866 
L 703 4441 
L 1819 4666 
L 2450 4666 
L 2450 531 
L 3481 531 
L 3481 0 
L 794 0 
L 794 531 
z
" transform="scale(0.015625)"/>
     </defs>
     <use xlink:href="#DejaVuSans-14"/>
    </g>
   </g>
   <g id="text_3">
    <!-- RDY -->
    <g transform="translate(217.446719 204.657422) scale(0.11 -0.11)">
     <defs>
      <path id="DejaVuSans-35" d="M 2841 2188 
Q 3044 2119 3236 1894 
Q 3428 1669 3622 1275 
L 4263 0 
L 3584 0 
L 2988 1197 
Q 2756 1666 2539 1819 
Q 2322 1972 1947 1972 
L 1259 1972 
L 1259 0 
L 628 0 
L 628 4666 
L 2053 4666 
Q 2853 4666 3247 4331 
Q 3641 3997 3641 3322 
Q 3641 2881 3436 2590 
Q 3231 2300 2841 2188 
z
M 1259 4147 
L 1259 2491 
L 2053 2491 
Q 2509 2491 2742 2702 
Q 2975 2913 2975 3322 
Q 2975 3731 2742 3939 
Q 2509 4147 2053 4147 
L 1259 4147 
z
" transform="scale(0.015625)"/>
      <path id="DejaVuSans-27" d="M 1259 4147 
L 1259 519 
L 2022 519 
Q 2988 519 3436 956 
Q 3884 1394 3884 2338 
Q 3884 3275 3436 3711 
Q 2988 4147 2022 4147 
L 1259 4147 
z
M 628 4666 
L 1925 4666 
Q 3281 4666 3915 4102 
Q 4550 3538 4550 2338 
Q 4550 1131 3912 565 
Q 3275 0 1925 0 
L 628 0 
L 628 4666 
z
" transform="scale(0.015625)"/>
      <path id="DejaVuSans-3c" d="M -13 4666 
L 666 4666 
L 1959 2747 
L 3244 4666 
L 3922 4666 
L 2272 2222 
L 2272 0 
L 1638 0 
L 1638 2222 
L -13 4666 
z
" transform="scale(0.015625)"/>
     </defs>
     <use xlink:href="#DejaVuSans-35"/>
     <use xlink:href="#DejaVuSans-27" transform="translate(69.484375 0)"/>
     <use xlink:href="#DejaVuSans-3c" transform="translate(141.015625 0)"/>
    </g>
   </g>
   <g id="text_4">
    <!-- 2 -->
    <g transform="translate(202.671969 197.321422) scale(0.11 -0.11)">
     <defs>
      <path id="DejaVuSans-15" d="M 1228 531 
L 3431 531 
L 3431 0 
L 469 0 
L 469 531 
Q 828 903 1448 1529 
Q 2069 2156 2228 2338 
Q 2531 2678 2651 2914 
Q 2772 3150 2772 3378 
Q 2772 3750 2511 3984 
Q 2250 4219 1831 4219 
Q 1534 4219 1204 4116 
Q 875 4013 500 3803 
L 500 4441 
Q 881 4594 1212 4672 
Q 1544 4750 1819 4750 
Q 2544 4750 2975 4387 
Q 3406 4025 3406 3419 
Q 3406 3131 3298 2873 
Q 3191 2616 2906 2266 
Q 2828 2175 2409 1742 
Q 1991 1309 1228 531 
z
" transform="scale(0.015625)"/>
     </defs>
     <use xlink:href="#DejaVuSans-15"/>
    </g>
   </g>
   <g id="text_5">
    <!-- PHI1O -->
    <g transform="translate(217.446719 226.689422) scale(0.11 -0.11)">
     <defs>
      <path id="DejaVuSans-2b" d="M 628 4666 
L 1259 4666 
L 1259 2753 
L 3553 2753 
L 3553 4666 
L 4184 4666 
L 4184 0 
L 3553 0 
L 3553 2222 
L 1259 2222 
L 1259 0 
L 628 0 
L 628 4666 
z
" transform="scale(0.015625)"/>
      <path id="DejaVuSans-2c" d="M 628 4666 
L 1259 4666 
L 1259 0 
L 628 0 
L 628 4666 
z
" transform="scale(0.015625)"/>
      <path id="DejaVuSans-32" d="M 2522 4238 
Q 1834 4238 1429 3725 
Q 1025 3213 1025 2328 
Q 1025 1447 1429 934 
Q 1834 422 2522 422 
Q 3209 422 3611 934 
Q 4013 1447 4013 2328 
Q 4013 3213 3611 3725 
Q 3209 4238 2522 4238 
z
M 2522 4750 
Q 3503 4750 4090 4092 
Q 4678 3434 4678 2328 
Q 4678 1225 4090 567 
Q 3503 -91 2522 -91 
Q 1538 -91 948 565 
Q 359 1222 359 2328 
Q 359 3434 948 4092 
Q 1538 4750 2522 4750 
z
" transform="scale(0.015625)"/>
     </defs>
     <use xlink:href="#DejaVuSans-33"/>
     <use xlink:href="#DejaVuSans-2b" transform="translate(60.296875 0)"/>
     <use xlink:href="#DejaVuSans-2c" transform="translate(135.5 0)"/>
     <use xlink:href="#DejaVuSans-14" transform="translate(165 0)"/>
     <use xlink:href="#DejaVuSans-32" transform="translate(228.625 0)"/>
    </g>
   </g>
   <g id="text_6">
    <!-- 3 -->
    <g transform="translate(202.671969 219.353422) scale(0.11 -0.11)">
     <defs>
      <path id="DejaVuSans-16" d="M 2597 2516 
Q 3050 2419 3304 2112 
Q 3559 1806 3559 1356 
Q 3559 666 3084 287 
Q 2609 -91 1734 -91 
Q 1441 -91 1130 -33 
Q 819 25 488 141 
L 488 750 
Q 750 597 1062 519 
Q 1375 441 1716 441 
Q 2309 441 2620 675 
Q 2931 909 2931 1356 
Q 2931 1769 2642 2001 
Q 2353 2234 1838 2234 
L 1294 2234 
L 1294 2753 
L 1863 2753 
Q 2328 2753 2575 2939 
Q 2822 3125 2822 3475 
Q 2822 3834 2567 4026 
Q 2313 4219 1838 4219 
Q 1578 4219 1281 4162 
Q 984 4106 628 3988 
L 628 4550 
Q 988 4650 1302 4700 
Q 1616 4750 1894 4750 
Q 2613 4750 3031 4423 
Q 3450 4097 3450 3541 
Q 3450 3153 3228 2886 
Q 3006 2619 2597 2516 
z
" transform="scale(0.015625)"/>
     </defs>
     <use xlink:href="#DejaVuSans-16"/>
    </g>
   </g>
   <g id="text_7">
    <!-- IRQB -->
    <g transform="translate(217.446719 248.721422) scale(0.11 -0.11)">
     <defs>
      <path id="DejaVuSans-34" d="M 2522 4238 
Q 1834 4238 1429 3725 
Q 1025 3213 1025 2328 
Q 1025 1447 1429 934 
Q 1834 422 2522 422 
Q 3209 422 3611 934 
Q 4013 1447 4013 2328 
Q 4013 3213 3611 3725 
Q 3209 4238 2522 4238 
z
M 3406 84 
L 4238 -825 
L 3475 -825 
L 2784 -78 
Q 2681 -84 2626 -87 
Q 2572 -91 2522 -91 
Q 1538 -91 948 567 
Q 359 1225 359 2328 
Q 359 3434 948 4092 
Q 1538 4750 2522 4750 
Q 3503 4750 4090 4092 
Q 4678 3434 4678 2328 
Q 4678 1516 4351 937 
Q 4025 359 3406 84 
z
" transform="scale(0.015625)"/>
     </defs>
     <use xlink:href="#DejaVuSans-2c"/>
     <use xlink:href="#DejaVuSans-35" transform="translate(29.5 0)"/>
     <use xlink:href="#DejaVuSans-34" transform="translate(98.984375 0)"/>
     <use xlink:href="#DejaVuSans-25" transform="translate(177.703125 0)"/>
    </g>
   </g>
   <g id="text_8">
    <!-- 4 -->
    <g transform="translate(202.671969 241.385422) scale(0.11 -0.11)">
     <defs>
      <path id="DejaVuSans-17" d="M 2419 4116 
L 825 1625 
L 2419 1625 
L 2419 4116 
z
M 2253 4666 
L 3047 4666 
L 3047 1625 
L 3713 1625 
L 3713 1100 
L 3047 1100 
L 3047 0 
L 2419 0 
L 2419 1100 
L 313 1100 
L 313 1709 
L 2253 4666 
z
" transform="scale(0.015625)"/>
     </defs>
     <use xlink:href="#DejaVuSans-17"/>
    </g>
   </g>
   <g id="text_9">
    <!-- MLB -->
    <g transform="translate(217.446719 270.753422) scale(0.11 -0.11)">
     <defs>
      <path id="DejaVuSans-30" d="M 628 4666 
L 1569 4666 
L 2759 1491 
L 3956 4666 
L 4897 4666 
L 4897 0 
L 4281 0 
L 4281 4097 
L 3078 897 
L 2444 897 
L 1241 4097 
L 1241 0 
L 628 0 
L 628 4666 
z
" transform="scale(0.015625)"/>
      <path id="DejaVuSans-2f" d="M 628 4666 
L 1259 4666 
L 1259 531 
L 3531 531 
L 3531 0 
L 628 0 
L 628 4666 
z
" transform="scale(0.015625)"/>
     </defs>
     <use xlink:href="#DejaVuSans-30"/>
     <use xlink:href="#DejaVuSans-2f" transform="translate(86.28125 0)"/>
     <use xlink:href="#DejaVuSans-25" transform="translate(142 0)"/>
    </g>
   </g>
   <g id="text_10">
    <!-- 5 -->
    <g transform="translate(202.671969 263.417422) scale(0.11 -0.11)">
     <defs>
      <path id="DejaVuSans-18" d="M 691 4666 
L 3169 4666 
L 3169 4134 
L 1269 4134 
L 1269 2991 
Q 1406 3038 1543 3061 
Q 1681 3084 1819 3084 
Q 2600 3084 3056 2656 
Q 3513 2228 3513 1497 
Q 3513 744 3044 326 
Q 2575 -91 1722 -91 
Q 1428 -91 1123 -41 
Q 819 9 494 109 
L 494 744 
Q 775 591 1075 516 
Q 1375 441 1709 441 
Q 2250 441 2565 725 
Q 2881 1009 2881 1497 
Q 2881 1984 2565 2268 
Q 2250 2553 1709 2553 
Q 1456 2553 1204 2497 
Q 953 2441 691 2322 
L 691 4666 
z
" transform="scale(0.015625)"/>
     </defs>
     <use xlink:href="#DejaVuSans-18"/>
    </g>
   </g>
   <g id="text_11">
    <!-- NMIB -->
    <g transform="translate(217.446719 292.785422) scale(0.11 -0.11)">
     <defs>
      <path id="DejaVuSans-31" d="M 628 4666 
L 1478 4666 
L 3547 763 
L 3547 4666 
L 4159 4666 
L 4159 0 
L 3309 0 
L 1241 3903 
L 1241 0 
L 628 0 
L 628 4666 
z
" transform="scale(0.015625)"/>
     </defs>
     <use xlink:href="#DejaVuSans-31"/>
     <use xlink:href="#DejaVuSans-30" transform="translate(74.8125 0)"/>
     <use xlink:href="#DejaVuSans-2c" transform="translate(161.09375 0)"/>
     <use xlink:href="#DejaVuSans-25" transform="translate(190.59375 0)"/>
    </g>
   </g>
   <g id="text_12">
    <!-- 6 -->
    <g transform="translate(202.671969 285.449422) scale(0.11 -0.11)">
     <defs>
      <path id="DejaVuSans-19" d="M 2113 2584 
Q 1688 2584 1439 2293 
Q 1191 2003 1191 1497 
Q 1191 994 1439 701 
Q 1688 409 2113 409 
Q 2538 409 2786 701 
Q 3034 994 3034 1497 
Q 3034 2003 2786 2293 
Q 2538 2584 2113 2584 
z
M 3366 4563 
L 3366 3988 
Q 3128 4100 2886 4159 
Q 2644 4219 2406 4219 
Q 1781 4219 1451 3797 
Q 1122 3375 1075 2522 
Q 1259 2794 1537 2939 
Q 1816 3084 2150 3084 
Q 2853 3084 3261 2657 
Q 3669 2231 3669 1497 
Q 3669 778 3244 343 
Q 2819 -91 2113 -91 
Q 1303 -91 875 529 
Q 447 1150 447 2328 
Q 447 3434 972 4092 
Q 1497 4750 2381 4750 
Q 2619 4750 2861 4703 
Q 3103 4656 3366 4563 
z
" transform="scale(0.015625)"/>
     </defs>
     <use xlink:href="#DejaVuSans-19"/>
    </g>
   </g>
   <g id="text_13">
    <!-- SYNC -->
    <g transform="translate(217.446719 314.817422) scale(0.11 -0.11)">
     <defs>
      <path id="DejaVuSans-36" d="M 3425 4513 
L 3425 3897 
Q 3066 4069 2747 4153 
Q 2428 4238 2131 4238 
Q 1616 4238 1336 4038 
Q 1056 3838 1056 3469 
Q 1056 3159 1242 3001 
Q 1428 2844 1947 2747 
L 2328 2669 
Q 3034 2534 3370 2195 
Q 3706 1856 3706 1288 
Q 3706 609 3251 259 
Q 2797 -91 1919 -91 
Q 1588 -91 1214 -16 
Q 841 59 441 206 
L 441 856 
Q 825 641 1194 531 
Q 1563 422 1919 422 
Q 2459 422 2753 634 
Q 3047 847 3047 1241 
Q 3047 1584 2836 1778 
Q 2625 1972 2144 2069 
L 1759 2144 
Q 1053 2284 737 2584 
Q 422 2884 422 3419 
Q 422 4038 858 4394 
Q 1294 4750 2059 4750 
Q 2388 4750 2728 4690 
Q 3069 4631 3425 4513 
z
" transform="scale(0.015625)"/>
      <path id="DejaVuSans-26" d="M 4122 4306 
L 4122 3641 
Q 3803 3938 3442 4084 
Q 3081 4231 2675 4231 
Q 1875 4231 1450 3742 
Q 1025 3253 1025 2328 
Q 1025 1406 1450 917 
Q 1875 428 2675 428 
Q 3081 428 3442 575 
Q 3803 722 4122 1019 
L 4122 359 
Q 3791 134 3420 21 
Q 3050 -91 2638 -91 
Q 1578 -91 968 557 
Q 359 1206 359 2328 
Q 359 3453 968 4101 
Q 1578 4750 2638 4750 
Q 3056 4750 3426 4639 
Q 3797 4528 4122 4306 
z
" transform="scale(0.015625)"/>
     </defs>
     <use xlink:href="#DejaVuSans-36"/>
     <use xlink:href="#DejaVuSans-3c" transform="translate(63.484375 0)"/>
     <use xlink:href="#DejaVuSans-31" transform="translate(124.5625 0)"/>
     <use xlink:href="#DejaVuSans-26" transform="translate(199.375 0)"/>
    </g>
   </g>
   <g id="text_14">
    <!-- 7 -->
    <g transform="translate(202.671969 307.481422) scale(0.11 -0.11)">
     <defs>
      <path id="DejaVuSans-1a" d="M 525 4666 
L 3525 4666 
L 3525 4397 
L 1831 0 
L 1172 0 
L 2766 4134 
L 525 4134 
L 525 4666 
z
" transform="scale(0.015625)"/>
     </defs>
     <use xlink:href="#DejaVuSans-1a"/>
    </g>
   </g>
   <g id="text_15">
    <!-- VDD -->
    <g transform="translate(217.446719 336.849422) scale(0.11 -0.11)">
     <use xlink:href="#DejaVuSans-39"/>
     <use xlink:href="#DejaVuSans-27" transform="translate(68.40625 0)"/>
     <use xlink:href="#DejaVuSans-27" transform="translate(145.40625 0)"/>
    </g>
   </g>
   <g id="text_16">
    <!-- 8 -->
    <g transform="translate(202.671969 329.513422) scale(0.11 -0.11)">
     <defs>
      <path id="DejaVuSans-1b" d="M 2034 2216 
Q 1584 2216 1326 1975 
Q 1069 1734 1069 1313 
Q 1069 891 1326 650 
Q 1584 409 2034 409 
Q 2484 409 2743 651 
Q 3003 894 3003 1313 
Q 3003 1734 2745 1975 
Q 2488 2216 2034 2216 
z
M 1403 2484 
Q 997 2584 770 2862 
Q 544 3141 544 3541 
Q 544 4100 942 4425 
Q 1341 4750 2034 4750 
Q 2731 4750 3128 4425 
Q 3525 4100 3525 3541 
Q 3525 3141 3298 2862 
Q 3072 2584 2669 2484 
Q 3125 2378 3379 2068 
Q 3634 1759 3634 1313 
Q 3634 634 3220 271 
Q 2806 -91 2034 -91 
Q 1263 -91 848 271 
Q 434 634 434 1313 
Q 434 1759 690 2068 
Q 947 2378 1403 2484 
z
M 1172 3481 
Q 1172 3119 1398 2916 
Q 1625 2713 2034 2713 
Q 2441 2713 2670 2916 
Q 2900 3119 2900 3481 
Q 2900 3844 2670 4047 
Q 2441 4250 2034 4250 
Q 1625 4250 1398 4047 
Q 1172 3844 1172 3481 
z
" transform="scale(0.015625)"/>
     </defs>
     <use xlink:href="#DejaVuSans-1b"/>
    </g>
   </g>
   <g id="text_17">
    <!-- A0 -->
    <g transform="translate(217.446719 358.881422) scale(0.11 -0.11)">
     <defs>
      <path id="DejaVuSans-24" d="M 2188 4044 
L 1331 1722 
L 3047 1722 
L 2188 4044 
z
M 1831 4666 
L 2547 4666 
L 4325 0 
L 3669 0 
L 3244 1197 
L 1141 1197 
L 716 0 
L 50 0 
L 1831 4666 
z
" transform="scale(0.015625)"/>
      <path id="DejaVuSans-13" d="M 2034 4250 
Q 1547 4250 1301 3770 
Q 1056 3291 1056 2328 
Q 1056 1369 1301 889 
Q 1547 409 2034 409 
Q 2525 409 2770 889 
Q 3016 1369 3016 2328 
Q 3016 3291 2770 3770 
Q 2525 4250 2034 4250 
z
M 2034 4750 
Q 2819 4750 3233 4129 
Q 3647 3509 3647 2328 
Q 3647 1150 3233 529 
Q 2819 -91 2034 -91 
Q 1250 -91 836 529 
Q 422 1150 422 2328 
Q 422 3509 836 4129 
Q 1250 4750 2034 4750 
z
" transform="scale(0.015625)"/>
     </defs>
     <use xlink:href="#DejaVuSans-24"/>
     <use xlink:href="#DejaVuSans-13" transform="translate(68.40625 0)"/>
    </g>
   </g>
   <g id="text_18">
    <!-- 9 -->
    <g transform="translate(202.671969 351.545422) scale(0.11 -0.11)">
     <defs>
      <path id="DejaVuSans-1c" d="M 703 97 
L 703 672 
Q 941 559 1184 500 
Q 1428 441 1663 441 
Q 2288 441 2617 861 
Q 2947 1281 2994 2138 
Q 2813 1869 2534 1725 
Q 2256 1581 1919 1581 
Q 1219 1581 811 2004 
Q 403 2428 403 3163 
Q 403 3881 828 4315 
Q 1253 4750 1959 4750 
Q 2769 4750 3195 4129 
Q 3622 3509 3622 2328 
Q 3622 1225 3098 567 
Q 2575 -91 1691 -91 
Q 1453 -91 1209 -44 
Q 966 3 703 97 
z
M 1959 2075 
Q 2384 2075 2632 2365 
Q 2881 2656 2881 3163 
Q 2881 3666 2632 3958 
Q 2384 4250 1959 4250 
Q 1534 4250 1286 3958 
Q 1038 3666 1038 3163 
Q 1038 2656 1286 2365 
Q 1534 2075 1959 2075 
z
" transform="scale(0.015625)"/>
     </defs>
     <use xlink:href="#DejaVuSans-1c"/>
    </g>
   </g>
   <g id="text_19">
    <!-- A1 -->
    <g transform="translate(217.446719 380.913422) scale(0.11 -0.11)">
     <use xlink:href="#DejaVuSans-24"/>
     <use xlink:href="#DejaVuSans-14" transform="translate(68.40625 0)"/>
    </g>
   </g>
   <g id="text_20">
    <!-- 10 -->
    <g transform="translate(195.673219 373.577422) scale(0.11 -0.11)">
     <use xlink:href="#DejaVuSans-14"/>
     <use xlink:href="#DejaVuSans-13" transform="translate(63.625 0)"/>
    </g>
   </g>
   <g id="text_21">
    <!-- A2 -->
    <g transform="translate(217.446719 402.945422) scale(0.11 -0.11)">
     <use xlink:href="#DejaVuSans-24"/>
     <use xlink:href="#DejaVuSans-15" transform="translate(68.40625 0)"/>
    </g>
   </g>
   <g id="text_22">
    <!-- 11 -->
    <g transform="translate(195.673219 395.609422) scale(0.11 -0.11)">
     <use xlink:href="#DejaVuSans-14"/>
     <use xlink:href="#DejaVuSans-14" transform="translate(63.625 0)"/>
    </g>
   </g>
   <g id="text_23">
    <!-- A3 -->
    <g transform="translate(217.446719 424.977422) scale(0.11 -0.11)">
     <use xlink:href="#DejaVuSans-24"/>
     <use xlink:href="#DejaVuSans-16" transform="translate(68.40625 0)"/>
    </g>
   </g>
   <g id="text_24">
    <!-- 12 -->
    <g transform="translate(195.673219 417.641422) scale(0.11 -0.11)">
     <use xlink:href="#DejaVuSans-14"/>
     <use xlink:href="#DejaVuSans-15" transform="translate(63.625 0)"/>
    </g>
   </g>
   <g id="text_25">
    <!-- A4 -->
    <g transform="translate(217.446719 447.009422) scale(0.11 -0.11)">
     <use xlink:href="#DejaVuSans-24"/>
     <use xlink:href="#DejaVuSans-17" transform="translate(68.40625 0)"/>
    </g>
   </g>
   <g id="text_26">
    <!-- 13 -->
    <g transform="translate(195.673219 439.673422) scale(0.11 -0.11)">
     <use xlink:href="#DejaVuSans-14"/>
     <use xlink:href="#DejaVuSans-16" transform="translate(63.625 0)"/>
    </g>
   </g>
   <g id="text_27">
    <!-- A5 -->
    <g transform="translate(217.446719 469.041422) scale(0.11 -0.11)">
     <use xlink:href="#DejaVuSans-24"/>
     <use xlink:href="#DejaVuSans-18" transform="translate(68.40625 0)"/>
    </g>
   </g>
   <g id="text_28">
    <!-- 14 -->
    <g transform="translate(195.673219 461.705422) scale(0.11 -0.11)">
     <use xlink:href="#DejaVuSans-14"/>
     <use xlink:href="#DejaVuSans-17" transform="translate(63.625 0)"/>
    </g>
   </g>
   <g id="text_29">
    <!-- A6 -->
    <g transform="translate(217.446719 491.073422) scale(0.11 -0.11)">
     <use xlink:href="#DejaVuSans-24"/>
     <use xlink:href="#DejaVuSans-19" transform="translate(68.40625 0)"/>
    </g>
   </g>
   <g id="text_30">
    <!-- 15 -->
    <g transform="translate(195.673219 483.737422) scale(0.11 -0.11)">
     <use xlink:href="#DejaVuSans-14"/>
     <use xlink:href="#DejaVuSans-18" transform="translate(63.625 0)"/>
    </g>
   </g>
   <g id="text_31">
    <!-- A7 -->
    <g transform="translate(217.446719 513.105422) scale(0.11 -0.11)">
     <use xlink:href="#DejaVuSans-24"/>
     <use xlink:href="#DejaVuSans-1a" transform="translate(68.40625 0)"/>
    </g>
   </g>
   <g id="text_32">
    <!-- 16 -->
    <g transform="translate(195.673219 505.769422) scale(0.11 -0.11)">
     <use xlink:href="#DejaVuSans-14"/>
     <use xlink:href="#DejaVuSans-19" transform="translate(63.625 0)"/>
    </g>
   </g>
   <g id="text_33">
    <!-- A8 -->
    <g transform="translate(217.446719 535.137422) scale(0.11 -0.11)">
     <use xlink:href="#DejaVuSans-24"/>
     <use xlink:href="#DejaVuSans-1b" transform="translate(68.40625 0)"/>
    </g>
   </g>
   <g id="text_34">
    <!-- 17 -->
    <g transform="translate(195.673219 527.801422) scale(0.11 -0.11)">
     <use xlink:href="#DejaVuSans-14"/>
     <use xlink:href="#DejaVuSans-1a" transform="translate(63.625 0)"/>
    </g>
   </g>
   <g id="text_35">
    <!-- A9 -->
    <g transform="translate(217.446719 557.169422) scale(0.11 -0.11)">
     <use xlink:href="#DejaVuSans-24"/>
     <use xlink:href="#DejaVuSans-1c" transform="translate(68.40625 0)"/>
    </g>
   </g>
   <g id="text_36">
    <!-- 18 -->
    <g transform="translate(195.673219 549.833422) scale(0.11 -0.11)">
     <use xlink:href="#DejaVuSans-14"/>
     <use xlink:href="#DejaVuSans-1b" transform="translate(63.625 0)"/>
    </g>
   </g>
   <g id="text_37">
    <!-- A10 -->
    <g transform="translate(217.446719 579.201422) scale(0.11 -0.11)">
     <use xlink:href="#DejaVuSans-24"/>
     <use xlink:href="#DejaVuSans-14" transform="translate(68.40625 0)"/>
     <use xlink:href="#DejaVuSans-13" transform="translate(132.03125 0)"/>
    </g>
   </g>
   <g id="text_38">
    <!-- 19 -->
    <g transform="translate(195.673219 571.865422) scale(0.11 -0.11)">
     <use xlink:href="#DejaVuSans-14"/>
     <use xlink:href="#DejaVuSans-1c" transform="translate(63.625 0)"/>
    </g>
   </g>
   <g id="text_39">
    <!-- A11 -->
    <g transform="translate(217.446719 601.233422) scale(0.11 -0.11)">
     <use xlink:href="#DejaVuSans-24"/>
     <use xlink:href="#DejaVuSans-14" transform="translate(68.40625 0)"/>
     <use xlink:href="#DejaVuSans-14" transform="translate(132.03125 0)"/>
    </g>
   </g>
   <g id="text_40">
    <!-- 20 -->
    <g transform="translate(195.673219 593.897422) scale(0.11 -0.11)">
     <use xlink:href="#DejaVuSans-15"/>
     <use xlink:href="#DejaVuSans-13" transform="translate(63.625 0)"/>
    </g>
   </g>
   <g id="text_41">
    <!-- VSS -->
    <g transform="translate(378.691469 601.233422) scale(0.11 -0.11)">
     <use xlink:href="#DejaVuSans-39"/>
     <use xlink:href="#DejaVuSans-36" transform="translate(68.40625 0)"/>
     <use xlink:href="#DejaVuSans-36" transform="translate(131.890625 0)"/>
    </g>
   </g>
   <g id="text_42">
    <!-- 21 -->
    <g transform="translate(407.958719 593.897422) scale(0.11 -0.11)">
     <use xlink:href="#DejaVuSans-15"/>
     <use xlink:href="#DejaVuSans-14" transform="translate(63.625 0)"/>
    </g>
   </g>
   <g id="text_43">
    <!-- A12 -->
    <g transform="translate(378.660531 579.201422) scale(0.11 -0.11)">
     <use xlink:href="#DejaVuSans-24"/>
     <use xlink:href="#DejaVuSans-14" transform="translate(68.40625 0)"/>
     <use xlink:href="#DejaVuSans-15" transform="translate(132.03125 0)"/>
    </g>
   </g>
   <g id="text_44">
    <!-- 22 -->
    <g transform="translate(407.958719 571.865422) scale(0.11 -0.11)">
     <use xlink:href="#DejaVuSans-15"/>
     <use xlink:href="#DejaVuSans-15" transform="translate(63.625 0)"/>
    </g>
   </g>
   <g id="text_45">
    <!-- A13 -->
    <g transform="translate(378.660531 557.169422) scale(0.11 -0.11)">
     <use xlink:href="#DejaVuSans-24"/>
     <use xlink:href="#DejaVuSans-14" transform="translate(68.40625 0)"/>
     <use xlink:href="#DejaVuSans-16" transform="translate(132.03125 0)"/>
    </g>
   </g>
   <g id="text_46">
    <!-- 23 -->
    <g transform="translate(407.958719 549.833422) scale(0.11 -0.11)">
     <use xlink:href="#DejaVuSans-15"/>
     <use xlink:href="#DejaVuSans-16" transform="translate(63.625 0)"/>
    </g>
   </g>
   <g id="text_47">
    <!-- A14 -->
    <g transform="translate(378.660531 535.137422) scale(0.11 -0.11)">
     <use xlink:href="#DejaVuSans-24"/>
     <use xlink:href="#DejaVuSans-14" transform="translate(68.40625 0)"/>
     <use xlink:href="#DejaVuSans-17" transform="translate(132.03125 0)"/>
    </g>
   </g>
   <g id="text_48">
    <!-- 24 -->
    <g transform="translate(407.958719 527.801422) scale(0.11 -0.11)">
     <use xlink:href="#DejaVuSans-15"/>
     <use xlink:href="#DejaVuSans-17" transform="translate(63.625 0)"/>
    </g>
   </g>
   <g id="text_49">
    <!-- A15 -->
    <g transform="translate(378.660531 513.105422) scale(0.11 -0.11)">
     <use xlink:href="#DejaVuSans-24"/>
     <use xlink:href="#DejaVuSans-14" transform="translate(68.40625 0)"/>
     <use xlink:href="#DejaVuSans-18" transform="translate(132.03125 0)"/>
    </g>
   </g>
   <g id="text_50">
    <!-- 25 -->
    <g transform="translate(407.958719 505.769422) scale(0.11 -0.11)">
     <use xlink:href="#DejaVuSans-15"/>
     <use xlink:href="#DejaVuSans-18" transform="translate(63.625 0)"/>
    </g>
   </g>
   <g id="text_51">
    <!-- RWB -->
    <g transform="translate(374.561312 314.817422) scale(0.11 -0.11)">
     <defs>
      <path id="DejaVuSans-3a" d="M 213 4666 
L 850 4666 
L 1831 722 
L 2809 4666 
L 3519 4666 
L 4500 722 
L 5478 4666 
L 6119 4666 
L 4947 0 
L 4153 0 
L 3169 4050 
L 2175 0 
L 1381 0 
L 213 4666 
z
" transform="scale(0.015625)"/>
     </defs>
     <use xlink:href="#DejaVuSans-35"/>
     <use xlink:href="#DejaVuSans-3a" transform="translate(65.4375 0)"/>
     <use xlink:href="#DejaVuSans-25" transform="translate(164.3125 0)"/>
    </g>
   </g>
   <g id="text_52">
    <!-- 34 -->
    <g transform="translate(407.958719 307.481422) scale(0.11 -0.11)">
     <use xlink:href="#DejaVuSans-16"/>
     <use xlink:href="#DejaVuSans-17" transform="translate(63.625 0)"/>
    </g>
   </g>
   <g id="text_53">
    <!-- NC -->
    <g transform="translate(384.27225 292.785422) scale(0.11 -0.11)">
     <use xlink:href="#DejaVuSans-31"/>
     <use xlink:href="#DejaVuSans-26" transform="translate(74.8125 0)"/>
    </g>
   </g>
   <g id="text_54">
    <!-- 35 -->
    <g transform="translate(407.958719 285.449422) scale(0.11 -0.11)">
     <use xlink:href="#DejaVuSans-16"/>
     <use xlink:href="#DejaVuSans-18" transform="translate(63.625 0)"/>
    </g>
   </g>
   <g id="text_55">
    <!-- BE -->
    <g transform="translate(385.685062 270.753422) scale(0.11 -0.11)">
     <defs>
      <path id="DejaVuSans-28" d="M 628 4666 
L 3578 4666 
L 3578 4134 
L 1259 4134 
L 1259 2753 
L 3481 2753 
L 3481 2222 
L 1259 2222 
L 1259 531 
L 3634 531 
L 3634 0 
L 628 0 
L 628 4666 
z
" transform="scale(0.015625)"/>
     </defs>
     <use xlink:href="#DejaVuSans-25"/>
     <use xlink:href="#DejaVuSans-28" transform="translate(68.609375 0)"/>
    </g>
   </g>
   <g id="text_56">
    <!-- 36 -->
    <g transform="translate(407.958719 263.417422) scale(0.11 -0.11)">
     <use xlink:href="#DejaVuSans-16"/>
     <use xlink:href="#DejaVuSans-19" transform="translate(63.625 0)"/>
    </g>
   </g>
   <g id="text_57">
    <!-- PHI2 -->
    <g transform="translate(375.033969 248.721422) scale(0.11 -0.11)">
     <use xlink:href="#DejaVuSans-33"/>
     <use xlink:href="#DejaVuSans-2b" transform="translate(60.296875 0)"/>
     <use xlink:href="#DejaVuSans-2c" transform="translate(135.5 0)"/>
     <use xlink:href="#DejaVuSans-15" transform="translate(165 0)"/>
    </g>
   </g>
   <g id="text_58">
    <!-- 37 -->
    <g transform="translate(407.958719 241.385422) scale(0.11 -0.11)">
     <use xlink:href="#DejaVuSans-16"/>
     <use xlink:href="#DejaVuSans-1a" transform="translate(63.625 0)"/>
    </g>
   </g>
   <g id="text_59">
    <!-- SOB -->
    <g transform="translate(376.993344 226.689422) scale(0.11 -0.11)">
     <use xlink:href="#DejaVuSans-36"/>
     <use xlink:href="#DejaVuSans-32" transform="translate(63.484375 0)"/>
     <use xlink:href="#DejaVuSans-25" transform="translate(142.203125 0)"/>
    </g>
   </g>
   <g id="text_60">
    <!-- 38 -->
    <g transform="translate(407.958719 219.353422) scale(0.11 -0.11)">
     <use xlink:href="#DejaVuSans-16"/>
     <use xlink:href="#DejaVuSans-1b" transform="translate(63.625 0)"/>
    </g>
   </g>
   <g id="text_61">
    <!-- PHI2O -->
    <g transform="translate(366.374906 204.657422) scale(0.11 -0.11)">
     <use xlink:href="#DejaVuSans-33"/>
     <use xlink:href="#DejaVuSans-2b" transform="translate(60.296875 0)"/>
     <use xlink:href="#DejaVuSans-2c" transform="translate(135.5 0)"/>
     <use xlink:href="#DejaVuSans-15" transform="translate(165 0)"/>
     <use xlink:href="#DejaVuSans-32" transform="translate(228.625 0)"/>
    </g>
   </g>
   <g id="text_62">
    <!-- 39 -->
    <g transform="translate(407.958719 197.321422) scale(0.11 -0.11)">
     <use xlink:href="#DejaVuSans-16"/>
     <use xlink:href="#DejaVuSans-1c" transform="translate(63.625 0)"/>
    </g>
   </g>
   <g id="text_63">
    <!-- RESB -->
    <g transform="translate(371.0585 182.625422) scale(0.11 -0.11)">
     <use xlink:href="#DejaVuSans-35"/>
     <use xlink:href="#DejaVuSans-28" transform="translate(69.484375 0)"/>
     <use xlink:href="#DejaVuSans-36" transform="translate(132.671875 0)"/>
     <use xlink:href="#DejaVuSans-25" transform="translate(196.15625 0)"/>
    </g>
   </g>
   <g id="text_64">
    <!-- 40 -->
    <g transform="translate(407.958719 175.289422) scale(0.11 -0.11)">
     <use xlink:href="#DejaVuSans-17"/>
     <use xlink:href="#DejaVuSans-13" transform="translate(63.625 0)"/>
    </g>
   </g>
   <g id="text_65">
    <!-- W65C02S CPU -->
    <g transform="translate(269.11675 640.515822) scale(0.11 -0.11)">
     <defs>
      <path id="DejaVuSans-3" transform="scale(0.015625)"/>
      <path id="DejaVuSans-38" d="M 556 4666 
L 1191 4666 
L 1191 1831 
Q 1191 1081 1462 751 
Q 1734 422 2344 422 
Q 2950 422 3222 751 
Q 3494 1081 3494 1831 
L 3494 4666 
L 4128 4666 
L 4128 1753 
Q 4128 841 3676 375 
Q 3225 -91 2344 -91 
Q 1459 -91 1007 375 
Q 556 841 556 1753 
L 556 4666 
z
" transform="scale(0.015625)"/>
     </defs>
     <use xlink:href="#DejaVuSans-3a"/>
     <use xlink:href="#DejaVuSans-19" transform="translate(98.875 0)"/>
     <use xlink:href="#DejaVuSans-18" transform="translate(162.5 0)"/>
     <use xlink:href="#DejaVuSans-26" transform="translate(226.125 0)"/>
     <use xlink:href="#DejaVuSans-13" transform="translate(295.953125 0)"/>
     <use xlink:href="#DejaVuSans-15" transform="translate(359.578125 0)"/>
     <use xlink:href="#DejaVuSans-36" transform="translate(423.203125 0)"/>
     <use xlink:href="#DejaVuSans-3" transform="translate(486.6875 0)"/>
     <use xlink:href="#DejaVuSans-26" transform="translate(518.46875 0)"/>
     <use xlink:href="#DejaVuSans-33" transform="translate(588.296875 0)"/>
     <use xlink:href="#DejaVuSans-38" transform="translate(648.59375 0)"/>
    </g>
   </g>
   <g id="text_66">
    <!-- +5V -->
    <g transform="translate(63.664172 312.989422) scale(0.11 -0.11)">
     <defs>
      <path id="DejaVuSans-e" d="M 2944 4013 
L 2944 2272 
L 4684 2272 
L 4684 1741 
L 2944 1741 
L 2944 0 
L 2419 0 
L 2419 1741 
L 678 1741 
L 678 2272 
L 2419 2272 
L 2419 4013 
L 2944 4013 
z
" transform="scale(0.015625)"/>
     </defs>
     <use xlink:href="#DejaVuSans-e"/>
     <use xlink:href="#DejaVuSans-18" transform="translate(83.796875 0)"/>
     <use xlink:href="#DejaVuSans-39" transform="translate(147.421875 0)"/>
    </g>
   </g>
   <g id="text_67">
    <!-- 100n (C1) -->
    <g transform="translate(7.2 364.389422) scale(0.11 -0.11)">
     <defs>
      <path id="DejaVuSans-51" d="M 3513 2113 
L 3513 0 
L 2938 0 
L 2938 2094 
Q 2938 2591 2744 2837 
Q 2550 3084 2163 3084 
Q 1697 3084 1428 2787 
Q 1159 2491 1159 1978 
L 1159 0 
L 581 0 
L 581 3500 
L 1159 3500 
L 1159 2956 
Q 1366 3272 1645 3428 
Q 1925 3584 2291 3584 
Q 2894 3584 3203 3211 
Q 3513 2838 3513 2113 
z
" transform="scale(0.015625)"/>
      <path id="DejaVuSans-b" d="M 1984 4856 
Q 1566 4138 1362 3434 
Q 1159 2731 1159 2009 
Q 1159 1288 1364 580 
Q 1569 -128 1984 -844 
L 1484 -844 
Q 1016 -109 783 600 
Q 550 1309 550 2009 
Q 550 2706 781 3412 
Q 1013 4119 1484 4856 
L 1984 4856 
z
" transform="scale(0.015625)"/>
      <path id="DejaVuSans-c" d="M 513 4856 
L 1013 4856 
Q 1481 4119 1714 3412 
Q 1947 2706 1947 2009 
Q 1947 1309 1714 600 
Q 1481 -109 1013 -844 
L 513 -844 
Q 928 -128 1133 580 
Q 1338 1288 1338 2009 
Q 1338 2731 1133 3434 
Q 928 4138 513 4856 
z
" transform="scale(0.015625)"/>
     </defs>
     <use xlink:href="#DejaVuSans-14"/>
     <use xlink:href="#DejaVuSans-13" transform="translate(63.625 0)"/>
     <use xlink:href="#DejaVuSans-13" transform="translate(127.25 0)"/>
     <use xlink:href="#DejaVuSans-51" transform="translate(190.875 0)"/>
     <use xlink:href="#DejaVuSans-3" transform="translate(254.25 0)"/>
     <use xlink:href="#DejaVuSans-b" transform="translate(286.03125 0)"/>
     <use xlink:href="#DejaVuSans-26" transform="translate(325.046875 0)"/>
     <use xlink:href="#DejaVuSans-14" transform="translate(394.875 0)"/>
     <use xlink:href="#DejaVuSans-c" transform="translate(458.5 0)"/>
    </g>
   </g>
   <g id="text_68">
    <!-- 3.3K (R1) -->
    <g transform="translate(107.698281 94.497422) scale(0.11 -0.11)">
     <defs>
      <path id="DejaVuSans-11" d="M 684 794 
L 1344 794 
L 1344 0 
L 684 0 
L 684 794 
z
" transform="scale(0.015625)"/>
      <path id="DejaVuSans-2e" d="M 628 4666 
L 1259 4666 
L 1259 2694 
L 3353 4666 
L 4166 4666 
L 1850 2491 
L 4331 0 
L 3500 0 
L 1259 2247 
L 1259 0 
L 628 0 
L 628 4666 
z
" transform="scale(0.015625)"/>
     </defs>
     <use xlink:href="#DejaVuSans-16"/>
     <use xlink:href="#DejaVuSans-11" transform="translate(63.625 0)"/>
     <use xlink:href="#DejaVuSans-16" transform="translate(95.40625 0)"/>
     <use xlink:href="#DejaVuSans-2e" transform="translate(159.03125 0)"/>
     <use xlink:href="#DejaVuSans-3" transform="translate(224.609375 0)"/>
     <use xlink:href="#DejaVuSans-b" transform="translate(256.390625 0)"/>
     <use xlink:href="#DejaVuSans-35" transform="translate(295.40625 0)"/>
     <use xlink:href="#DejaVuSans-14" transform="translate(364.890625 0)"/>
     <use xlink:href="#DejaVuSans-c" transform="translate(428.515625 0)"/>
    </g>
   </g>
   <g id="text_69">
    <!-- +5V -->
    <g transform="translate(160.864172 15.557422) scale(0.11 -0.11)">
     <use xlink:href="#DejaVuSans-e"/>
     <use xlink:href="#DejaVuSans-18" transform="translate(83.796875 0)"/>
     <use xlink:href="#DejaVuSans-39" transform="translate(147.421875 0)"/>
    </g>
   </g>
   <g id="text_70">
    <!-- 3.3K (R2) -->
    <g transform="translate(88.258281 138.561422) scale(0.11 -0.11)">
     <use xlink:href="#DejaVuSans-16"/>
     <use xlink:href="#DejaVuSans-11" transform="translate(63.625 0)"/>
     <use xlink:href="#DejaVuSans-16" transform="translate(95.40625 0)"/>
     <use xlink:href="#DejaVuSans-2e" transform="translate(159.03125 0)"/>
     <use xlink:href="#DejaVuSans-3" transform="translate(224.609375 0)"/>
     <use xlink:href="#DejaVuSans-b" transform="translate(256.390625 0)"/>
     <use xlink:href="#DejaVuSans-35" transform="translate(295.40625 0)"/>
     <use xlink:href="#DejaVuSans-15" transform="translate(364.890625 0)"/>
     <use xlink:href="#DejaVuSans-c" transform="translate(428.515625 0)"/>
    </g>
   </g>
   <g id="text_71">
    <!-- +5V -->
    <g transform="translate(141.424172 59.621422) scale(0.11 -0.11)">
     <use xlink:href="#DejaVuSans-e"/>
     <use xlink:href="#DejaVuSans-18" transform="translate(83.796875 0)"/>
     <use xlink:href="#DejaVuSans-39" transform="translate(147.421875 0)"/>
    </g>
   </g>
   <g id="text_72">
    <!-- 3.3K (R3) -->
    <g transform="translate(68.818281 182.625422) scale(0.11 -0.11)">
     <use xlink:href="#DejaVuSans-16"/>
     <use xlink:href="#DejaVuSans-11" transform="translate(63.625 0)"/>
     <use xlink:href="#DejaVuSans-16" transform="translate(95.40625 0)"/>
     <use xlink:href="#DejaVuSans-2e" transform="translate(159.03125 0)"/>
     <use xlink:href="#DejaVuSans-3" transform="translate(224.609375 0)"/>
     <use xlink:href="#DejaVuSans-b" transform="translate(256.390625 0)"/>
     <use xlink:href="#DejaVuSans-35" transform="translate(295.40625 0)"/>
     <use xlink:href="#DejaVuSans-16" transform="translate(364.890625 0)"/>
     <use xlink:href="#DejaVuSans-c" transform="translate(428.515625 0)"/>
    </g>
   </g>
   <g id="text_73">
    <!-- +5V -->
    <g transform="translate(121.984172 103.685422) scale(0.11 -0.11)">
     <use xlink:href="#DejaVuSans-e"/>
     <use xlink:href="#DejaVuSans-18" transform="translate(83.796875 0)"/>
     <use xlink:href="#DejaVuSans-39" transform="translate(147.421875 0)"/>
    </g>
   </g>
   <g id="text_74">
    <!-- 3.3K (R4) -->
    <g transform="translate(391.522281 160.593422) scale(0.11 -0.11)">
     <use xlink:href="#DejaVuSans-16"/>
     <use xlink:href="#DejaVuSans-11" transform="translate(63.625 0)"/>
     <use xlink:href="#DejaVuSans-16" transform="translate(95.40625 0)"/>
     <use xlink:href="#DejaVuSans-2e" transform="translate(159.03125 0)"/>
     <use xlink:href="#DejaVuSans-3" transform="translate(224.609375 0)"/>
     <use xlink:href="#DejaVuSans-b" transform="translate(256.390625 0)"/>
     <use xlink:href="#DejaVuSans-35" transform="translate(295.40625 0)"/>
     <use xlink:href="#DejaVuSans-17" transform="translate(364.890625 0)"/>
     <use xlink:href="#DejaVuSans-c" transform="translate(428.515625 0)"/>
    </g>
   </g>
   <g id="text_75">
    <!-- +5V -->
    <g transform="translate(444.688172 81.653422) scale(0.11 -0.11)">
     <use xlink:href="#DejaVuSans-e"/>
     <use xlink:href="#DejaVuSans-18" transform="translate(83.796875 0)"/>
     <use xlink:href="#DejaVuSans-39" transform="translate(147.421875 0)"/>
    </g>
   </g>
   <g id="text_76">
    <!-- 3.3K (R5) -->
    <g transform="translate(430.402281 116.529422) scale(0.11 -0.11)">
     <use xlink:href="#DejaVuSans-16"/>
     <use xlink:href="#DejaVuSans-11" transform="translate(63.625 0)"/>
     <use xlink:href="#DejaVuSans-16" transform="translate(95.40625 0)"/>
     <use xlink:href="#DejaVuSans-2e" transform="translate(159.03125 0)"/>
     <use xlink:href="#DejaVuSans-3" transform="translate(224.609375 0)"/>
     <use xlink:href="#DejaVuSans-b" transform="translate(256.390625 0)"/>
     <use xlink:href="#DejaVuSans-35" transform="translate(295.40625 0)"/>
     <use xlink:href="#DejaVuSans-18" transform="translate(364.890625 0)"/>
     <use xlink:href="#DejaVuSans-c" transform="translate(428.515625 0)"/>
    </g>
   </g>
   <g id="text_77">
    <!-- +5V -->
    <g transform="translate(483.568172 37.589422) scale(0.11 -0.11)">
     <use xlink:href="#DejaVuSans-e"/>
     <use xlink:href="#DejaVuSans-18" transform="translate(83.796875 0)"/>
     <use xlink:href="#DejaVuSans-39" transform="translate(147.421875 0)"/>
    </g>
   </g>
   <g id="patch_2">
    <path d="M 75.534719 336.746 
C 76.308051 336.746 77.049814 336.455821 77.596642 335.939372 
C 78.143471 335.422923 78.450719 334.722369 78.450719 333.992 
C 78.450719 333.261631 78.143471 332.561077 77.596642 332.044628 
C 77.049814 331.528179 76.308051 331.238 75.534719 331.238 
C 74.761387 331.238 74.019624 331.528179 73.472795 332.044628 
C 72.925967 332.561077 72.618719 333.261631 72.618719 333.992 
C 72.618719 334.722369 72.925967 335.422923 73.472795 335.939372 
C 74.019624 336.455821 74.761387 336.746 75.534719 336.746 
z
" clip-path="url(#pa74774bdde)" style="stroke: #000000; stroke-width: 2; stroke-linejoin: miter"/>
   </g>
   <g id="patch_3">
    <path d="M 172.734719 204.554 
C 173.508051 204.554 174.249814 204.263821 174.796642 203.747372 
C 175.343471 203.230923 175.650719 202.530369 175.650719 201.8 
C 175.650719 201.069631 175.343471 200.369077 174.796642 199.852628 
C 174.249814 199.336179 173.508051 199.046 172.734719 199.046 
C 171.961387 199.046 171.219624 199.336179 170.672795 199.852628 
C 170.125967 200.369077 169.818719 201.069631 169.818719 201.8 
C 169.818719 202.530369 170.125967 203.230923 170.672795 203.747372 
C 171.219624 204.263821 171.961387 204.554 172.734719 204.554 
z
" clip-path="url(#pa74774bdde)" style="stroke: #000000; stroke-width: 2; stroke-linejoin: miter"/>
   </g>
   <g id="patch_4">
    <path d="M 153.294719 248.618 
C 154.068051 248.618 154.809814 248.327821 155.356642 247.811372 
C 155.903471 247.294923 156.210719 246.594369 156.210719 245.864 
C 156.210719 245.133631 155.903471 244.433077 155.356642 243.916628 
C 154.809814 243.400179 154.068051 243.11 153.294719 243.11 
C 152.521387 243.11 151.779624 243.400179 151.232795 243.916628 
C 150.685967 244.433077 150.378719 245.133631 150.378719 245.864 
C 150.378719 246.594369 150.685967 247.294923 151.232795 247.811372 
C 151.779624 248.327821 152.521387 248.618 153.294719 248.618 
z
" clip-path="url(#pa74774bdde)" style="stroke: #000000; stroke-width: 2; stroke-linejoin: miter"/>
   </g>
   <g id="patch_5">
    <path d="M 133.854719 292.682 
C 134.628051 292.682 135.369814 292.391821 135.916642 291.875372 
C 136.463471 291.358923 136.770719 290.658369 136.770719 289.928 
C 136.770719 289.197631 136.463471 288.497077 135.916642 287.980628 
C 135.369814 287.464179 134.628051 287.174 133.854719 287.174 
C 133.081387 287.174 132.339624 287.464179 131.792795 287.980628 
C 131.245967 288.497077 130.938719 289.197631 130.938719 289.928 
C 130.938719 290.658369 131.245967 291.358923 131.792795 291.875372 
C 132.339624 292.391821 133.081387 292.682 133.854719 292.682 
z
" clip-path="url(#pa74774bdde)" style="stroke: #000000; stroke-width: 2; stroke-linejoin: miter"/>
   </g>
   <g id="patch_6">
    <path d="M 456.558719 270.65 
C 457.332051 270.65 458.073814 270.359821 458.620642 269.843372 
C 459.167471 269.326923 459.474719 268.626369 459.474719 267.896 
C 459.474719 267.165631 459.167471 266.465077 458.620642 265.948628 
C 458.073814 265.432179 457.332051 265.142 456.558719 265.142 
C 455.785387 265.142 455.043624 265.432179 454.496795 265.948628 
C 453.949967 266.465077 453.642719 267.165631 453.642719 267.896 
C 453.642719 268.626369 453.949967 269.326923 454.496795 269.843372 
C 455.043624 270.359821 455.785387 270.65 456.558719 270.65 
z
" clip-path="url(#pa74774bdde)" style="stroke: #000000; stroke-width: 2; stroke-linejoin: miter"/>
   </g>
   <g id="patch_7">
    <path d="M 495.438719 226.586 
C 496.212051 226.586 496.953814 226.295821 497.500642 225.779372 
C 498.047471 225.262923 498.354719 224.562369 498.354719 223.832 
C 498.354719 223.101631 498.047471 222.401077 497.500642 221.884628 
C 496.953814 221.368179 496.212051 221.078 495.438719 221.078 
C 494.665387 221.078 493.923624 221.368179 493.376795 221.884628 
C 492.829967 222.401077 492.522719 223.101631 492.522719 223.832 
C 492.522719 224.562369 492.829967 225.262923 493.376795 225.779372 
C 493.923624 226.295821 494.665387 226.586 495.438719 226.586 
z
" clip-path="url(#pa74774bdde)" style="stroke: #000000; stroke-width: 2; stroke-linejoin: miter"/>
   </g>
  </g>
 </g>
 <defs>
  <clipPath id="pa74774bdde">
   <rect x="61.926719" y="18.2" width="493.776" height="613.9584"/>
  </clipPath>
 </defs>
</svg>
